<?xml version="1.0" encoding="utf-8"?>
<!-- Generator: Adobe Illustrator 23.0.2, SVG Export Plug-In . SVG Version: 6.00 Build 0)  -->
<svg version="1.1" id="图层_1" xmlns="http://www.w3.org/2000/svg" xmlns:xlink="http://www.w3.org/1999/xlink" x="0px" y="0px"
	 viewBox="0 0 224 190" style="enable-background:new 0 0 224 190;" xml:space="preserve">
<style type="text/css">
	.st0{fill:#245AA7;}
	.st1{fill:url(#SVGID_1_);}
	.st2{fill:url(#SVGID_2_);}
	.st3{fill:#E4B434;}
	.st4{fill:#F5AC2E;}
	.st5{fill:#F4B01C;}
	.st6{fill:#ECB034;}
	.st7{fill:#F4A73D;}
	.st8{fill:#C47856;}
	.st9{opacity:0.3;fill-rule:evenodd;clip-rule:evenodd;fill:none;stroke:url(#SVGID_3_);stroke-width:3;stroke-miterlimit:10;}
	.st10{opacity:0.3;fill-rule:evenodd;clip-rule:evenodd;fill:none;stroke:url(#SVGID_4_);stroke-width:3;stroke-miterlimit:10;}
	.st11{opacity:0.3;fill-rule:evenodd;clip-rule:evenodd;fill:none;stroke:url(#SVGID_5_);stroke-width:3;stroke-miterlimit:10;}
	.st12{fill-rule:evenodd;clip-rule:evenodd;fill:url(#SVGID_6_);}
</style>
<g>
	<path class="st0" d="M80.67,177.39c0,0.81-0.71,1.48-1.58,1.48H53.48c-0.87,0-1.58-0.66-1.58-1.48l0,0c0-0.82,0.71-1.48,1.58-1.48
		h25.61C79.96,175.92,80.67,176.58,80.67,177.39L80.67,177.39L80.67,177.39z"/>
	<path class="st0" d="M117.72,177.39c0,0.81-0.71,1.48-1.58,1.48H90.53c-0.87,0-1.58-0.66-1.58-1.48l0,0c0-0.82,0.71-1.48,1.58-1.48
		h25.61C117.01,175.92,117.72,176.58,117.72,177.39L117.72,177.39L117.72,177.39z"/>
	<path class="st0" d="M154.04,177.39c0,0.81-0.71,1.48-1.58,1.48h-25.61c-0.87,0-1.58-0.66-1.58-1.48l0,0
		c0-0.82,0.71-1.48,1.58-1.48h25.61C153.33,175.92,154.04,176.58,154.04,177.39L154.04,177.39L154.04,177.39z"/>
	<path class="st0" d="M193.96,177.39c0,0.81-0.71,1.48-1.58,1.48h-25.61c-0.87,0-1.58-0.66-1.58-1.48l0,0
		c0-0.82,0.71-1.48,1.58-1.48h25.61C193.26,175.92,193.96,176.58,193.96,177.39L193.96,177.39L193.96,177.39z"/>
	<path class="st0" d="M178.14,187.45c0,0.81-0.71,1.48-1.58,1.48h-25.61c-0.87,0-1.58-0.66-1.58-1.48l0,0
		c0-0.82,0.71-1.48,1.58-1.48h25.61C177.43,185.98,178.14,186.64,178.14,187.45L178.14,187.45L178.14,187.45z"/>
	<path class="st0" d="M133.9,187.45c0,0.81-0.71,1.48-1.58,1.48h-25.61c-0.87,0-1.58-0.66-1.58-1.48l0,0c0-0.82,0.71-1.48,1.58-1.48
		h25.61C133.19,185.98,133.9,186.64,133.9,187.45L133.9,187.45L133.9,187.45z"/>
	<path class="st0" d="M89.84,187.45c0,0.81-0.71,1.48-1.58,1.48H62.65c-0.88,0-1.58-0.66-1.58-1.48l0,0c0-0.82,0.71-1.48,1.58-1.48
		h25.61C89.14,185.98,89.84,186.64,89.84,187.45L89.84,187.45L89.84,187.45z"/>
	<linearGradient id="SVGID_1_" gradientUnits="userSpaceOnUse" x1="2" y1="100.6936" x2="23.9069" y2="100.6936">
		<stop  offset="0" style="stop-color:#8492FD"/>
		<stop  offset="1" style="stop-color:#5DB5FC"/>
	</linearGradient>
	<path class="st1" d="M21.47,98.42h-6.08v-5.67c0-1.25-1.09-2.27-2.44-2.27c-1.34,0-2.43,1.02-2.43,2.27v5.67H4.43
		c-1.35,0-2.43,1.02-2.43,2.27c0,1.25,1.09,2.27,2.43,2.27h6.08v5.67c0,1.25,1.09,2.27,2.43,2.27c1.35,0,2.44-1.02,2.44-2.27v-5.67
		h6.08c1.34,0,2.44-1.02,2.44-2.27C23.91,99.44,22.82,98.42,21.47,98.42L21.47,98.42z"/>
	<linearGradient id="SVGID_2_" gradientUnits="userSpaceOnUse" x1="189.9796" y1="148.7587" x2="202.3793" y2="148.7587">
		<stop  offset="0" style="stop-color:#8492FD"/>
		<stop  offset="1" style="stop-color:#5DB5FC"/>
	</linearGradient>
	<path class="st2" d="M201,147.47h-3.44v-3.21c0-0.71-0.62-1.28-1.38-1.28c-0.76,0-1.38,0.57-1.38,1.28v3.21h-3.44
		c-0.76,0-1.38,0.57-1.38,1.28c0,0.71,0.62,1.28,1.38,1.28h3.44v3.21c0,0.71,0.62,1.28,1.38,1.28c0.76,0,1.38-0.58,1.38-1.28v-3.21
		H201c0.76,0,1.38-0.58,1.38-1.28C202.38,148.05,201.76,147.47,201,147.47L201,147.47z"/>
	<path class="st3" d="M73.93,6.2c0,0.84-0.73,1.52-1.63,1.52l0,0c-0.9,0-1.63-0.68-1.63-1.52V3.52C70.67,2.68,71.4,2,72.3,2l0,0
		c0.9,0,1.63,0.68,1.63,1.52V6.2L73.93,6.2z"/>
	<path class="st3" d="M79.16,9.75c-0.69,0.54-1.71,0.47-2.3-0.17l0,0c-0.58-0.64-0.51-1.6,0.18-2.14l2.19-1.74
		c0.68-0.54,1.71-0.47,2.29,0.17l0,0c0.58,0.64,0.5,1.6-0.18,2.14L79.16,9.75L79.16,9.75z"/>
	<path class="st3" d="M69.93,21.59c-0.31,0.79-1.24,1.2-2.09,0.91l0,0c-0.84-0.29-1.28-1.16-0.98-1.95l0.98-2.53
		c0.31-0.79,1.24-1.2,2.09-0.91l0,0c0.85,0.29,1.28,1.16,0.98,1.95L69.93,21.59L69.93,21.59z"/>
	<path class="st3" d="M78.45,20.64c0.27,0.8-0.21,1.65-1.07,1.9l0,0c-0.86,0.25-1.77-0.2-2.04-1l-0.86-2.57
		c-0.27-0.8,0.21-1.65,1.07-1.9l0,0c0.86-0.25,1.77,0.2,2.04,1L78.45,20.64L78.45,20.64z"/>
	<path class="st3" d="M68.09,8.13c0.62,0.61,0.58,1.57-0.08,2.15l0,0c-0.66,0.57-1.69,0.54-2.3-0.08l-1.96-1.97
		c-0.62-0.61-0.58-1.58,0.08-2.15l0,0c0.66-0.57,1.69-0.54,2.3,0.08L68.09,8.13L68.09,8.13z"/>
	<path class="st3" d="M79.67,16c-0.9,0.01-1.64-0.66-1.66-1.5l0,0c-0.01-0.84,0.71-1.53,1.61-1.54l2.88-0.04
		c0.9-0.01,1.64,0.66,1.65,1.5l0,0c0.01,0.84-0.7,1.53-1.61,1.54L79.67,16L79.67,16z"/>
	<path class="st3" d="M62.9,16c-0.9,0.01-1.64-0.66-1.65-1.5l0,0c-0.02-0.84,0.7-1.53,1.6-1.54l2.88-0.04
		c0.9-0.01,1.64,0.66,1.66,1.5l0,0c0.01,0.84-0.7,1.53-1.61,1.54L62.9,16L62.9,16z"/>
	<path class="st4" d="M26.64,151.4c-1.5,0-2.72-1.13-2.72-2.53c0-1.4,1.22-2.53,2.72-2.53c1.5,0,2.72,1.13,2.72,2.53
		C29.35,150.27,28.13,151.4,26.64,151.4L26.64,151.4z M26.64,143.22c-3.35,0-6.06,2.53-6.06,5.65c0,3.12,2.71,5.65,6.06,5.65
		c3.34,0,6.05-2.53,6.05-5.65C32.69,145.75,29.98,143.22,26.64,143.22L26.64,143.22z"/>
	<path class="st5" d="M186.87,16.57c0,0.7-0.61,1.27-1.36,1.27l0,0c-0.75,0-1.37-0.57-1.37-1.27v-2.25c0-0.7,0.61-1.27,1.37-1.27
		l0,0c0.75,0,1.36,0.57,1.36,1.27V16.57L186.87,16.57z"/>
	<path class="st5" d="M191.25,19.54c-0.58,0.46-1.44,0.39-1.93-0.14l0,0c-0.49-0.54-0.42-1.34,0.15-1.79l1.84-1.46
		c0.57-0.46,1.44-0.39,1.93,0.14l0,0c0.49,0.54,0.42,1.34-0.16,1.8L191.25,19.54L191.25,19.54z"/>
	<path class="st5" d="M183.52,29.46c-0.26,0.66-1.04,1-1.75,0.76l0,0c-0.71-0.24-1.08-0.97-0.82-1.63l0.83-2.12
		c0.26-0.66,1.04-1,1.75-0.76l0,0c0.71,0.24,1.07,0.97,0.82,1.63L183.52,29.46L183.52,29.46z"/>
	<path class="st5" d="M190.66,28.67c0.23,0.67-0.18,1.38-0.9,1.59l0,0c-0.72,0.21-1.48-0.17-1.71-0.84l-0.72-2.15
		c-0.23-0.67,0.18-1.39,0.9-1.59l0,0c0.72-0.21,1.49,0.17,1.71,0.84L190.66,28.67L190.66,28.67z"/>
	<path class="st5" d="M181.98,18.18c0.51,0.51,0.48,1.32-0.07,1.8l0,0c-0.55,0.48-1.41,0.45-1.93-0.06l-1.65-1.65
		c-0.52-0.52-0.48-1.32,0.07-1.8l0,0c0.55-0.48,1.41-0.45,1.93,0.06L181.98,18.18L181.98,18.18z"/>
	<path class="st5" d="M191.68,24.78c-0.76,0.01-1.38-0.55-1.39-1.25l0,0c-0.01-0.7,0.59-1.28,1.34-1.29l2.42-0.03
		c0.75-0.01,1.37,0.55,1.38,1.25l0,0c0.01,0.7-0.59,1.28-1.34,1.29L191.68,24.78L191.68,24.78z"/>
	<path class="st5" d="M177.63,24.78c-0.75,0.01-1.37-0.55-1.38-1.25l0,0c-0.01-0.7,0.59-1.28,1.35-1.29L180,22.2
		c0.75-0.01,1.37,0.55,1.38,1.25l0,0c0.02,0.7-0.59,1.28-1.34,1.29L177.63,24.78L177.63,24.78z"/>
	<path class="st6" d="M205.18,84.26c-1.31,0-2.37-0.99-2.37-2.21c0-1.22,1.06-2.21,2.37-2.21s2.37,0.99,2.37,2.21
		C207.55,83.28,206.48,84.26,205.18,84.26L205.18,84.26z M205.18,77.13c-2.92,0-5.28,2.21-5.28,4.93c0,2.72,2.36,4.93,5.28,4.93
		c2.92,0,5.28-2.2,5.28-4.93C210.46,79.34,208.09,77.13,205.18,77.13L205.18,77.13z"/>
	<path class="st7" d="M46.37,46.4c0,2.39-2.08,4.33-4.65,4.33c-2.57,0-4.65-1.94-4.65-4.33c0-2.39,2.08-4.34,4.65-4.34
		C44.29,42.06,46.37,44.01,46.37,46.4L46.37,46.4z"/>
	<path class="st7" d="M222,124.7c0,1.8-1.56,3.25-3.48,3.25c-1.92,0-3.48-1.45-3.48-3.25c0-1.79,1.56-3.25,3.48-3.25
		C220.44,121.45,222,122.9,222,124.7L222,124.7z"/>
	<path class="st7" d="M139.52,12.23c0,2.39-2.08,4.33-4.65,4.33c-2.57,0-4.65-1.94-4.65-4.33c0-2.39,2.08-4.33,4.65-4.33
		C137.44,7.9,139.52,9.84,139.52,12.23L139.52,12.23z"/>
	<path class="st8" d="M47.97,160.99c0,1.61-1.4,2.91-3.12,2.91c-1.72,0-3.12-1.3-3.12-2.91c0-1.61,1.4-2.91,3.12-2.91
		C46.57,158.08,47.97,159.38,47.97,160.99L47.97,160.99z"/>
	<linearGradient id="SVGID_3_" gradientUnits="userSpaceOnUse" x1="137.7466" y1="62.4961" x2="151.7466" y2="62.4961">
		<stop  offset="0" style="stop-color:#8492FD"/>
		<stop  offset="1" style="stop-color:#5DB5FC"/>
	</linearGradient>
	<circle class="st9" cx="144.75" cy="62.5" r="5.5"/>
	<linearGradient id="SVGID_4_" gradientUnits="userSpaceOnUse" x1="136.0966" y1="147.1961" x2="148.9966" y2="147.1961">
		<stop  offset="0" style="stop-color:#8492FD"/>
		<stop  offset="1" style="stop-color:#5DB5FC"/>
	</linearGradient>
	<circle class="st10" cx="142.55" cy="147.2" r="4.95"/>
	<linearGradient id="SVGID_5_" gradientUnits="userSpaceOnUse" x1="63.4966" y1="104.8461" x2="77.4966" y2="104.8461">
		<stop  offset="0" style="stop-color:#8492FD"/>
		<stop  offset="1" style="stop-color:#5DB5FC"/>
	</linearGradient>
	<circle class="st11" cx="70.5" cy="104.85" r="5.5"/>
	<linearGradient id="SVGID_6_" gradientUnits="userSpaceOnUse" x1="72.5326" y1="104.7881" x2="168.1589" y2="104.7881">
		<stop  offset="0" style="stop-color:#8492FD"/>
		<stop  offset="1" style="stop-color:#5DB5FC"/>
	</linearGradient>
	<path class="st12" d="M87.04,73.08c4.1,0.01,8.06,0.87,12.05,1.7c1.25,0.26,2.97,1.96,3.99-0.19c0.83-1.74,1.16-3.34-0.68-5.24
		c-4.26-4.41-2.07-12.05,3.95-12.82c3.76-0.48,6.51-1.99,9.56-3.76c3.53-2.05,7.74-0.85,11.02,2.57c3.83,3.99,5.88,8.96,7.58,14.11
		c0.48,1.46,1.02,2.91,1.35,4.4c0.35,1.56,0.97,1.76,2.53,1.36c5.33-1.36,10.71-2.44,16.28-2.11c2.45,0.15,4.8,0.62,6.98,1.73
		c3.83,1.95,5.63,5.65,4.83,9.89c-1.14,6.1-4.83,10.75-8.71,15.28c-0.64,0.75-1.5,1.36-2,2.19c-0.65,1.1-2.94,1.48-1.85,3.3
		c1,1.67,2.38,2.36,4.68,1.8c5.32-1.29,10.67,3.06,9.35,8.25c-1.12,4.41-1.4,8.65-1.66,13.08c-0.24,4.24-3.66,6.29-7.54,7.26
		c-6.28,1.56-12.52,0.66-18.54-1.13c-3.22-0.96-4.3-0.28-5.03,2.89c-1.26,5.49-3.39,10.69-6.95,15.16
		c-5.33,6.69-12.1,6.67-17.37-0.06c-3.8-4.86-5.68-10.62-7.43-16.42c-0.26-0.87-0.01-2.38-1.37-2.17c-1.23,0.19-2.67,0.04-3.47,1.85
		c-3.49,7.94-9.92,8.5-15.14,1.41c-0.77-1.04-1.79-1.16-2.81-1.45c-7.09-2-9.66-6.92-7.22-13.88c1.9-5.42,5.47-9.75,9.31-13.86
		c3.19-3.41,3.2-3.37,0.11-6.66c-3.18-3.37-6.14-6.91-8.21-11.1c-4.93-10-0.73-17.01,10.41-17.37
		C85.71,73.07,86.38,73.08,87.04,73.08z M140.38,131.16c5.73,1.59,11.5,2.77,17.44,1.38c4.22-0.99,5.92-3.72,5.04-7.73
		c-0.22-1.01-0.37-1.87-1.8-1.77c-4.61,0.31-7.33-2.16-8.85-6.28c0.08-1.63-0.23-3.35,0.67-4.83c1.21-1.97-0.54-2.67-1.46-3.73
		c-1.36-1.55-2.14,0.03-2.93,0.68c-11.96,9.83-25.19,17.47-39.68,22.88c-2.13,0.8-2.92,1.7-1.73,3.77
		c1.23,5.51,3.18,10.73,6.73,15.18c3.87,4.85,7.72,4.84,11.61-0.03c3.41-4.27,5.3-9.28,6.51-14.56c1.57-2.53,0.71-3.9-2.05-4.54
		c-1.16-0.27-2.3-0.75-3.34-1.32c-1.03-0.56-3.13-0.26-2.14-2.68c0.95-2.31,2.2-0.99,3.38-0.52c5.83,2.3,5.82,2.32,6.86-3.68
		c0.04-0.21,0.12-0.43,0.13-0.64c0.11-1.33,0.41-2.27,2.16-2.03c1.99,0.28,1.39,1.62,1.3,2.71c-0.1,1.3-0.19,2.66-0.62,3.88
		C136.61,130.06,137.71,131.11,140.38,131.16z M100.11,130.73c2.06,0.09,1.89-1.07,1.63-2.58c-2.46-14.52-2.6-29.06-0.47-43.63
		c0.82-5.59,0.78-5.6-5.19-6.7c-4.6-1.09-9.22-1.81-13.96-0.84c-5.29,1.08-7.22,4.21-5.38,9.32c1.89,5.25,5.28,9.51,9.3,13.3
		c1.48,2.31,3.04,3.36,5.27,0.7c0.83-0.99,2.06-1.64,3.08-2.48c0.84-0.69,1.54-1.14,2.44,0.03c0.81,1.06,0.96,1.78-0.19,2.74
		c-1.65,1.36-4.63,2.29-4.44,4.37c0.17,1.92,2.98,2.97,4.71,4.3c1,0.77,1.12,1.37,0.35,2.4c-0.85,1.14-1.57,1.31-2.66,0.33
		c-1.22-1.1-2.69-1.95-3.83-3.13c-1.7-1.77-2.94-1.48-4.07,0.5c-3.8,3.41-6.85,7.4-9.18,11.95c-1.02,1.99-1.61,4.1-1.33,6.36
		c0.35,2.85,2.46,3.97,4.84,4.78c2.43,0.83,2.23-1.53,2.97-2.6c3.22-4.72,9.59-4.99,13.22-0.49
		C97.96,130.31,98.29,132.12,100.11,130.73z M114.26,69.75c-1.4,0.84-2.65,2.1-4.38,2.12c-2.49,0.04-2.94,1.74-3.27,3.64
		c-0.38,2.24,1.58,2.09,2.74,2.52c13.24,5.03,25.38,11.99,36.56,20.67c4.99,3.87,4.98,3.88,9.06-1.09
		c3.31-3.27,5.98-6.99,7.52-11.39c1.74-4.95-0.14-8.11-5.23-9.21c-4.38-0.95-8.68-0.47-12.96,0.65c-6.96,0.8-6.97,0.8-6.15,7.63
		c0.14,1.13,0.4,2.17-1.3,2.4c-1.66,0.23-2.13-0.57-2.3-1.97c-0.21-1.73-0.21-3.51-1.17-5.22c-1.95,0.74-3.92,1.43-5.83,2.24
		c-1.03,0.44-1.66,0.27-2.07-0.77c-0.37-0.95-0.82-1.9,0.58-2.43c0.62-0.23,1.22-0.49,1.83-0.74c5.4-2.15,5.4-2.15,3.4-7.75
		c-0.07-0.21-0.19-0.4-0.28-0.6c-1.12-4.15-2.86-8-5.51-11.41c-1.22-1.57-2.67-2.94-4.64-3.51c-2.27-0.66-4.01,0.45-5.64,1.85
		c-0.81,0.7-0.78,1.36-0.21,2.27C117.22,63.18,116.51,66.53,114.26,69.75z M135.46,104.89c2.49-7.58-1.7-11.35-7.96-14.4
		c-10.1-4.93-5.93-5.3-15.82,0.14c-8.48,4.67-8.54,4.83-8.34,14.4c0.24,11.2-1.92,8.03,7.87,13.66c10.39,5.98,6.05,5.46,16.65,0.28
		C133.99,115.98,137.7,112.21,135.46,104.89z M95.34,134.12c-0.03-2.39-1.99-4.27-4.5-4.3c-2.64-0.03-4.81,2-4.57,4.49
		c0.25,2.61,1.66,4.24,4.45,4.3C93.35,138.68,95.37,136.69,95.34,134.12z M164.77,114.99c-0.04-2.55-2.11-4.43-4.77-4.31
		c-2.4,0.1-4.39,2.15-4.33,4.47c0.05,2.35,2.06,4.3,4.48,4.33C162.77,119.52,164.81,117.53,164.77,114.99z M108.23,68.52
		c2.51,0.03,4.42-1.79,4.49-4.28c0.07-2.77-1.74-4.62-4.47-4.58c-2.52,0.04-4.36,1.91-4.35,4.41
		C103.91,66.6,105.75,68.49,108.23,68.52z M139.28,111.63c2.88-2.27,5.09-4.06,7.36-5.79c0.98-0.75,0.93-1.36-0.01-2.05
		c-2.35-1.72-4.37-3.93-7.52-5.39C139.66,102.82,139.28,106.83,139.28,111.63z M115.54,125.3c-4.19-2.38-7.71-4.38-11.68-6.63
		c0.65,3.89,0.66,7.24,1.87,10.6C108.96,127.96,111.97,126.74,115.54,125.3z M104.06,90.96c3.84-2.24,7.36-4.3,11.33-6.62
		c-3.65-1.55-6.56-2.98-9.83-3.79C104.76,83.94,104.23,87.22,104.06,90.96z"/>
</g>
</svg>
