<?xml version="1.0" encoding="utf-8"?>
<!-- Generator: Adobe Illustrator 23.0.2, SVG Export Plug-In . SVG Version: 6.00 Build 0)  -->
<svg version="1.1" id="图层_1" xmlns="http://www.w3.org/2000/svg" xmlns:xlink="http://www.w3.org/1999/xlink" x="0px" y="0px"
	 viewBox="0 0 224 190" style="enable-background:new 0 0 224 190;" xml:space="preserve">
<style type="text/css">
	.st0{fill:#004BA5;}
	.st1{fill:url(#SVGID_1_);}
	.st2{fill:url(#SVGID_2_);}
	.st3{fill:#E4B434;}
	.st4{fill:#F5AC2E;}
	.st5{fill:#F4B01C;}
	.st6{fill:#ECB034;}
	.st7{fill:#F4A73D;}
	.st8{fill:#C47856;}
	.st9{fill-rule:evenodd;clip-rule:evenodd;fill:url(#SVGID_3_);}
	.st10{fill-rule:evenodd;clip-rule:evenodd;fill:url(#SVGID_4_);}
	.st11{fill-rule:evenodd;clip-rule:evenodd;fill:url(#SVGID_5_);}
	.st12{fill-rule:evenodd;clip-rule:evenodd;fill:url(#SVGID_6_);}
	.st13{fill-rule:evenodd;clip-rule:evenodd;fill:url(#SVGID_7_);}
	.st14{fill-rule:evenodd;clip-rule:evenodd;fill:url(#SVGID_8_);}
	.st15{fill-rule:evenodd;clip-rule:evenodd;fill:url(#SVGID_9_);}
	.st16{fill-rule:evenodd;clip-rule:evenodd;fill:url(#SVGID_10_);}
	.st17{fill-rule:evenodd;clip-rule:evenodd;fill:url(#SVGID_11_);}
	.st18{fill-rule:evenodd;clip-rule:evenodd;fill:url(#SVGID_12_);}
	.st19{fill-rule:evenodd;clip-rule:evenodd;fill:url(#SVGID_13_);}
	.st20{fill-rule:evenodd;clip-rule:evenodd;fill:url(#SVGID_14_);}
	.st21{fill-rule:evenodd;clip-rule:evenodd;fill:url(#SVGID_15_);}
	.st22{fill-rule:evenodd;clip-rule:evenodd;fill:url(#SVGID_16_);}
	.st23{fill-rule:evenodd;clip-rule:evenodd;fill:url(#SVGID_17_);}
</style>
<g>
	<path class="st0" d="M80.67,177.39c0,0.81-0.71,1.48-1.58,1.48H53.48c-0.87,0-1.58-0.66-1.58-1.48l0,0c0-0.82,0.71-1.48,1.58-1.48
		h25.61C79.96,175.92,80.67,176.58,80.67,177.39L80.67,177.39L80.67,177.39z"/>
	<path class="st0" d="M117.72,177.39c0,0.81-0.71,1.48-1.58,1.48H90.53c-0.87,0-1.58-0.66-1.58-1.48l0,0c0-0.82,0.71-1.48,1.58-1.48
		h25.61C117.01,175.92,117.72,176.58,117.72,177.39L117.72,177.39L117.72,177.39z"/>
	<path class="st0" d="M154.04,177.39c0,0.81-0.71,1.48-1.58,1.48h-25.61c-0.87,0-1.58-0.66-1.58-1.48l0,0
		c0-0.82,0.71-1.48,1.58-1.48h25.61C153.33,175.92,154.04,176.58,154.04,177.39L154.04,177.39L154.04,177.39z"/>
	<path class="st0" d="M193.96,177.39c0,0.81-0.71,1.48-1.58,1.48h-25.61c-0.87,0-1.58-0.66-1.58-1.48l0,0
		c0-0.82,0.71-1.48,1.58-1.48h25.61C193.26,175.92,193.96,176.58,193.96,177.39L193.96,177.39L193.96,177.39z"/>
	<path class="st0" d="M178.14,187.45c0,0.81-0.71,1.48-1.58,1.48h-25.61c-0.87,0-1.58-0.66-1.58-1.48l0,0
		c0-0.82,0.71-1.48,1.58-1.48h25.61C177.43,185.98,178.14,186.64,178.14,187.45L178.14,187.45L178.14,187.45z"/>
	<path class="st0" d="M133.9,187.45c0,0.81-0.71,1.48-1.58,1.48h-25.61c-0.87,0-1.58-0.66-1.58-1.48l0,0c0-0.82,0.71-1.48,1.58-1.48
		h25.61C133.19,185.98,133.9,186.64,133.9,187.45L133.9,187.45L133.9,187.45z"/>
	<path class="st0" d="M89.84,187.45c0,0.81-0.71,1.48-1.58,1.48H62.65c-0.88,0-1.58-0.66-1.58-1.48l0,0c0-0.82,0.71-1.48,1.58-1.48
		h25.61C89.14,185.98,89.84,186.64,89.84,187.45L89.84,187.45L89.84,187.45z"/>
	<linearGradient id="SVGID_1_" gradientUnits="userSpaceOnUse" x1="2" y1="100.6933" x2="23.9069" y2="100.6933">
		<stop  offset="0" style="stop-color:#8492FD"/>
		<stop  offset="1" style="stop-color:#5DB5FC"/>
	</linearGradient>
	<path class="st1" d="M21.47,98.42h-6.08v-5.67c0-1.25-1.09-2.27-2.44-2.27c-1.34,0-2.43,1.02-2.43,2.27v5.67H4.43
		c-1.35,0-2.43,1.01-2.43,2.27c0,1.25,1.09,2.27,2.43,2.27h6.08v5.67c0,1.25,1.09,2.27,2.43,2.27c1.35,0,2.44-1.02,2.44-2.27v-5.67
		h6.08c1.35,0,2.44-1.02,2.44-2.27C23.91,99.44,22.82,98.42,21.47,98.42L21.47,98.42z"/>
	<linearGradient id="SVGID_2_" gradientUnits="userSpaceOnUse" x1="189.9796" y1="148.7586" x2="202.3794" y2="148.7586">
		<stop  offset="0" style="stop-color:#8492FD"/>
		<stop  offset="1" style="stop-color:#5DB5FC"/>
	</linearGradient>
	<path class="st2" d="M201,147.47h-3.44v-3.21c0-0.71-0.62-1.28-1.38-1.28c-0.76,0-1.38,0.57-1.38,1.28v3.21h-3.44
		c-0.76,0-1.38,0.57-1.38,1.28c0,0.71,0.62,1.28,1.38,1.28h3.44v3.21c0,0.71,0.62,1.28,1.38,1.28c0.76,0,1.38-0.58,1.38-1.28v-3.21
		H201c0.76,0,1.38-0.58,1.38-1.28C202.38,148.05,201.76,147.47,201,147.47L201,147.47z"/>
	<path class="st3" d="M73.93,6.2c0,0.84-0.73,1.52-1.63,1.52l0,0c-0.9,0-1.63-0.68-1.63-1.52V3.52C70.67,2.68,71.4,2,72.3,2l0,0
		c0.9,0,1.63,0.68,1.63,1.52V6.2L73.93,6.2z"/>
	<path class="st3" d="M79.16,9.75c-0.69,0.54-1.71,0.47-2.3-0.17l0,0c-0.58-0.64-0.51-1.6,0.18-2.14l2.19-1.74
		c0.68-0.54,1.71-0.47,2.29,0.17l0,0c0.58,0.64,0.5,1.6-0.18,2.14L79.16,9.75L79.16,9.75z"/>
	<path class="st3" d="M69.93,21.59c-0.31,0.79-1.24,1.2-2.09,0.91l0,0c-0.84-0.29-1.28-1.16-0.98-1.95l0.98-2.53
		c0.31-0.79,1.24-1.2,2.09-0.91l0,0c0.84,0.29,1.28,1.16,0.98,1.95L69.93,21.59L69.93,21.59z"/>
	<path class="st3" d="M78.45,20.64c0.27,0.8-0.21,1.65-1.07,1.9l0,0c-0.86,0.25-1.77-0.2-2.04-1l-0.86-2.57
		c-0.27-0.8,0.21-1.65,1.07-1.9l0,0c0.86-0.25,1.77,0.2,2.04,1L78.45,20.64L78.45,20.64z"/>
	<path class="st3" d="M68.09,8.13c0.62,0.61,0.58,1.57-0.08,2.15l0,0c-0.66,0.57-1.69,0.54-2.3-0.08l-1.96-1.97
		c-0.62-0.61-0.58-1.57,0.08-2.15l0,0c0.66-0.57,1.69-0.54,2.3,0.08L68.09,8.13L68.09,8.13z"/>
	<path class="st3" d="M79.67,16c-0.9,0.01-1.64-0.66-1.66-1.5l0,0c-0.01-0.84,0.71-1.53,1.61-1.54l2.88-0.04
		c0.9-0.01,1.64,0.66,1.65,1.5l0,0c0.01,0.84-0.7,1.53-1.61,1.54L79.67,16L79.67,16z"/>
	<path class="st3" d="M62.9,16c-0.9,0.01-1.64-0.66-1.65-1.5l0,0c-0.02-0.84,0.7-1.53,1.6-1.54l2.88-0.04
		c0.9-0.01,1.64,0.66,1.66,1.5l0,0c0.01,0.84-0.7,1.53-1.61,1.54L62.9,16L62.9,16z"/>
	<path class="st4" d="M26.64,151.4c-1.5,0-2.72-1.13-2.72-2.53c0-1.4,1.22-2.53,2.72-2.53c1.5,0,2.72,1.13,2.72,2.53
		C29.35,150.27,28.13,151.4,26.64,151.4L26.64,151.4z M26.64,143.22c-3.35,0-6.06,2.53-6.06,5.65c0,3.12,2.71,5.65,6.06,5.65
		c3.34,0,6.05-2.53,6.05-5.65C32.69,145.75,29.98,143.22,26.64,143.22L26.64,143.22z"/>
	<path class="st5" d="M186.87,16.57c0,0.7-0.61,1.27-1.36,1.27l0,0c-0.75,0-1.37-0.57-1.37-1.27v-2.25c0-0.7,0.61-1.27,1.37-1.27
		l0,0c0.75,0,1.36,0.57,1.36,1.27V16.57L186.87,16.57z"/>
	<path class="st5" d="M191.25,19.54c-0.58,0.46-1.44,0.39-1.93-0.14l0,0c-0.49-0.54-0.42-1.34,0.15-1.79l1.84-1.46
		c0.57-0.46,1.44-0.39,1.93,0.14l0,0c0.49,0.53,0.42,1.34-0.16,1.8L191.25,19.54L191.25,19.54z"/>
	<path class="st5" d="M183.52,29.46c-0.26,0.66-1.04,1-1.75,0.76l0,0c-0.71-0.24-1.08-0.97-0.82-1.63l0.83-2.12
		c0.26-0.66,1.04-1,1.75-0.76l0,0c0.71,0.24,1.07,0.97,0.82,1.63L183.52,29.46L183.52,29.46z"/>
	<path class="st5" d="M190.66,28.67c0.23,0.67-0.18,1.38-0.9,1.59l0,0c-0.72,0.21-1.48-0.17-1.71-0.84l-0.72-2.15
		c-0.23-0.67,0.18-1.39,0.89-1.59l0,0c0.72-0.21,1.49,0.17,1.71,0.84L190.66,28.67L190.66,28.67z"/>
	<path class="st5" d="M181.98,18.18c0.51,0.51,0.48,1.32-0.07,1.8l0,0c-0.55,0.48-1.41,0.45-1.93-0.06l-1.65-1.65
		c-0.52-0.52-0.48-1.32,0.07-1.8l0,0c0.55-0.48,1.41-0.45,1.93,0.06L181.98,18.18L181.98,18.18z"/>
	<path class="st5" d="M191.68,24.78c-0.76,0.01-1.38-0.55-1.39-1.25l0,0c-0.01-0.7,0.59-1.28,1.34-1.29l2.42-0.03
		c0.75-0.01,1.37,0.55,1.38,1.25l0,0c0.01,0.7-0.59,1.28-1.34,1.29L191.68,24.78L191.68,24.78z"/>
	<path class="st5" d="M177.63,24.78c-0.75,0.01-1.37-0.55-1.38-1.25l0,0c-0.01-0.7,0.59-1.28,1.35-1.29L180,22.2
		c0.75-0.01,1.37,0.55,1.38,1.25l0,0c0.02,0.7-0.59,1.28-1.34,1.29L177.63,24.78L177.63,24.78z"/>
	<path class="st6" d="M205.18,84.26c-1.31,0-2.37-0.99-2.37-2.21c0-1.22,1.06-2.21,2.37-2.21c1.31,0,2.37,0.99,2.37,2.21
		C207.55,83.28,206.48,84.26,205.18,84.26L205.18,84.26z M205.18,77.13c-2.92,0-5.28,2.21-5.28,4.93c0,2.72,2.36,4.93,5.28,4.93
		c2.92,0,5.28-2.2,5.28-4.93C210.46,79.33,208.09,77.13,205.18,77.13L205.18,77.13z"/>
	<path class="st7" d="M46.37,46.4c0,2.39-2.08,4.33-4.65,4.33c-2.57,0-4.65-1.94-4.65-4.33c0-2.39,2.08-4.34,4.65-4.34
		C44.29,42.06,46.37,44.01,46.37,46.4L46.37,46.4z"/>
	<path class="st7" d="M222,124.7c0,1.8-1.56,3.25-3.48,3.25c-1.92,0-3.48-1.46-3.48-3.25c0-1.8,1.56-3.25,3.48-3.25
		C220.44,121.45,222,122.9,222,124.7L222,124.7z"/>
	<path class="st7" d="M139.52,12.23c0,2.39-2.08,4.34-4.65,4.34c-2.57,0-4.65-1.94-4.65-4.34c0-2.39,2.08-4.33,4.65-4.33
		C137.44,7.9,139.52,9.84,139.52,12.23L139.52,12.23z"/>
	<path class="st8" d="M47.97,160.99c0,1.61-1.4,2.91-3.12,2.91c-1.72,0-3.12-1.3-3.12-2.91s1.4-2.91,3.12-2.91
		C46.57,158.08,47.97,159.38,47.97,160.99L47.97,160.99z"/>
	<g>
		<linearGradient id="SVGID_3_" gradientUnits="userSpaceOnUse" x1="91.0696" y1="102.5493" x2="162.1332" y2="102.5493">
			<stop  offset="0" style="stop-color:#8492FD"/>
			<stop  offset="1" style="stop-color:#5DB5FC"/>
		</linearGradient>
		<path class="st9" d="M120.86,148c-0.12,0.96-0.13,1.95-0.38,2.88c-0.55,2.11-1.94,3.39-4.14,3.6c-2.14,0.21-3.9-0.53-4.87-2.54
			c-0.94-1.94-0.94-4.12,0.78-5.39c1.93-1.42,1.98-3.12,1.97-5.1c-0.04-4.29-0.05-8.58,0-12.87c0.02-1.42-0.29-2.09-1.92-2.39
			c-5.81-1.09-10.83-3.8-14.85-8.2c-1.12-1.22-2.11-1.97-3.7-0.77c-0.87,0.66-1.58,0.29-2.09-0.62c-0.49-0.87-0.06-1.47,0.65-1.78
			c2.11-0.95,1.1-2.25,0.55-3.61c-2.8-6.89-2.3-13.64,1.08-20.21c1.17-2.27,2.62-3.75,5.53-2.34c3.32,1.61,6.01,1.08,7.73-2.64
			c0.59-1.27,1.73-2.6,2.96-3.19c4.11-1.96,4.27-5.37,4.06-9.18c-0.19-3.42-0.22-6.87,0.01-10.29c0.2-2.97-1.2-4.54-3.71-5.54
			l0.05,0.06c1.16-0.88,0.11-2.03,0.36-3.06c0.56-2.27,1.86-3.74,4.13-4.16c2.17-0.4,3.83,0.64,4.92,2.47c1.24,2.06,1,4.35-0.8,5.65
			c-2.06,1.48-2.18,3.22-2.14,5.34c0.07,4.16,0.07,8.33,0,12.49c-0.02,1.61,0.46,2.34,2.19,2.63c6.18,1.04,11.22,4.13,14.92,9.2
			c1.17,1.6,2.1,1.5,3.57,0.55c3.59-2.34,7.15-4.75,10.93-6.74c2.93-1.54,4.48-3.48,3.93-6.83l-0.04,0.05
			c1.17,0.17,1.52-1.04,2.4-1.42c2.17-0.93,4.07-0.72,5.71,1.01c1.49,1.57,1.96,3.37,0.89,5.38c-1.18,2.2-3.08,3.44-5.44,2.61
			c-1.9-0.67-3.17-0.22-4.69,0.76c-4.01,2.59-8.05,5.16-12.21,7.5c-1.9,1.07-2.06,2.06-1.43,4.06c2.54,8.12,1.24,15.71-3.74,22.64
			c-2.02,0.27-3.79-0.76-5.69-1.1c-1.18-0.21-2.86-0.89-3.48,0.1c-2.07,3.33-5.64,5.26-7.61,8.6c-0.05,5.74-0.04,11.47-0.19,17.2
			c-0.07,2.85,2.65,3.43,3.84,5.23L120.86,148z M121.04,82.69c-0.3-0.42-0.85-0.64-1.13-0.29c-0.38,0.47,0.37,0.59,0.58,0.88
			c0.92,1.14,2.1,2.15,2.71,3.44c1.69,3.57,4.12,3.55,7.46,1.71C127.82,85.65,124.95,83.35,121.04,82.69z M135.8,99.07
			c-0.35-1.39-0.57-2.83-1.08-4.16c-1.52-4.01-2.12-4.2-6.38-2.43c-0.35,0.05-1,0.05-1.02,0.16c-0.56,3.05,0.25,6.15,1.48,8.63
			c0.81,1.62,4.07,0.69,6.19,0.51C136.79,101.63,136.49,100.28,135.8,99.07z M104.84,98.89c-0.6,2.25,0.19,3.09,2.57,3.03
			c4.9-0.13,9.81-0.01,14.72-0.04c1.5-0.01,3.66,0.48,3.12-2.16c-0.5-2.46,0.69-6.22-3.48-6.5c-3.78-0.25-7.59,0.11-11.39,0.2
			C105.68,92.76,105.65,92.79,104.84,98.89z M114.89,113.07c0-0.02,0-0.04,0-0.06c1.22,0,2.45-0.02,3.67,0
			c5.23,0.07,6.16-0.82,6.69-6.04c0.19-1.88-0.33-2.68-2.34-2.63c-4.16,0.1-8.31,0.02-12.47,0.02c-6.54,0-6.85,0.55-4.41,6.74
			c0.61,1.54,1.43,2.06,2.99,1.99C110.98,113,112.94,113.07,114.89,113.07z M132.08,104.36c-3.61,0-3.62,0-4.37,3.63
			c-0.17,0.83-0.23,1.7-0.46,2.51c-0.44,1.53-1.27,3.2,1.24,3.64c1.99,0.35,4.33,1.8,5.4-1.46c0.45-1.39,1.16-2.69,1.56-4.09
			C136.63,104.57,136.43,104.36,132.08,104.36z M97.32,101.83c4.04,0.01,4.02,0.01,4.66-3.44c0.25-1.32,0.59-2.62,0.91-3.92
			c0.17-0.69,0.57-1.34-0.13-2c-1.88-1.76-5.84-1.1-6.89,1.24c-0.6,1.33-1.01,2.74-1.49,4.12
			C93.29,100.99,94.12,102.55,97.32,101.83z M98.42,104.41c-4.79-0.02-5.08,0.35-3.49,4.47c0.52,1.35,1.35,2.58,1.9,3.92
			c1.22,2.95,3.34,2.01,5.41,1.34c2.48-0.81,0.58-2.35,0.53-3.55c-0.04-0.96-0.42-1.9-0.48-2.86
			C102.14,104.98,100.87,103.75,98.42,104.41z M108.24,89.9c5.53,1.19,10.8,1.04,13.54-0.39C115.87,81.2,114.1,80.5,108.24,89.9z
			 M109.02,116.39c1.83,2.56,3.56,5.52,6.58,5.36c2.71-0.15,4.52-2.81,5.85-5.52C117.22,115.44,113.29,115,109.02,116.39z
			 M101.06,117.57c2.69,2.53,5.44,4.08,8.75,4.63C107.05,120.67,106.68,114.81,101.06,117.57z M117.89,55.59
			c-0.06-1.23-0.71-2.04-1.98-2.14c-1.3-0.1-2.13,0.71-2.21,1.91c-0.08,1.22,0.77,2.11,1.98,2.2
			C116.9,57.65,117.72,56.93,117.89,55.59z M159.23,78.21c-0.14-0.97-0.71-1.85-2.01-1.88c-1.29-0.04-2.08,0.83-2.11,2
			c-0.04,1.2,0.78,2.09,2.02,2.14C158.39,80.53,159.1,79.74,159.23,78.21z M117.93,149.6c-0.22-0.9-0.72-1.81-2.01-1.91
			c-1.34-0.11-2.09,0.79-2.2,1.92c-0.13,1.23,0.75,2.08,1.96,2.16C116.89,151.83,117.71,151.15,117.93,149.6z"/>
		<linearGradient id="SVGID_4_" gradientUnits="userSpaceOnUse" x1="70.4093" y1="134.3181" x2="110.4363" y2="134.3181">
			<stop  offset="0" style="stop-color:#8492FD"/>
			<stop  offset="1" style="stop-color:#5DB5FC"/>
		</linearGradient>
		<path class="st10" d="M70.41,125.99c-0.05-3.31,3.07-5.7,6.33-4.62c1.42,0.47,2.63,1.22,4.07,0.15c0.86-0.64,1.52-0.36,2.08,0.56
			c0.69,1.13-0.14,1.44-0.81,1.99c-2.9,2.41-2.56,3.55,0.55,5.28c9,4.98,17.85,10.21,26.76,15.34c0.78,0.45,1.44,0.87,0.77,1.99
			c-0.73,1.24-1.45,0.91-2.4,0.35c-9.1-5.29-18.29-10.43-27.27-15.92c-1.41-0.86-2.06-1.2-3.66-0.62
			C73.58,131.67,70.45,129.31,70.41,125.99z M77.4,125.93c-0.23-1.24-0.87-2.01-2.21-1.94c-1.12,0.05-1.88,0.66-1.97,1.77
			c-0.1,1.31,0.69,2.07,1.95,2.13C76.47,127.95,77.17,127.17,77.4,125.93z"/>
		<linearGradient id="SVGID_5_" gradientUnits="userSpaceOnUse" x1="155.6857" y1="102.1679" x2="158.7745" y2="102.1679">
			<stop  offset="0" style="stop-color:#8492FD"/>
			<stop  offset="1" style="stop-color:#5DB5FC"/>
		</linearGradient>
		<path class="st11" d="M158.68,102.18c0,5.15,0.01,10.29-0.01,15.44c0,1.04,0.32,2.39-1.42,2.41c-1.62,0.02-1.56-1.12-1.56-2.29
			c0.02-10.29,0-20.59,0.03-30.88c0-1.12-0.42-2.68,1.62-2.55c2.05,0.13,1.3,1.76,1.32,2.8c0.07,5.02,0.03,10.05,0.03,15.07H158.68z
			"/>
		<linearGradient id="SVGID_6_" gradientUnits="userSpaceOnUse" x1="120.8631" y1="138.2708" x2="152.3485" y2="138.2708">
			<stop  offset="0" style="stop-color:#8492FD"/>
			<stop  offset="1" style="stop-color:#5DB5FC"/>
		</linearGradient>
		<path class="st12" d="M120.86,148l0.03,0.05c0.62-0.99-0.18-2.33,1.44-3.23c9.52-5.3,18.92-10.83,28.38-16.25
			c0.28-0.16,0.72-0.03,1.08-0.03l-0.04-0.04c0.74,1.25,1.08,2.17-0.67,3.16c-9.11,5.13-18.16,10.39-27.18,15.7
			C122.87,147.96,121.85,147.7,120.86,148z"/>
		<linearGradient id="SVGID_7_" gradientUnits="userSpaceOnUse" x1="121.3571" y1="66.8887" x2="152.6021" y2="66.8887">
			<stop  offset="0" style="stop-color:#8492FD"/>
			<stop  offset="1" style="stop-color:#5DB5FC"/>
		</linearGradient>
		<path class="st13" d="M152.6,75.42c-1.17,0.95-2.2,1.2-3.73,0.3c-8.53-5.06-17.16-9.95-25.72-14.96c-0.8-0.47-2.37-0.65-1.57-2.32
			c0.76-1.59,1.75-0.81,2.7-0.27c8.92,5.12,17.82,10.27,26.76,15.36c0.83,0.47,1.03,1.29,1.52,1.94L152.6,75.42z"/>
		<linearGradient id="SVGID_8_" gradientUnits="userSpaceOnUse" x1="80.5948" y1="66.8981" x2="110.6016" y2="66.8981">
			<stop  offset="0" style="stop-color:#8492FD"/>
			<stop  offset="1" style="stop-color:#5DB5FC"/>
		</linearGradient>
		<path class="st14" d="M110.55,57.83c0.14,1.28-0.11,2.17-1.44,2.93c-8.52,4.82-16.96,9.78-25.45,14.66
			c-0.85,0.49-1.81,1.53-2.75-0.06c-0.95-1.61,0.43-1.89,1.29-2.39c8.47-4.91,16.95-9.78,25.41-14.71c0.99-0.58,1.9-0.99,2.99-0.37
			L110.55,57.83z"/>
		<linearGradient id="SVGID_9_" gradientUnits="userSpaceOnUse" x1="70.1755" y1="80.7249" x2="80.3931" y2="80.7249">
			<stop  offset="0" style="stop-color:#8492FD"/>
			<stop  offset="1" style="stop-color:#5DB5FC"/>
		</linearGradient>
		<path class="st15" d="M73.73,88.02c-0.52-2.45,0.2-4.99-2.4-7.15c-2-1.65-1.25-4.63,1.01-6.36c2.27-1.74,4.69-1.38,6.57,0.67
			c1.79,1.94,2.15,4.84,0.02,6.16c-2.88,1.79-2.5,4.24-2.87,6.7C75.28,88.04,74.51,88.03,73.73,88.02z M75.26,76.31
			c-1.24,0.19-2.03,0.94-2.02,2.17c0.01,1.06,0.76,1.86,1.85,1.94c1.27,0.1,2.14-0.68,2.22-1.92
			C77.39,77.22,76.49,76.56,75.26,76.31z"/>
		<linearGradient id="SVGID_10_" gradientUnits="userSpaceOnUse" x1="151.7444" y1="125.9659" x2="162.1171" y2="125.9659">
			<stop  offset="0" style="stop-color:#8492FD"/>
			<stop  offset="1" style="stop-color:#5DB5FC"/>
		</linearGradient>
		<path class="st16" d="M151.79,128.54c1.45-0.7,0.43-1.94,0.57-2.9c0.34-2.49,1.61-4.07,4.08-4.45c2.26-0.35,4.08,0.54,5.11,2.65
			c1.12,2.28,0.56,4.34-1.33,5.88c-1.92,1.57-3.98,1.35-6.1,0.1c-0.77-0.45-0.83-2.28-2.37-1.32L151.79,128.54z M159.16,126.1
			c0.01-1.34-0.69-2.02-1.95-2.09c-1.36-0.08-2.02,0.84-2.04,1.98c-0.01,0.97,0.58,1.8,1.77,1.87
			C158.24,127.94,158.96,127.34,159.16,126.1z"/>
		<linearGradient id="SVGID_11_" gradientUnits="userSpaceOnUse" x1="73.7292" y1="103.1133" x2="76.2569" y2="103.1133">
			<stop  offset="0" style="stop-color:#8492FD"/>
			<stop  offset="1" style="stop-color:#5DB5FC"/>
		</linearGradient>
		<path class="st17" d="M73.73,88.02c0.77,0.01,1.55,0.02,2.32,0.03c0.19,10.05,0.37,20.11-0.09,30.16
			c-0.72-0.01-1.44-0.01-2.17-0.02l-0.01-0.03c-0.02-0.26-0.04-0.51-0.06-0.77C73.73,107.6,73.73,97.81,73.73,88.02z"/>
		<linearGradient id="SVGID_12_" gradientUnits="userSpaceOnUse" x1="103.0911" y1="80.9108" x2="106.8473" y2="80.9108">
			<stop  offset="0" style="stop-color:#8492FD"/>
			<stop  offset="1" style="stop-color:#5DB5FC"/>
		</linearGradient>
		<path class="st18" d="M106.85,80.84c-0.02,1.08-0.58,1.84-1.7,1.95c-1.35,0.13-2.04-0.65-2.06-1.97c-0.01-1.2,0.69-1.8,1.83-1.81
			C106.06,79.01,106.73,79.62,106.85,80.84z"/>
		<linearGradient id="SVGID_13_" gradientUnits="userSpaceOnUse" x1="123.8544" y1="124.4716" x2="127.5841" y2="124.4716">
			<stop  offset="0" style="stop-color:#8492FD"/>
			<stop  offset="1" style="stop-color:#5DB5FC"/>
		</linearGradient>
		<path class="st19" d="M123.88,125.48c-0.05-1.23-0.18-2.56,1.46-2.84c1.58-0.27,2.13,0.75,2.24,2.13
			C126.71,126.88,125.37,126.59,123.88,125.48z"/>
		<linearGradient id="SVGID_14_" gradientUnits="userSpaceOnUse" x1="85.4447" y1="119.3486" x2="89.3069" y2="119.3486">
			<stop  offset="0" style="stop-color:#8492FD"/>
			<stop  offset="1" style="stop-color:#5DB5FC"/>
		</linearGradient>
		<path class="st20" d="M89.31,119.29c-0.42,1.21-1.49,1.63-2.54,1.78c-0.82,0.12-1.31-0.77-1.32-1.47
			c-0.02-1.4,1.29-1.74,2.27-1.96C88.75,117.41,88.98,118.51,89.31,119.29z"/>
		<linearGradient id="SVGID_15_" gradientUnits="userSpaceOnUse" x1="73.7953" y1="118.6135" x2="75.9638" y2="118.6135">
			<stop  offset="0" style="stop-color:#8492FD"/>
			<stop  offset="1" style="stop-color:#5DB5FC"/>
		</linearGradient>
		<path class="st21" d="M73.8,118.19c0.72,0.01,1.45,0.01,2.17,0.02C75.23,119.29,74.51,119.34,73.8,118.19z"/>
		<linearGradient id="SVGID_16_" gradientUnits="userSpaceOnUse" x1="73.5797" y1="117.7777" x2="73.7897" y2="117.7777">
			<stop  offset="0" style="stop-color:#8492FD"/>
			<stop  offset="1" style="stop-color:#5DB5FC"/>
		</linearGradient>
		<path class="st22" d="M73.73,117.39c0.02,0.26,0.04,0.51,0.06,0.77c-0.07-0.17-0.17-0.34-0.21-0.52
			C73.57,117.58,73.68,117.48,73.73,117.39z"/>
		<linearGradient id="SVGID_17_" gradientUnits="userSpaceOnUse" x1="119.8091" y1="82.7495" x2="121.0427" y2="82.7495">
			<stop  offset="0" style="stop-color:#8492FD"/>
			<stop  offset="1" style="stop-color:#5DB5FC"/>
		</linearGradient>
		<path class="st23" d="M120.5,83.28c-0.22-0.3-0.96-0.41-0.58-0.88c0.27-0.35,0.83-0.13,1.13,0.29
			C120.86,82.88,120.68,83.08,120.5,83.28z"/>
	</g>
</g>
</svg>
