<?xml version="1.0" encoding="utf-8"?>
<!-- Generator: Adobe Illustrator 23.0.2, SVG Export Plug-In . SVG Version: 6.00 Build 0)  -->
<svg version="1.1" id="图层_1" xmlns="http://www.w3.org/2000/svg" xmlns:xlink="http://www.w3.org/1999/xlink" x="0px" y="0px"
	 viewBox="0 0 224 190" style="enable-background:new 0 0 224 190;" xml:space="preserve">
<style type="text/css">
	.st0{fill:#245AA7;}
	.st1{fill:#309FCE;}
	.st2{fill:#E4B434;}
	.st3{fill:#F5AC2E;}
	.st4{fill:#F4B01C;}
	.st5{fill:#ECB034;}
	.st6{fill:#F4A73D;}
	.st7{fill:#C47856;}
	.st8{fill-rule:evenodd;clip-rule:evenodd;fill:url(#SVGID_1_);}
	.st9{opacity:0.3;fill-rule:evenodd;clip-rule:evenodd;fill:url(#SVGID_2_);}
	.st10{fill-rule:evenodd;clip-rule:evenodd;fill:#A3CAE5;}
	.st11{fill-rule:evenodd;clip-rule:evenodd;fill:#F5F7F8;}
	.st12{fill-rule:evenodd;clip-rule:evenodd;fill:url(#SVGID_3_);}
	.st13{fill-rule:evenodd;clip-rule:evenodd;fill:url(#SVGID_4_);}
	.st14{fill-rule:evenodd;clip-rule:evenodd;fill:url(#SVGID_5_);}
	.st15{fill-rule:evenodd;clip-rule:evenodd;fill:url(#SVGID_6_);}
	.st16{fill-rule:evenodd;clip-rule:evenodd;fill:url(#SVGID_7_);}
	.st17{fill-rule:evenodd;clip-rule:evenodd;fill:#FAFBFB;}
</style>
<g>
	<g>
		<path class="st0" d="M80.67,177.39c0,0.81-0.71,1.48-1.58,1.48H53.48c-0.87,0-1.58-0.66-1.58-1.48l0,0c0-0.82,0.71-1.48,1.58-1.48
			h25.61C79.96,175.92,80.67,176.58,80.67,177.39L80.67,177.39L80.67,177.39z"/>
		<path class="st0" d="M117.72,177.39c0,0.81-0.71,1.48-1.58,1.48H90.53c-0.87,0-1.58-0.66-1.58-1.48l0,0
			c0-0.82,0.71-1.48,1.58-1.48h25.61C117.01,175.92,117.72,176.58,117.72,177.39L117.72,177.39L117.72,177.39z"/>
		<path class="st0" d="M154.04,177.39c0,0.81-0.71,1.48-1.58,1.48h-25.61c-0.87,0-1.58-0.66-1.58-1.48l0,0
			c0-0.82,0.71-1.48,1.58-1.48h25.61C153.33,175.92,154.04,176.58,154.04,177.39L154.04,177.39L154.04,177.39z"/>
		<path class="st0" d="M193.96,177.39c0,0.81-0.71,1.48-1.58,1.48h-25.61c-0.87,0-1.58-0.66-1.58-1.48l0,0
			c0-0.82,0.71-1.48,1.58-1.48h25.61C193.26,175.92,193.96,176.58,193.96,177.39L193.96,177.39L193.96,177.39z"/>
		<path class="st0" d="M178.14,187.45c0,0.81-0.71,1.48-1.58,1.48h-25.61c-0.87,0-1.58-0.66-1.58-1.48l0,0
			c0-0.82,0.71-1.48,1.58-1.48h25.61C177.43,185.98,178.14,186.64,178.14,187.45L178.14,187.45L178.14,187.45z"/>
		<path class="st0" d="M133.9,187.45c0,0.81-0.71,1.48-1.58,1.48h-25.61c-0.87,0-1.58-0.66-1.58-1.48l0,0
			c0-0.82,0.71-1.48,1.58-1.48h25.61C133.19,185.98,133.9,186.64,133.9,187.45L133.9,187.45L133.9,187.45z"/>
		<path class="st0" d="M89.84,187.45c0,0.81-0.71,1.48-1.58,1.48H62.65c-0.88,0-1.58-0.66-1.58-1.48l0,0c0-0.82,0.71-1.48,1.58-1.48
			h25.61C89.14,185.98,89.84,186.64,89.84,187.45L89.84,187.45L89.84,187.45z"/>
		<path class="st1" d="M21.47,98.42h-6.08v-5.67c0-1.25-1.09-2.27-2.44-2.27c-1.34,0-2.43,1.02-2.43,2.27v5.67H4.43
			c-1.35,0-2.43,1.02-2.43,2.27c0,1.25,1.09,2.27,2.43,2.27h6.08v5.67c0,1.25,1.09,2.27,2.43,2.27c1.35,0,2.44-1.02,2.44-2.27v-5.67
			h6.08c1.35,0,2.44-1.02,2.44-2.27C23.91,99.44,22.82,98.42,21.47,98.42L21.47,98.42z"/>
		<path class="st1" d="M201,147.47h-3.44v-3.21c0-0.71-0.62-1.28-1.38-1.28c-0.76,0-1.38,0.57-1.38,1.28v3.21h-3.44
			c-0.76,0-1.38,0.57-1.38,1.28c0,0.71,0.62,1.28,1.38,1.28h3.44v3.21c0,0.71,0.62,1.28,1.38,1.28c0.76,0,1.38-0.58,1.38-1.28v-3.21
			H201c0.76,0,1.38-0.58,1.38-1.28C202.38,148.05,201.76,147.47,201,147.47L201,147.47z"/>
		<path class="st2" d="M73.93,6.2c0,0.84-0.73,1.52-1.63,1.52l0,0c-0.9,0-1.63-0.68-1.63-1.52V3.52C70.67,2.68,71.4,2,72.3,2l0,0
			c0.9,0,1.63,0.68,1.63,1.52V6.2L73.93,6.2z"/>
		<path class="st2" d="M79.16,9.75c-0.69,0.54-1.71,0.47-2.3-0.17l0,0c-0.58-0.64-0.51-1.6,0.18-2.14l2.19-1.74
			c0.68-0.54,1.71-0.47,2.29,0.17l0,0c0.58,0.64,0.5,1.6-0.18,2.14L79.16,9.75L79.16,9.75z"/>
		<path class="st2" d="M69.93,21.59c-0.31,0.79-1.24,1.2-2.09,0.91l0,0c-0.84-0.29-1.28-1.16-0.98-1.95l0.98-2.53
			c0.31-0.79,1.24-1.2,2.09-0.91l0,0c0.84,0.29,1.28,1.16,0.98,1.95L69.93,21.59L69.93,21.59z"/>
		<path class="st2" d="M78.45,20.64c0.27,0.8-0.21,1.65-1.07,1.9l0,0c-0.86,0.25-1.77-0.2-2.04-1l-0.86-2.57
			c-0.27-0.8,0.21-1.65,1.07-1.9l0,0c0.86-0.25,1.77,0.2,2.04,1L78.45,20.64L78.45,20.64z"/>
		<path class="st2" d="M68.09,8.13c0.62,0.61,0.58,1.57-0.08,2.15l0,0c-0.66,0.57-1.69,0.54-2.3-0.08l-1.96-1.97
			c-0.62-0.61-0.58-1.57,0.08-2.15l0,0c0.66-0.57,1.69-0.54,2.3,0.08L68.09,8.13L68.09,8.13z"/>
		<path class="st2" d="M79.67,16c-0.9,0.01-1.64-0.66-1.66-1.5l0,0c-0.01-0.84,0.71-1.53,1.61-1.54l2.88-0.04
			c0.9-0.01,1.64,0.66,1.65,1.5l0,0c0.01,0.84-0.7,1.53-1.61,1.54L79.67,16L79.67,16z"/>
		<path class="st2" d="M62.9,16c-0.9,0.01-1.64-0.66-1.65-1.5l0,0c-0.02-0.84,0.7-1.53,1.6-1.54l2.88-0.04
			c0.9-0.01,1.64,0.66,1.66,1.5l0,0c0.01,0.84-0.7,1.53-1.61,1.54L62.9,16L62.9,16z"/>
		<path class="st3" d="M26.64,151.4c-1.5,0-2.72-1.13-2.72-2.53c0-1.4,1.22-2.53,2.72-2.53c1.5,0,2.72,1.13,2.72,2.53
			C29.35,150.27,28.13,151.4,26.64,151.4L26.64,151.4z M26.64,143.22c-3.35,0-6.06,2.53-6.06,5.65c0,3.12,2.71,5.65,6.06,5.65
			c3.34,0,6.05-2.53,6.05-5.65C32.69,145.75,29.98,143.22,26.64,143.22L26.64,143.22z"/>
		<path class="st4" d="M186.87,16.57c0,0.7-0.61,1.27-1.36,1.27l0,0c-0.75,0-1.37-0.57-1.37-1.27v-2.25c0-0.7,0.61-1.27,1.37-1.27
			l0,0c0.75,0,1.36,0.57,1.36,1.27V16.57L186.87,16.57z"/>
		<path class="st4" d="M191.25,19.54c-0.58,0.46-1.44,0.39-1.93-0.14l0,0c-0.49-0.54-0.42-1.34,0.15-1.79l1.84-1.46
			c0.57-0.46,1.44-0.39,1.93,0.14l0,0c0.49,0.53,0.42,1.34-0.16,1.8L191.25,19.54L191.25,19.54z"/>
		<path class="st4" d="M183.52,29.46c-0.26,0.66-1.04,1-1.75,0.76l0,0c-0.71-0.24-1.08-0.97-0.82-1.63l0.83-2.12
			c0.26-0.66,1.04-1,1.75-0.76l0,0c0.71,0.24,1.07,0.97,0.82,1.63L183.52,29.46L183.52,29.46z"/>
		<path class="st4" d="M190.66,28.67c0.23,0.67-0.18,1.38-0.9,1.59l0,0c-0.72,0.21-1.48-0.17-1.71-0.84l-0.72-2.15
			c-0.23-0.67,0.18-1.39,0.89-1.59l0,0c0.72-0.21,1.49,0.17,1.71,0.84L190.66,28.67L190.66,28.67z"/>
		<path class="st4" d="M181.98,18.18c0.51,0.51,0.48,1.32-0.07,1.8l0,0c-0.55,0.48-1.41,0.45-1.93-0.06l-1.65-1.65
			c-0.52-0.52-0.48-1.32,0.07-1.8l0,0c0.55-0.48,1.41-0.45,1.93,0.06L181.98,18.18L181.98,18.18z"/>
		<path class="st4" d="M191.68,24.78c-0.76,0.01-1.38-0.55-1.39-1.25l0,0c-0.01-0.7,0.59-1.28,1.34-1.29l2.42-0.03
			c0.75-0.01,1.37,0.55,1.38,1.25l0,0c0.01,0.7-0.59,1.28-1.34,1.29L191.68,24.78L191.68,24.78z"/>
		<path class="st4" d="M177.63,24.78c-0.75,0.01-1.37-0.55-1.38-1.25l0,0c-0.01-0.7,0.59-1.28,1.35-1.29L180,22.2
			c0.75-0.01,1.37,0.55,1.38,1.25l0,0c0.02,0.7-0.59,1.28-1.34,1.29L177.63,24.78L177.63,24.78z"/>
		<path class="st5" d="M205.18,84.26c-1.31,0-2.37-0.99-2.37-2.21c0-1.22,1.06-2.21,2.37-2.21c1.31,0,2.37,0.99,2.37,2.21
			C207.55,83.28,206.48,84.26,205.18,84.26L205.18,84.26z M205.18,77.13c-2.92,0-5.28,2.21-5.28,4.93c0,2.72,2.36,4.93,5.28,4.93
			c2.92,0,5.28-2.2,5.28-4.93C210.46,79.33,208.09,77.13,205.18,77.13L205.18,77.13z"/>
		<path class="st6" d="M46.37,46.4c0,2.39-2.08,4.33-4.65,4.33c-2.57,0-4.65-1.94-4.65-4.33c0-2.39,2.08-4.34,4.65-4.34
			C44.29,42.06,46.37,44.01,46.37,46.4L46.37,46.4z"/>
		<path class="st6" d="M222,124.7c0,1.8-1.56,3.25-3.48,3.25c-1.92,0-3.48-1.46-3.48-3.25c0-1.8,1.56-3.25,3.48-3.25
			C220.44,121.45,222,122.9,222,124.7L222,124.7z"/>
		<path class="st6" d="M139.52,12.23c0,2.39-2.08,4.34-4.65,4.34c-2.57,0-4.65-1.94-4.65-4.34c0-2.39,2.08-4.33,4.65-4.33
			C137.44,7.9,139.52,9.84,139.52,12.23L139.52,12.23z"/>
		<path class="st7" d="M47.97,160.99c0,1.61-1.4,2.91-3.12,2.91c-1.72,0-3.12-1.3-3.12-2.91s1.4-2.91,3.12-2.91
			C46.57,158.08,47.97,159.38,47.97,160.99L47.97,160.99z"/>
	</g>
	<linearGradient id="SVGID_1_" gradientUnits="userSpaceOnUse" x1="83.122" y1="115.595" x2="157.6722" y2="115.595">
		<stop  offset="0" style="stop-color:#8492FD"/>
		<stop  offset="1" style="stop-color:#5DB5FC"/>
	</linearGradient>
	<path class="st8" d="M152.79,104.28c0.15,0.41,0.21,0.87,0.45,1.22c3.93,5.75,4.7,12.14,4.36,18.95
		c-0.35,7.07-0.12,14.17-0.04,21.25c0.02,1.76-0.43,2.41-2.33,2.41c-23.27-0.06-46.53-0.05-69.79,0.02
		c-1.87,0.01-2.33-0.57-2.31-2.37c0.08-9.53,0.07-19.07,0.01-28.6c-0.02-2.15,0.31-4.1,1.42-6c1.14-1.95,1.99-4.08,2.96-6.13
		c0.46-0.84,0.94-1.66,1.36-2.51c2.96-5.9,5.9-11.82,8.88-17.72c1.08-2.13,3.03-2.32,4.49-0.51c-0.26,0.56,0.2,1.6-0.9,1.59
		c-1.15-0.01-1.44,0.82-1.82,1.59c-4.33,8.66-8.64,17.34-13.01,25.98c-0.87,1.72-0.56,2.25,1.4,2.22c5.33-0.1,10.67,0.06,15.99-0.09
		c2.11-0.06,3.77,0.4,4.98,2.13c1.13,1.6,2.67,1.95,4.55,1.9c4.54-0.11,9.09-0.15,13.63,0.01c2.12,0.08,3.75-0.48,4.98-2.17
		c1.08-1.48,2.49-1.91,4.3-1.87c4.98,0.11,9.96,0.04,14.94,0.04c3.91,0,3.91,0.01,2.11-3.6c-3.51-7.03-6.94-14.1-10.57-21.06
		c-1.05-2.01-1.29-4.8-4.2-5.48c-0.19-0.04-0.22-0.79-0.32-1.21c1.67-1.78,3.53-1.6,4.6,0.5C146.22,91.27,149.5,97.78,152.79,104.28
		z M120.43,145.22c10.58,0,21.16-0.05,31.74,0.04c1.97,0.02,2.52-0.54,2.49-2.5c-0.11-7.34-0.1-14.69-0.01-22.03
		c0.02-1.78-0.4-2.44-2.3-2.39c-5.07,0.13-10.14,0.09-15.21,0.01c-1.52-0.02-2.69,0.3-3.6,1.59c-1.42,2-3.31,2.72-5.85,2.61
		c-4.97-0.22-9.97-0.16-14.95-0.02c-2.18,0.06-3.93-0.35-5.23-2.19c-1.17-1.65-2.79-2.06-4.78-2.01c-4.89,0.13-9.79,0.12-14.69,0.01
		c-1.76-0.04-2.22,0.55-2.2,2.24c0.08,7.34,0.1,14.69-0.01,22.03c-0.03,2.04,0.49,2.68,2.6,2.66
		C99.1,145.16,109.76,145.22,120.43,145.22z"/>
	<linearGradient id="SVGID_2_" gradientUnits="userSpaceOnUse" x1="87.2567" y1="86.0176" x2="153.5234" y2="86.0176">
		<stop  offset="0" style="stop-color:#8492FD"/>
		<stop  offset="1" style="stop-color:#5DB5FC"/>
	</linearGradient>
	<path class="st9" d="M152.79,104.28c-3.29-6.5-6.58-13.01-9.88-19.5c-1.07-2.1-2.93-2.28-4.6-0.5c-0.76-0.01-1.53-0.01-2.29-0.02
		c0.2-2.07-0.79-2.56-2.76-2.54c-9.46,0.09-18.92,0.03-28.38,0.02c-0.52,0.01-1.04-0.01-0.83,0.79c0.42,1.62-0.58,1.83-1.81,1.77
		c-1.46-1.8-3.41-1.61-4.49,0.51c-2.98,5.9-5.92,11.82-8.88,17.72c-0.43,0.85-0.91,1.67-1.36,2.51c-1.1-10.2,1.32-19.44,8.22-27.11
		c3.36-3.73,7.51-6.54,12.33-8.49c4.22-1.71,8.48-2.62,12.89-2.41c11.81,0.55,20.94,5.74,27.47,15.81
		c3.85,5.93,4.81,12.34,5.05,19.08C153.5,102.75,153.76,103.7,152.79,104.28z"/>
	<path class="st10" d="M120.43,145.22c-10.67,0-21.34-0.06-32,0.05c-2.12,0.02-2.64-0.62-2.6-2.66c0.12-7.34,0.09-14.69,0.01-22.03
		c-0.02-1.69,0.45-2.28,2.2-2.24c4.89,0.11,9.79,0.12,14.69-0.01c1.99-0.05,3.62,0.36,4.78,2.01c1.3,1.84,3.05,2.25,5.23,2.19
		c4.98-0.14,9.97-0.2,14.95,0.02c2.54,0.11,4.44-0.61,5.85-2.61c0.92-1.29,2.08-1.61,3.6-1.59c5.07,0.08,10.15,0.12,15.21-0.01
		c1.9-0.05,2.32,0.61,2.3,2.39c-0.09,7.34-0.1,14.69,0.01,22.03c0.03,1.96-0.52,2.52-2.49,2.5
		C141.59,145.17,131.01,145.22,120.43,145.22z M120.48,127.78c-2.44,0-4.89,0.05-7.33-0.02c-1.25-0.04-1.69,0.43-1.66,1.66
		c0.14,6.6-1.47,9.76,8.58,9.25c0.17-0.01,0.35-0.01,0.52,0c9.21,0.49,8.71-2.06,8.64-8.98c0-0.09-0.01-0.18,0-0.26
		c0.13-1.24-0.43-1.7-1.67-1.67C125.2,127.83,122.84,127.78,120.48,127.78z"/>
	<path class="st11" d="M136.02,84.25c0.76,0.01,1.53,0.01,2.29,0.02c0.1,0.42,0.13,1.16,0.32,1.21c2.92,0.68,3.15,3.47,4.2,5.48
		c3.63,6.96,7.06,14.03,10.57,21.06c1.8,3.61,1.8,3.6-2.11,3.6c-4.98,0-9.97,0.07-14.94-0.04c-1.82-0.04-3.23,0.39-4.3,1.87
		c-1.23,1.69-2.85,2.24-4.98,2.17c-4.54-0.16-9.09-0.12-13.63-0.01c-1.89,0.05-3.42-0.29-4.55-1.9c-1.22-1.73-2.87-2.19-4.98-2.13
		c-5.33,0.15-10.66-0.01-15.99,0.09c-1.97,0.03-2.27-0.49-1.4-2.22c4.37-8.64,8.67-17.32,13.01-25.98c0.38-0.77,0.68-1.6,1.82-1.59
		c1.1,0.01,0.64-1.03,0.9-1.59c1.24,0.06,2.23-0.15,1.81-1.77c-0.21-0.8,0.31-0.79,0.83-0.79c-0.05,1.74-0.08,3.48-0.17,5.21
		c-0.06,1.13,0.18,1.83,1.54,1.8c1.29-0.03,1.45-0.81,1.29-1.74c-0.36-2.17,0.81-2.38,2.57-2.36c6.71,0.07,13.43,0.1,20.14-0.01
		c2-0.03,3.23,0.23,2.81,2.6c-0.17,0.96,0.28,1.41,1.31,1.44c1.17,0.03,1.53-0.46,1.48-1.56C135.83,86.16,135.97,85.21,136.02,84.25
		z M120.37,106.19c-7.25,0-14.5,0.01-21.75,0c-6.63-0.01-6.7,0.05-5.99,6.69c0.02,0.17,0.02,0.35,0.03,0.52
		c0.03,0.91,0.72,0.83,1.32,0.83c0.59,0,1.29,0.11,1.32-0.81c0.02-0.61,0.12-1.24,0.02-1.83c-0.35-2.19,0.55-2.75,2.71-2.74
		c14.32,0.09,28.64,0.05,42.97,0.05c3.91,0,3.95,0,4.18,3.77c0.06,1.07,0.31,1.58,1.49,1.58c1.33,0,1.32-0.78,1.3-1.71
		c-0.02-1.31-0.09-2.63,0.05-3.93c0.2-1.94-0.54-2.5-2.49-2.47C137.13,106.25,128.75,106.19,120.37,106.19z M120.47,97.99
		c-6.29,0-12.58,0-18.87,0c-5.25,0-5.23,0-4.88,5.24c0.07,0.98,0.14,1.64,1.41,1.64c1.33,0,1.45-0.77,1.29-1.69
		c-0.42-2.34,0.89-2.46,2.71-2.45c11.97,0.06,23.93,0.06,35.9,0.02c2-0.01,3.77-0.09,3.24,2.77c-0.19,1.01,0.4,1.35,1.38,1.35
		c1.04,0,1.38-0.46,1.34-1.43c-0.05-1.05-0.12-2.11,0.01-3.14c0.23-1.86-0.48-2.36-2.32-2.33
		C134.62,98.05,127.54,97.99,120.47,97.99z M120.55,89.99c-5.07,0-10.15-0.01-15.22,0c-4.72,0.01-4.73,0.01-4.55,4.76
		c0.03,0.88-0.35,2,1.23,2.09c1.68,0.1,1.63-1.01,1.5-2.06c-0.23-1.81,0.6-2.15,2.23-2.14c9.45,0.07,18.89,0.08,28.34,0
		c2.07-0.02,3.67,0.04,3.13,2.8c-0.19,0.96,0.29,1.41,1.33,1.39c1.03-0.02,1.39-0.44,1.34-1.42c-0.05-1.05-0.12-2.11,0.02-3.14
		c0.24-1.85-0.45-2.37-2.29-2.33C131.92,90.06,126.24,89.99,120.55,89.99z"/>
	<linearGradient id="SVGID_3_" gradientUnits="userSpaceOnUse" x1="104.7105" y1="85.2338" x2="136.0488" y2="85.2338">
		<stop  offset="0" style="stop-color:#8492FD"/>
		<stop  offset="1" style="stop-color:#5DB5FC"/>
	</linearGradient>
	<path class="st12" d="M136.02,84.25c-0.06,0.95-0.19,1.91-0.15,2.86c0.04,1.1-0.31,1.59-1.48,1.56c-1.03-0.03-1.48-0.47-1.31-1.44
		c0.41-2.37-0.81-2.63-2.81-2.6c-6.71,0.11-13.43,0.09-20.14,0.01c-1.76-0.02-2.92,0.19-2.57,2.36c0.15,0.93,0,1.71-1.29,1.74
		c-1.36,0.03-1.6-0.67-1.54-1.8c0.09-1.74,0.11-3.47,0.17-5.21c9.46,0.01,18.92,0.07,28.38-0.02
		C135.24,81.7,136.23,82.18,136.02,84.25z"/>
	<linearGradient id="SVGID_4_" gradientUnits="userSpaceOnUse" x1="111.47" y1="133.2482" x2="129.2527" y2="133.2482">
		<stop  offset="0" style="stop-color:#8492FD"/>
		<stop  offset="1" style="stop-color:#5DB5FC"/>
	</linearGradient>
	<path class="st13" d="M120.48,127.78c2.36,0,4.72,0.04,7.07-0.02c1.24-0.03,1.8,0.43,1.67,1.67c-0.01,0.09,0,0.17,0,0.26
		c0.07,6.93,0.58,9.47-8.64,8.98c-0.17-0.01-0.35-0.01-0.52,0c-10.05,0.51-8.43-2.66-8.58-9.25c-0.03-1.23,0.41-1.7,1.66-1.66
		C115.59,127.83,118.04,127.78,120.48,127.78z M120.24,130.47c-1.3,0-2.61,0.06-3.9-0.02c-1.39-0.08-2.4,0.06-2.15,1.88
		c0.21,1.53-0.5,3.51,2.22,3.45c2.6-0.07,5.21-0.07,7.81,0.01c1.62,0.05,1.99-0.71,2.14-2.18c0.25-2.4-0.34-3.61-3-3.16
		C122.35,130.61,121.29,130.47,120.24,130.47z"/>
	<linearGradient id="SVGID_5_" gradientUnits="userSpaceOnUse" x1="92.3351" y1="110.2009" x2="148.0361" y2="110.2009">
		<stop  offset="0" style="stop-color:#8492FD"/>
		<stop  offset="1" style="stop-color:#5DB5FC"/>
	</linearGradient>
	<path class="st14" d="M120.37,106.19c8.38,0,16.77,0.06,25.15-0.05c1.95-0.03,2.69,0.53,2.49,2.47c-0.13,1.3-0.06,2.62-0.05,3.93
		c0.01,0.93,0.03,1.72-1.3,1.71c-1.17,0-1.42-0.51-1.49-1.58c-0.23-3.77-0.27-3.77-4.18-3.77c-14.32,0-28.64,0.05-42.97-0.05
		c-2.15-0.01-3.06,0.54-2.71,2.74c0.1,0.59,0,1.22-0.02,1.83c-0.03,0.92-0.73,0.81-1.32,0.81c-0.6,0-1.28,0.08-1.32-0.83
		c-0.01-0.17-0.01-0.35-0.03-0.52c-0.7-6.64-0.64-6.7,5.99-6.69C105.87,106.2,113.12,106.19,120.37,106.19z"/>
	<linearGradient id="SVGID_6_" gradientUnits="userSpaceOnUse" x1="96.589" y1="101.4053" x2="144.0499" y2="101.4053">
		<stop  offset="0" style="stop-color:#8492FD"/>
		<stop  offset="1" style="stop-color:#5DB5FC"/>
	</linearGradient>
	<path class="st15" d="M120.47,97.99c7.08,0,14.15,0.06,21.22-0.04c1.83-0.03,2.55,0.47,2.32,2.33c-0.13,1.03-0.06,2.1-0.01,3.14
		c0.04,0.98-0.3,1.43-1.34,1.43c-0.98,0-1.57-0.34-1.38-1.35c0.52-2.86-1.24-2.78-3.24-2.77c-11.97,0.04-23.93,0.05-35.9-0.02
		c-1.82-0.01-3.12,0.11-2.71,2.45c0.16,0.91,0.03,1.68-1.29,1.69c-1.27,0-1.35-0.66-1.41-1.64c-0.35-5.24-0.37-5.24,4.88-5.24
		C107.89,97.99,114.18,97.99,120.47,97.99z"/>
	<linearGradient id="SVGID_7_" gradientUnits="userSpaceOnUse" x1="100.7296" y1="93.3976" x2="139.9441" y2="93.3976">
		<stop  offset="0" style="stop-color:#8492FD"/>
		<stop  offset="1" style="stop-color:#5DB5FC"/>
	</linearGradient>
	<path class="st16" d="M120.55,89.99c5.68,0,11.37,0.07,17.05-0.04c1.84-0.04,2.54,0.49,2.29,2.33c-0.13,1.03-0.07,2.1-0.02,3.14
		c0.04,0.98-0.31,1.41-1.34,1.42c-1.04,0.02-1.52-0.43-1.33-1.39c0.54-2.77-1.06-2.82-3.13-2.8c-9.45,0.07-18.89,0.06-28.34,0
		c-1.63-0.01-2.46,0.32-2.23,2.14c0.13,1.05,0.18,2.15-1.5,2.06c-1.58-0.09-1.19-1.22-1.23-2.09c-0.18-4.75-0.17-4.75,4.55-4.76
		C110.41,89.98,115.48,89.99,120.55,89.99z"/>
	<path class="st17" d="M120.24,130.47c1.04,0,2.11,0.14,3.12-0.03c2.67-0.45,3.26,0.76,3,3.16c-0.16,1.47-0.53,2.23-2.14,2.18
		c-2.6-0.08-5.21-0.07-7.81-0.01c-2.73,0.07-2.02-1.91-2.22-3.45c-0.25-1.82,0.76-1.97,2.15-1.88
		C117.64,130.53,118.94,130.47,120.24,130.47z"/>
</g>
</svg>
