<?xml version="1.0" encoding="utf-8"?>
<!-- Generator: Adobe Illustrator 23.0.2, SVG Export Plug-In . SVG Version: 6.00 Build 0)  -->
<svg version="1.1" id="图层_1" xmlns="http://www.w3.org/2000/svg" xmlns:xlink="http://www.w3.org/1999/xlink" x="0px" y="0px"
	 viewBox="0 0 1440 741" style="enable-background:new 0 0 1440 741;" xml:space="preserve">
<style type="text/css">
	.st0{fill:url(#SVGID_1_);}
	.st1{clip-path:url(#SVGID_3_);}
	.st2{fill:#68E1FD;}
	.st3{opacity:0.18;fill:#68E1FD;enable-background:new    ;}
	.st4{fill:#FFFFFF;}
	.st5{fill:#2E2E3F;}
	.st6{fill:#F3BD8F;}
	.st7{fill:url(#SVGID_4_);}
	.st8{fill:url(#SVGID_5_);}
	.st9{fill:url(#SVGID_6_);}
	.st10{fill:url(#SVGID_7_);}
	.st11{fill:url(#SVGID_8_);}
	.st12{fill:url(#SVGID_9_);}
	.st13{fill:url(#SVGID_10_);}
	.st14{fill:url(#SVGID_11_);}
	.st15{fill:url(#SVGID_12_);}
</style>
<linearGradient id="SVGID_1_" gradientUnits="userSpaceOnUse" x1="174.75" y1="-174.75" x2="1155.735" y2="806.2349">
	<stop  offset="0" style="stop-color:#8492FD"/>
	<stop  offset="1" style="stop-color:#5DB5FC"/>
</linearGradient>
<path class="st0" d="M0,741c0,0,116.66-54.18,166.76-56.49c50.1-2.31,135.79,26.63,276.98,0c79.44-14.99,120.24-48.99,230.46-68.59
	c110.22-19.6,148.87,11.53,256.94,0c108.07-11.53,234.75-94.53,312.76-111.24c78.01-16.72,196.1,17.29,196.1,17.29V0H0V741z"/>
<g>
	<defs>
		<path id="SVGID_2_" d="M0,741c0,0,116.66-54.18,166.76-56.49c50.1-2.31,135.79,26.63,276.98,0
			c79.44-14.99,120.24-48.99,230.46-68.59c110.22-19.6,148.87,11.53,256.94,0c108.07-11.53,234.75-94.53,312.76-111.24
			c78.01-16.72,196.1,17.29,196.1,17.29V0H0V741z"/>
	</defs>
	<clipPath id="SVGID_3_">
		<use xlink:href="#SVGID_2_"  style="overflow:visible;"/>
	</clipPath>
	<g class="st1">
		<rect x="440.25" y="235.97" class="st2" width="50.96" height="8.03"/>
		<path class="st3" d="M825.87,493.98c-1.52,21.37,0.45,43.6-8.2,63.48c-7.13,16.35-20.63,29.44-34.43,41.5
			c-24.56,21.53-50.92,41.27-78.85,59.02c-11.66,7.41-23.7,14.51-36.98,19.05c-1.78,0.64-3.71,1.21-5.56,1.73
			c-2.18,0.64-4.39,1.19-6.62,1.64c-1.41,0.33-2.82,0.62-4.26,0.9c-12.21,2.14-24.57,3.46-36.98,3.96l-8.08,0.44l-6.22,0.33
			l-4.67,0.23c-27.57,1.31-55.15,2.03-82.75,2.73l-99.85,2.58c-23.54,0-47.04,0.93-70.58,1.11c-3.57,0-7.26,0-10.88,0
			c-5.35,0-10.54-0.1-15.8-0.25c-9.86-0.41-19.61-2.01-29.01-4.78h-0.27c-2.09-0.59-4.14-1.19-6.21-1.85l-4.67-1.54
			c-4.71-1.64-9.38-3.27-14.03-5.1c-10.07-3.86-20.02-7.98-29.83-11.45c-18.6-6.66-37.28-13.38-54.28-22.99
			c-53.19-30.17-84.48-87.78-85.8-145.15c-1.32-57.37,25.16-113.64,66.12-156.99c30.95-32.79,58.16-58.64,75.67-99.75
			c14.87-34.8,26.34-72.22,53.78-100.92c30.31-31.66,75.46-47.59,119.95-58.02c54.9-12.82,113.42-18.99,167.9-4.71
			c54.47,14.28,104.54,56.37,119.7,106.44c12.36,40.74,47.52,71.61,73.41,106.61c17.83,24.07,31.4,50.48,44.93,76.86
			c7.13,13.87,14.26,27.93,17.49,43.01C835.62,439.02,827.81,466.59,825.87,493.98z"/>
		<path class="st4" d="M164.75,503.66c-0.05-0.95-0.09-1.91-0.09-2.87c0-26.73,21.39-48.41,47.78-48.41
			c16.1,0,30.32,8.07,38.98,20.43c3.16-1.14,6.57-1.76,10.13-1.76c14.99,0,27.4,11.03,29.56,25.41
			c14.79,1.14,26.45,13.49,26.45,28.58c0,14.97-11.48,27.26-26.11,28.55v0.12H174.97c-14.39,0-26.06-11.67-26.06-26.06
			C148.91,516.88,155.44,507.63,164.75,503.66z"/>
		<path class="st2" d="M296.48,326.55v377.12c-3.27-1.01-6.66-2.16-9.98-3.39V326.55H296.48z"/>
		<path class="st2" d="M347.79,326.55v382.19c-3.27,0-6.66,0-9.98,0V326.55H347.79z"/>
		<rect x="290.77" y="339.38" class="st2" width="50.96" height="8.03"/>
		<rect x="290.77" y="369.08" class="st2" width="50.96" height="8.03"/>
		<rect x="290.77" y="398.76" class="st2" width="50.96" height="8.03"/>
		<rect x="290.77" y="428.46" class="st2" width="50.96" height="8.03"/>
		<rect x="290.77" y="458.16" class="st2" width="50.96" height="8.03"/>
		<rect x="290.77" y="487.86" class="st2" width="50.96" height="8.03"/>
		<rect x="290.77" y="517.55" class="st2" width="50.96" height="8.03"/>
		<rect x="290.77" y="547.25" class="st2" width="50.96" height="8.03"/>
		<rect x="290.77" y="576.95" class="st2" width="50.96" height="8.03"/>
		<rect x="290.77" y="606.63" class="st2" width="50.96" height="8.03"/>
		<path class="st2" d="M589.94,507.81v193.95l-5.71,0.33l-4.28,0.23V507.81H589.94z"/>
		<path class="st2" d="M641.24,507.81v186.97c-2,0.64-4.02,1.19-6.07,1.64c-1.29,0.33-2.58,0.62-3.91,0.9v-189.5H641.24z"/>
		<rect x="584.21" y="520.4" class="st2" width="50.96" height="8.03"/>
		<rect x="584.21" y="550.1" class="st2" width="50.96" height="8.03"/>
		<rect x="584.21" y="579.79" class="st2" width="50.96" height="8.03"/>
		<rect x="584.21" y="609.49" class="st2" width="50.96" height="8.03"/>
		<rect x="435.99" y="164.06" class="st2" width="9.98" height="542.36"/>
		<rect x="487.3" y="164.06" class="st2" width="9.98" height="542.36"/>
		<rect x="440.25" y="265.97" class="st2" width="50.96" height="8.03"/>
		<rect x="440.25" y="295.67" class="st2" width="50.96" height="8.03"/>
		<rect x="440.25" y="205.97" class="st2" width="50.96" height="8.03"/>
		<rect x="440.25" y="175.97" class="st2" width="50.96" height="8.03"/>
		<rect x="440.25" y="325.37" class="st2" width="50.96" height="8.03"/>
		<rect x="440.25" y="355.07" class="st2" width="50.96" height="8.03"/>
		<rect x="440.25" y="384.75" class="st2" width="50.96" height="8.03"/>
		<rect x="440.25" y="414.45" class="st2" width="50.96" height="8.03"/>
		<rect x="440.25" y="444.14" class="st2" width="50.96" height="8.03"/>
		<rect x="440.25" y="473.84" class="st2" width="50.96" height="8.03"/>
		<rect x="440.25" y="503.54" class="st2" width="50.96" height="8.03"/>
		<rect x="440.25" y="533.24" class="st2" width="50.96" height="8.03"/>
		<rect x="440.25" y="562.21" class="st2" width="50.96" height="8.03"/>
		<rect x="440.25" y="591.19" class="st2" width="50.96" height="8.03"/>
		<rect x="440.25" y="620.17" class="st2" width="50.96" height="8.03"/>
		<path class="st5" d="M309.53,389c-6.54,4.64-2.01,29.44-0.74,33.39c0.36,0.56,0.85,1.02,1.42,1.34c2.21,0.65,3.78-0.1,3.63-2.62
			c-0.26-4.51-1.1-9.03-0.74-13.52c-0.05-1.12,0.44-2.19,1.31-2.89c0.48-0.24,1-0.36,1.54-0.34c1.64-0.1,2.76-0.33,3.74,1.13
			c1.2,2.02,1.84,4.32,1.85,6.67c0.21,3.06,0.57,6.12,0.93,9.17c0.89,6.08,1.34,12.21,1.34,18.35c-0.08,2.91-0.34,6,1,8.59
			c0.46,1.06,1.38,1.84,2.5,2.13c3.83,0.56,3.27-13.18,3.35-15.57c0.26-6.62,0.39-13.26,0.51-19.89c0-4.45,0-8.91,0.34-13.34
			c0.09-0.64,0.05-1.3-0.11-1.93c-0.23-0.69-1.85-0.47-2.39-0.96c-2.36-1.84-4.84-3.52-7.42-5.04
			C319.49,392.2,311.73,387.41,309.53,389z"/>
		<path class="st2" d="M324.87,362.05c3.27,0.16,6.72,1.47,8.18,4.38c0.48,1.13,0.78,2.34,0.88,3.57c0.62,5.98,0.89,11.98,0.8,17.99
			c0.04,1.58-0.03,3.16-0.21,4.73c-0.18,1.25-0.5,2.47-0.96,3.65c-0.49,1.48-1.44,2.77-2.71,3.68c-1.75,0.85-3.72,1.15-5.64,0.85
			c-1.9-0.02-3.79-0.32-5.61-0.88c-1.83-0.59-3.31-1.98-4.01-3.78c-0.31-1.12-0.4-2.29-0.26-3.45l0.77-16.35
			c0.13-2.78,0.25-5.56,0.38-8.34c0-1.72,1.19-8.57,2.93-9.53C321.12,357.59,322.97,361.95,324.87,362.05z"/>
		<path class="st6" d="M312.62,337.49c-0.14-0.58,0.01-1.18,0.39-1.64c0.43-0.27,0.96-0.34,1.46-0.2l2.19,0.33
			c0.18,0.02,0.36,0.08,0.52,0.16c0.38,0.23,0.43,0.75,0.47,1.19c0.05,0.44,0.26,0.98,0.72,1.01c0.14-0.02,0.28-0.02,0.43,0
			c0.2,0.08,0.33,0.29,0.31,0.51c-0.04,0.39-0.26,0.74-0.59,0.95c-0.29,0.23-0.65,0.38-0.96,0.61c-0.53,0.38-0.92,0.93-1.11,1.55
			c-0.07,0.39-0.19,0.77-0.34,1.13c-0.36,0.54-1,0.81-1.64,0.7c-1.18-0.21-1.44-0.96-1.47-1.98
			C312.91,340.43,312.73,338.96,312.62,337.49z"/>
		<path class="st2" d="M320.3,357.47c-0.44-0.47-0.77-1.03-0.98-1.64c-0.16-0.58-0.25-1.17-0.28-1.77l-0.59-7.57
			c-0.08-1.08-0.15-5.02-0.82-5.72c-0.68-0.54-1.55-0.77-2.4-0.62h-2.19c-0.35-0.01-0.69,0.08-0.98,0.28
			c-0.39,1.47-0.57,2.98-0.54,4.5c0,3.5,0,7.02,0,10.52c-0.03,2.11,0.2,4.21,0.69,6.26c0.6,1.89,1.43,3.7,2.49,5.38
			c0.95,1.64,1.93,3.27,2.91,4.91c0.38,0.64,0.9,1.32,1.54,1.21c0.33-0.11,0.61-0.31,0.82-0.59c1.88-2.54,2.99-5.56,3.19-8.72
			c0.24-0.8,0.17-1.66-0.2-2.4C322.19,360.08,321.3,358.73,320.3,357.47z"/>
		<path class="st6" d="M347.02,366.42c-0.29,0-0.52-0.36-0.82-0.38c-0.29-0.02-0.72,0.49-0.75,0.95s0,0.93,0,1.41
			c-0.08,0.75-0.25,1.49-0.49,2.21c-0.24,0.72-0.24,1.5,0,2.22c0.21,0.63,0.86,0.99,1.5,0.85c0.49-0.18,0.7-0.72,0.98-1.14
			c0.67-1,1.93-1.64,2.13-2.81c0.13-0.82-0.33-1.64-0.33-2.45c0.04-0.28,0.04-0.56,0-0.83
			C348.95,365.25,347.63,366.55,347.02,366.42z"/>
		<path class="st2" d="M333.19,366.15c3.05,3.3,5.59,7.04,7.52,11.09c1.75-1.42,2.04-3.92,3.16-5.89c0.25-0.44,0.62-0.9,1.11-0.92
			c0.45,0.03,0.86,0.27,1.11,0.64c1.38,1.69,2.06,3.84,1.9,6.02c-0.15,2.16-0.71,4.26-1.64,6.21c-0.58,1.43-1.43,2.74-2.49,3.86
			c-0.34,0.38-0.78,0.66-1.28,0.82c-0.58,0.11-1.19,0.03-1.72-0.23c-0.87-0.41-1.67-0.97-2.37-1.64c-1.99-1.74-3.84-3.63-5.54-5.66
			c-2.57-3.01-4.91-6.46-5.25-10.42c-0.26-1.86,0.35-3.73,1.64-5.09C330.79,363.68,332.16,365.11,333.19,366.15z"/>
		
			<linearGradient id="SVGID_4_" gradientUnits="userSpaceOnUse" x1="322.2784" y1="1494.6252" x2="348.7543" y2="1579.1554" gradientTransform="matrix(1 0 0 -1 -10.23 1911.48)">
			<stop  offset="0.01" style="stop-color:#000000"/>
			<stop  offset="0.13" style="stop-color:#000000;stop-opacity:0.69"/>
			<stop  offset="1" style="stop-color:#000000;stop-opacity:0"/>
		</linearGradient>
		<path class="st7" d="M347.91,376.96c-0.15,2.15-0.7,4.25-1.64,6.2c-0.58,1.43-1.42,2.75-2.47,3.88c-0.35,0.37-0.79,0.65-1.28,0.8
			c-0.59,0.12-1.19,0.04-1.73-0.21c-0.86-0.42-1.66-0.98-2.35-1.64c-1.31-1.13-2.56-2.35-3.73-3.63c0,1.85,0,3.71,0,5.58
			c0.04,1.58-0.04,3.16-0.21,4.73c-0.17,1.25-0.5,2.47-0.96,3.65c-0.5,1.48-1.44,2.76-2.7,3.68c-0.76,0.45-1.61,0.73-2.49,0.83
			c-1.06,0.1-2.12,0.1-3.17,0c-1.9-0.01-3.79-0.3-5.61-0.87c-1.83-0.61-3.29-1.99-4.01-3.78c-0.31-1.12-0.4-2.29-0.26-3.45
			c0.26-5.46,0.51-10.92,0.77-16.35l0.29-6.44l-1.64-2.73c-1.04-1.69-1.88-3.49-2.49-5.38c-0.48-2.05-0.72-4.16-0.69-6.26
			c-0.08-3.5-0.11-7.02,0-10.52c-0.04-1.52,0.15-3.03,0.54-4.5c0.28-0.21,0.63-0.3,0.98-0.26l2.17-0.1h0.77
			c0.6-0.03,1.19,0.19,1.64,0.61l0,0c0.67,0.7,0.74,4.66,0.82,5.72l0.59,7.57c0.02,0.6,0.11,1.19,0.28,1.77
			c0.22,0.6,0.55,1.16,0.98,1.64c0.6,0.69,1.14,1.42,1.64,2.19c0.98,1.05,1.98,2.32,2.99,2.37c2.74,0.01,5.36,1.11,7.28,3.07
			c0.36,0.29,0.7,0.64,1.01,0.95c3.02,3.28,5.54,7,7.47,11.02c1.75-1.41,2.03-3.92,3.14-5.89c0.26-0.44,0.62-0.9,1.13-0.92
			c0.45,0.04,0.86,0.28,1.11,0.65C347.45,372.64,348.1,374.8,347.91,376.96z"/>
		
			<linearGradient id="SVGID_5_" gradientUnits="userSpaceOnUse" x1="330.0045" y1="1532.4419" x2="358.8516" y2="1591.9841" gradientTransform="matrix(1 0 0 -1 -10.23 1911.48)">
			<stop  offset="0.02" style="stop-color:#FFFFFF;stop-opacity:0"/>
			<stop  offset="0.58" style="stop-color:#FFFFFF;stop-opacity:0.39"/>
			<stop  offset="0.68" style="stop-color:#FFFFFF;stop-opacity:0.68"/>
			<stop  offset="1" style="stop-color:#FFFFFF"/>
		</linearGradient>
		<path class="st8" d="M346.01,370.95c-3.39,11.74-4.35,9.47-4.35,9.47s-2.58-1-6.7-7.9c-4.12-6.9-7.82-6.88-11.45-8.18
			s-5.79-5.76-6.54-7.88c-0.75-2.13-1.73-16.35-1.73-16.35H316c0.58,0.08,1.14,0.29,1.64,0.61l0,0c0.67,0.7,0.74,4.66,0.82,5.72
			l0.59,7.57c0.02,0.6,0.11,1.19,0.28,1.77c0.22,0.6,0.55,1.16,0.98,1.64c0.6,0.69,1.14,1.42,1.64,2.19
			c0.98,1.05,1.98,2.32,2.99,2.37c2.74,0.01,5.36,1.11,7.28,3.07c0.36,0.29,0.7,0.64,1.01,0.95c3.02,3.28,5.54,7,7.47,11.02
			c1.75-1.41,2.03-3.92,3.14-5.89c0.26-0.44,0.62-0.9,1.13-0.92C345.4,370.29,345.79,370.56,346.01,370.95z"/>
		
			<linearGradient id="SVGID_6_" gradientUnits="userSpaceOnUse" x1="321.2767" y1="1527.3038" x2="364.8418" y2="1510.7706" gradientTransform="matrix(1 0 0 -1 -10.23 1911.48)">
			<stop  offset="0.01" style="stop-color:#000000"/>
			<stop  offset="0.13" style="stop-color:#000000;stop-opacity:0.69"/>
			<stop  offset="1" style="stop-color:#000000;stop-opacity:0"/>
		</linearGradient>
		<path class="st9" d="M334.46,392.68c-0.17,1.25-0.5,2.47-0.96,3.65c-0.5,1.48-1.44,2.76-2.7,3.68c-0.76,0.45-1.61,0.73-2.49,0.83
			c-5.18,0.54-7.47,0.2,0.85-3.61c3.27-1.46,3.27-16.75,3.27-16.75l2.19,1.9c0,1.85,0,3.71,0,5.58
			C334.68,389.53,334.63,391.11,334.46,392.68z"/>
		<path class="st6" d="M323.62,358.24c0.72-2.35,0.9-5.02,2.53-6.84c0.2-0.24,0.47-0.42,0.77-0.51c0.24-0.06,0.49-0.06,0.74,0
			l3.73,0.78c0.28,0.04,0.55,0.13,0.8,0.26c0.53,0.36,0.91,0.9,1.06,1.52c0.48,1.35,0.72,2.77,0.72,4.2
			c0.08,0.99-0.21,1.97-0.82,2.75c-1.16,1.26-3.48,1.01-4.45,2.44c-0.43,0.61-0.54,1.47-1.19,1.83c-0.25,0.11-0.52,0.18-0.8,0.2
			c-1.08,0.13-2.17-0.06-3.14-0.54c-0.87-0.47-0.83-1.64-0.57-2.76C323.26,360.45,323.25,359.47,323.62,358.24z"/>
		<path class="st5" d="M326.65,348.17c-1.28,0.19-2.44,0.84-3.27,1.83c-0.87,1.44-1.18,3.14-0.88,4.79c0.29,1.63,0.26,3.29-0.1,4.91
			c-0.11,0.31-0.23,0.69,0,0.95c0.23,0.26,0.69,0.23,1.05,0.11c0.03,0.38,0.28,0.71,0.64,0.83c0.36,0.11,0.76,0,1.01-0.28
			c0,0.47,0.64,0.72,1.05,0.52c0.4-0.25,0.71-0.63,0.87-1.08l0.95-1.95c0.06-0.11,0.1-0.23,0.1-0.36c-0.02-0.17-0.1-0.33-0.21-0.46
			c-0.34-0.48-0.51-1.05-0.47-1.64c-0.01-0.34,0.17-0.66,0.46-0.83c0.34-0.12,0.72,0.03,0.9,0.34c0.17,0.31,0.26,0.66,0.28,1.01
			l0.16,1.64c0,0.18,0.11,0.43,0.29,0.36c0.18-0.07,0.13-0.13,0.15-0.21c0.16-1.29,0.23-2.58,0.21-3.88c-0.02-0.06-0.02-0.13,0-0.2
			c0.08-0.07,0.17-0.11,0.28-0.11c1-0.07,1.98-0.34,2.88-0.8c0.9-0.48,1.51-1.36,1.64-2.37c0.05-0.47-0.14-0.94-0.51-1.24
			c-0.12-0.07-0.24-0.14-0.34-0.23c-0.08-0.1-0.14-0.21-0.18-0.33c-0.14-0.44-0.33-0.86-0.56-1.26c-0.67-1.05-1.64-0.9-2.63-0.46
			C329.16,348.06,327.91,348.19,326.65,348.17z"/>
		<path class="st4" d="M309.82,419.51c-0.34,0.84-0.5,1.74-0.47,2.65c-0.12,2.08,0.09,4.18,0.61,6.2c0.13,0.7,0.58,1.31,1.21,1.64
			c0.65,0.16,1.33-0.04,1.78-0.52c1.07-1.34,1.5-3.08,1.18-4.76c-0.1-1.65-0.32-3.29-0.65-4.91c-0.06-0.46-0.22-0.91-0.46-1.31
			C312.11,417.16,310.29,418.45,309.82,419.51z"/>
		<path class="st5" d="M312.18,424.11c-1.35,0.4-2.44,1.39-2.96,2.7c-0.16,0.64-0.1,1.31-0.28,1.93c-0.24,0.64-0.57,1.24-0.96,1.8
			c-0.4,0.66-0.7,1.37-0.88,2.11c-0.19,0.69-0.19,1.41,0,2.09c0.18,0.69,0.72,1.23,1.41,1.42c0.35,0.07,0.7,0.07,1.05,0
			c1.62-0.46,2.98-1.58,3.74-3.09c0.75-1.48,1.27-3.08,1.52-4.73c0.41-1.26,0.44-2.6,0.1-3.88
			C314.43,423.42,312.98,423.78,312.18,424.11z"/>
		<path class="st4" d="M326.32,444.85c-0.47,0.17-0.87,0.48-1.16,0.88c-0.33,0.65-0.43,1.39-0.29,2.11l0.28,3.48
			c-0.03,0.64,0.19,1.26,0.61,1.75c1.22,0.65,2.72,0.3,3.53-0.82c0.12-0.3,0.17-0.61,0.16-0.93c0.07-1.69-0.02-3.39-0.25-5.07
			c-0.08-0.64,0-1.44-0.62-1.64C327.82,444.42,327.02,444.5,326.32,444.85z"/>
		<path class="st5" d="M324.65,453.46c0-0.69,0.37-1.32,0.98-1.64c0.28-0.12,0.58-0.18,0.88-0.18l2.08-0.2
			c0.16-0.03,0.33-0.03,0.49,0c0.18,0.07,0.33,0.21,0.43,0.38c0.48,1.09,0.7,2.28,0.65,3.47c0.21,0.92,0.49,1.82,0.85,2.7
			c0.36,0.89,0.46,1.86,0.28,2.8c-0.06,0.22-0.16,0.43-0.29,0.62c-0.3,0.35-0.73,0.57-1.19,0.61c-0.46,0.03-0.93-0.01-1.37-0.13
			c-0.38-0.05-0.74-0.17-1.08-0.34c-0.31-0.21-0.59-0.46-0.83-0.75c-0.48-0.48-0.89-1.03-1.21-1.64c-0.22-0.55-0.37-1.13-0.43-1.72
			c-0.2-1.51-0.26-3.03-0.2-4.55"/>
		<path class="st5" d="M618.21,571.4c6.43,4.6,1.98,29.13,0.74,33.03c-0.35,0.56-0.84,1.01-1.42,1.32c-2.17,0.65-3.73-0.1-3.58-2.58
			c0.26-4.46,1.1-8.93,0.72-13.38c0.05-1.11-0.43-2.17-1.29-2.86c-0.47-0.24-0.99-0.35-1.52-0.34c-1.64-0.1-2.73-0.33-3.7,1.11
			c-1.18,1.98-1.81,4.24-1.83,6.54c-0.21,3.03-0.56,6.05-0.92,9.08c-0.89,6.01-1.33,12.08-1.32,18.15c0,2.88,0.33,5.92-1,8.49
			c-0.45,1.05-1.36,1.83-2.47,2.09c-3.78,0.56-3.27-13.08-3.27-15.39c-0.26-6.54-0.38-13.08-0.51-19.62c0-4.4,0-8.81-0.34-13.2
			c-0.08-0.63-0.04-1.28,0.11-1.9c0.23-0.69,1.83-0.49,2.37-0.96c2.33-1.83,4.79-3.49,7.34-4.99
			C608.37,574.59,616.1,569.83,618.21,571.4z"/>
		<path class="st2" d="M603.02,544.75c-3.19,0.16-6.64,1.47-8.03,4.33c-0.48,1.12-0.78,2.31-0.88,3.53
			c-0.61,5.9-0.87,11.83-0.78,17.76c-0.05,1.56,0.02,3.13,0.21,4.68c0.17,1.24,0.49,2.45,0.95,3.61c0.48,1.47,1.42,2.74,2.68,3.63
			c1.73,0.84,3.68,1.14,5.58,0.83c1.88-0.01,3.75-0.3,5.54-0.87c1.82-0.59,3.27-1.95,3.97-3.73c0.29-1.11,0.38-2.27,0.26-3.42
			l-0.75-16.21l-0.39-8.18c-0.08-1.64-1.18-8.47-2.88-9.42C606.8,540.37,604.92,544.65,603.02,544.75z"/>
		<path class="st6" d="M615.14,520.46c0.13-0.55-0.01-1.12-0.36-1.55c-0.43-0.27-0.96-0.34-1.46-0.2l-2.16,0.33
			c-0.18,0.01-0.36,0.06-0.52,0.15c-0.38,0.23-0.41,0.75-0.47,1.19c-0.07,0.44-0.26,0.96-0.7,1c-0.14-0.02-0.28-0.02-0.43,0
			c-0.2,0.08-0.32,0.29-0.29,0.51c0.04,0.38,0.24,0.72,0.56,0.93c0.31,0.23,0.65,0.38,0.96,0.59c0.53,0.38,0.91,0.93,1.1,1.55
			c0.07,0.38,0.19,0.75,0.34,1.11c0.36,0.54,1,0.81,1.64,0.7c1.16-0.23,1.42-0.98,1.46-1.98
			C614.87,523.37,615.04,521.9,615.14,520.46z"/>
		<path class="st2" d="M607.55,540.22c0.44-0.47,0.77-1.03,0.98-1.64c0.16-0.56,0.25-1.15,0.26-1.73l0.59-7.51
			c0.08-1.05,0.15-4.91,0.82-5.66c0.67-0.53,1.53-0.75,2.37-0.61l2.16,0.08c0.34-0.03,0.69,0.07,0.96,0.28
			c0.41,1.45,0.59,2.95,0.54,4.45c0.07,3.46,0.07,6.92,0,10.38c0.03,2.09-0.2,4.17-0.67,6.2c-0.59,1.87-1.41,3.65-2.45,5.31
			c-0.95,1.66-1.91,3.29-2.89,4.91c-0.38,0.62-0.88,1.31-1.5,1.19c-0.33-0.1-0.62-0.31-0.82-0.59c-1.87-2.51-2.96-5.5-3.16-8.62
			c-0.23-0.79-0.16-1.63,0.2-2.37C605.68,542.87,606.56,541.5,607.55,540.22z"/>
		<path class="st6" d="M581.12,549.07c0.29,0,0.51-0.34,0.8-0.38c0.29-0.03,0.72,0.49,0.75,0.95c0.03,0.46,0,0.92,0,1.39
			c0.09,0.74,0.24,1.47,0.47,2.17c0.23,0.72,0.23,1.49,0,2.21c-0.21,0.63-0.86,0.99-1.5,0.85c-0.47-0.18-0.69-0.72-0.96-1.14
			c-0.65-0.98-1.91-1.64-2.09-2.78c-0.13-0.82,0.33-1.64,0.31-2.42c-0.04-0.28-0.04-0.56,0-0.83
			C579.22,547.94,580.52,549.2,581.12,549.07z"/>
		<path class="st2" d="M594.74,548.82c-3,3.25-5.49,6.92-7.39,10.91c-1.72-1.39-2.01-3.89-3.11-5.82c-0.25-0.43-0.61-0.88-1.11-0.9
			c-0.44,0.03-0.85,0.26-1.1,0.62c-1.38,1.67-2.06,3.8-1.91,5.95c0.17,2.13,0.72,4.22,1.64,6.15c0.58,1.41,1.41,2.71,2.45,3.83
			c0.34,0.38,0.78,0.66,1.28,0.8c0.56,0.1,1.13,0.02,1.64-0.23c0.86-0.42,1.65-0.97,2.34-1.64c1.97-1.73,3.81-3.6,5.49-5.61
			c2.53-2.98,4.91-6.39,5.18-10.3c0.25-1.84-0.36-3.69-1.64-5.04C597.2,546.37,595.82,547.77,594.74,548.82z"/>
		
			<linearGradient id="SVGID_7_" gradientUnits="userSpaceOnUse" x1="2392.8743" y1="1312.5188" x2="2419.0559" y2="1396.1331" gradientTransform="matrix(-1 0 0 -1 3008.5901 1911.48)">
			<stop  offset="0.01" style="stop-color:#000000"/>
			<stop  offset="0.13" style="stop-color:#000000;stop-opacity:0.69"/>
			<stop  offset="1" style="stop-color:#000000;stop-opacity:0"/>
		</linearGradient>
		<path class="st10" d="M580.25,559.5c0.15,2.13,0.71,4.21,1.64,6.13c0.58,1.41,1.41,2.71,2.45,3.83c0.34,0.38,0.77,0.66,1.26,0.8
			c0.55,0.1,1.13,0.03,1.64-0.21c0.86-0.42,1.65-0.97,2.34-1.64c1.3-1.12,2.53-2.31,3.68-3.58c0,1.83,0,3.68,0,5.51
			c-0.05,1.56,0.02,3.13,0.21,4.68c0.17,1.24,0.49,2.45,0.95,3.61c0.48,1.46,1.42,2.74,2.68,3.63c0.75,0.45,1.58,0.73,2.45,0.82
			c1.04,0.1,2.08,0.1,3.12,0c1.88-0.01,3.75-0.31,5.54-0.87c1.82-0.59,3.27-1.95,3.97-3.73c0.29-1.11,0.38-2.27,0.26-3.42
			c-0.26-5.45-0.51-10.85-0.75-16.21c-0.11-2.14-0.2-4.25-0.31-6.38c0.54-0.9,1.06-1.8,1.64-2.71c1.04-1.66,1.86-3.45,2.45-5.31
			c0.47-2.03,0.7-4.11,0.69-6.2c0-3.45,0.1-6.93,0-10.38c0.03-1.5-0.14-3-0.52-4.45c-0.28-0.2-0.63-0.3-0.98-0.28l-2.14-0.08h-0.77
			c-0.6-0.04-1.19,0.18-1.64,0.59l0,0c-0.67,0.69-0.74,4.6-0.8,5.66l-0.59,7.49c-0.01,0.59-0.1,1.17-0.26,1.73
			c-0.22,0.6-0.55,1.16-0.98,1.64c-0.57,0.69-1.09,1.42-1.55,2.17c-0.96,1.03-1.95,2.29-2.96,2.34c-2.71,0.01-5.31,1.11-7.2,3.06
			c-0.35,0.28-0.68,0.59-1,0.92c-3,3.25-5.49,6.93-7.39,10.92c-1.73-1.41-2.01-3.89-3.11-5.84c-0.26-0.43-0.62-0.88-1.11-0.9
			c-0.44,0.03-0.85,0.27-1.1,0.64C580.71,555.18,580.06,557.33,580.25,559.5z"/>
		
			<linearGradient id="SVGID_8_" gradientUnits="userSpaceOnUse" x1="2400.5342" y1="1349.9209" x2="2429.0706" y2="1408.8253" gradientTransform="matrix(-1 0 0 -1 3008.5901 1911.48)">
			<stop  offset="0.02" style="stop-color:#FFFFFF;stop-opacity:0"/>
			<stop  offset="0.58" style="stop-color:#FFFFFF;stop-opacity:0.39"/>
			<stop  offset="0.68" style="stop-color:#FFFFFF;stop-opacity:0.68"/>
			<stop  offset="1" style="stop-color:#FFFFFF"/>
		</linearGradient>
		<path class="st11" d="M582.14,553.55c3.27,11.63,4.3,9.37,4.3,9.37s2.53-1,6.62-7.82s7.74-6.8,11.27-8.03
			c3.53-1.23,5.74-5.69,6.54-7.78s1.72-16.17,1.72-16.17h-0.77c-0.58,0.08-1.14,0.28-1.64,0.59l0,0c-0.67,0.69-0.74,4.6-0.8,5.66
			l-0.59,7.49c-0.01,0.59-0.1,1.17-0.26,1.73c-0.22,0.6-0.55,1.16-0.98,1.64c-0.57,0.69-1.09,1.42-1.55,2.17
			c-0.96,1.03-1.95,2.29-2.96,2.34c-2.71,0.01-5.31,1.11-7.2,3.06c-0.35,0.28-0.68,0.59-1,0.92c-3,3.25-5.49,6.93-7.39,10.92
			c-1.73-1.41-2.01-3.89-3.11-5.84c-0.26-0.43-0.62-0.88-1.11-0.9C582.78,552.93,582.38,553.17,582.14,553.55z"/>
		
			<linearGradient id="SVGID_9_" gradientUnits="userSpaceOnUse" x1="2391.8789" y1="1344.7949" x2="2434.9536" y2="1328.4253" gradientTransform="matrix(-1 0 0 -1 3008.5901 1911.48)">
			<stop  offset="0.01" style="stop-color:#000000"/>
			<stop  offset="0.13" style="stop-color:#000000;stop-opacity:0.69"/>
			<stop  offset="1" style="stop-color:#000000;stop-opacity:0"/>
		</linearGradient>
		<path class="st12" d="M593.55,575.12c0.17,1.24,0.49,2.45,0.95,3.61c0.48,1.46,1.42,2.74,2.68,3.63c0.75,0.45,1.58,0.73,2.45,0.82
			c5.12,0.54,7.39,0.2-0.85-3.57c-3.16-1.44-3.27-16.57-3.27-16.57l-2.17,1.88c0,1.83,0,3.68,0,5.51
			C593.29,572,593.36,573.57,593.55,575.12z"/>
		<path class="st6" d="M604.26,540.97c-0.7-2.32-0.88-4.91-2.5-6.74c-0.2-0.24-0.46-0.42-0.75-0.52c-0.24-0.05-0.49-0.05-0.74,0
			l-3.68,0.78c-0.95,0.09-1.72,0.82-1.85,1.77c-0.47,1.34-0.71,2.74-0.72,4.15c-0.08,0.98,0.21,1.95,0.8,2.73
			c1.16,1.24,3.45,0.98,4.42,2.39c0.41,0.61,0.52,1.47,1.18,1.82c0.25,0.13,0.52,0.2,0.8,0.2c1.06,0.13,2.14-0.06,3.11-0.52
			c0.85-0.47,0.82-1.64,0.56-2.73S604.65,542.2,604.26,540.97z"/>
		<path class="st5" d="M601.28,530.96c1.28,0.17,2.45,0.82,3.27,1.82c0.85,1.43,1.16,3.11,0.88,4.74c-0.3,1.63-0.26,3.29,0.1,4.91
			c0.1,0.31,0.23,0.67,0,0.93c-0.23,0.26-0.69,0.23-1.05,0.11c-0.02,0.38-0.28,0.7-0.64,0.82c-0.35,0.13-0.75,0.02-1-0.26
			c0,0.46-0.62,0.7-1.05,0.51c-0.39-0.25-0.69-0.63-0.85-1.06l-0.93-1.93c-0.06-0.1-0.1-0.22-0.1-0.34
			c0.02-0.17,0.09-0.33,0.21-0.46c0.34-0.48,0.5-1.05,0.46-1.64c0.02-0.34-0.15-0.66-0.44-0.83c-0.35-0.1-0.72,0.05-0.9,0.36
			c-0.16,0.31-0.25,0.65-0.26,1l-0.16,1.64c0,0.18-0.11,0.41-0.28,0.36c-0.16-0.05-0.13-0.13-0.16-0.23
			c-0.18-1.29-0.27-2.59-0.28-3.89c0.01-0.07,0.01-0.13,0-0.2c-0.08-0.07-0.18-0.1-0.28-0.1c-0.99-0.08-1.96-0.35-2.85-0.8
			c-0.9-0.47-1.51-1.35-1.64-2.35c-0.06-0.47,0.13-0.94,0.51-1.23c0.11-0.07,0.22-0.14,0.33-0.21c0.08-0.1,0.14-0.21,0.18-0.33
			c0.14-0.44,0.33-0.86,0.56-1.26c0.65-1.03,1.64-0.88,2.6-0.44C598.76,530.86,600.02,530.99,601.28,530.96z"/>
		<path class="st4" d="M617.92,601.59c0.33,0.83,0.49,1.72,0.46,2.62c0.13,2.06-0.06,4.13-0.57,6.13c-0.13,0.7-0.58,1.3-1.21,1.64
			c-0.64,0.16-1.31-0.03-1.77-0.51c-1.05-1.33-1.48-3.05-1.16-4.71c0.1-1.65,0.31-3.29,0.64-4.91c0.07-0.45,0.23-0.89,0.46-1.29
			C615.66,599.25,617.41,600.55,617.92,601.59z"/>
		<path class="st5" d="M615.58,606.19c1.34,0.39,2.43,1.38,2.94,2.68c0.16,0.62,0.1,1.28,0.28,1.9c0.23,0.63,0.55,1.22,0.95,1.77
			c0.39,0.65,0.68,1.36,0.87,2.09c0.18,0.68,0.18,1.39,0,2.06c-0.19,0.69-0.72,1.22-1.41,1.42c-0.34,0.07-0.69,0.07-1.03,0
			c-1.61-0.45-2.95-1.55-3.71-3.04c-0.74-1.48-1.25-3.06-1.5-4.69c-0.41-1.24-0.44-2.57-0.08-3.83
			C613.35,605.47,614.79,605.81,615.58,606.19z"/>
		<path class="st5" d="M483.38,287.3c6.43,4.6,1.98,29.11,0.74,33.03c-0.36,0.55-0.85,1.01-1.42,1.32c-2.17,0.65-3.73-0.1-3.58-2.58
			c0.26-4.46,1.1-8.93,0.72-13.39c0.05-1.1-0.43-2.17-1.29-2.86c-0.47-0.23-0.99-0.35-1.52-0.34c-1.64-0.08-2.73-0.31-3.7,1.13
			c-1.18,1.98-1.81,4.24-1.83,6.54c-0.21,3.03-0.56,6.05-0.92,9.08c-0.89,6.01-1.33,12.08-1.32,18.15c0.08,2.88,0.33,5.92-1,8.47
			c-0.44,1.05-1.36,1.84-2.47,2.11c-3.78,0.56-3.27-13.08-3.27-15.4c-0.26-6.54-0.38-13.08-0.51-19.62c0-4.38,0-8.8-0.34-13.2
			c-0.08-0.63-0.04-1.28,0.11-1.9c0.23-0.67,1.83-0.47,2.37-0.95c2.33-1.83,4.79-3.49,7.34-4.99
			C473.53,290.41,481.19,285.66,483.38,287.3z"/>
		<path class="st6" d="M480.26,236.03c0.13-0.55,0-1.12-0.36-1.56c-0.42-0.25-0.92-0.31-1.39-0.17l-2.06,0.3
			c-0.17,0.02-0.34,0.07-0.5,0.16c-0.36,0.22-0.39,0.72-0.45,1.14s-0.25,0.92-0.67,0.95c-0.13-0.02-0.27-0.02-0.41,0
			c-0.2,0.07-0.32,0.28-0.28,0.48c0.03,0.36,0.23,0.69,0.55,0.87c0.28,0.22,0.61,0.37,0.91,0.58c0.5,0.36,0.87,0.88,1.06,1.47
			c0.05,0.37,0.16,0.72,0.31,1.06c0.34,0.51,0.95,0.77,1.56,0.67c1.11-0.2,1.36-0.92,1.39-1.87
			C479.95,238.81,480.1,237.42,480.26,236.03z"/>
		<path class="st2" d="M468.2,260.58c-3.19,0.15-6.64,1.46-8.03,4.33c-0.48,1.12-0.78,2.31-0.88,3.53
			c-0.61,5.9-0.87,11.83-0.78,17.76c-0.04,1.56,0.03,3.13,0.21,4.68c0.17,1.23,0.49,2.44,0.95,3.6c0.48,1.47,1.42,2.75,2.68,3.65
			c1.73,0.84,3.68,1.13,5.58,0.83c1.88-0.02,3.75-0.32,5.54-0.88c1.81-0.58,3.27-1.94,3.97-3.71c0.29-1.11,0.38-2.27,0.26-3.42
			l-0.75-16.21l-0.39-8.18c0-1.64-1.18-8.47-2.88-9.44C471.98,256.16,470.08,260.48,468.2,260.58z"/>
		<path class="st2" d="M472.72,256.05c0.44-0.47,0.77-1.03,0.98-1.64c0.16-0.56,0.25-1.15,0.26-1.73l0.59-7.51
			c0.08-1.06,0.15-4.91,0.82-5.66c0.66-0.54,1.53-0.76,2.37-0.61h2.16c0.34-0.03,0.69,0.07,0.96,0.28c0.4,1.44,0.59,2.94,0.54,4.43
			c0.07,3.47,0.07,6.93,0,10.4c0.01,2.09-0.22,4.17-0.69,6.2c-0.59,1.87-1.41,3.65-2.45,5.31c-0.95,1.65-1.91,3.28-2.89,4.91
			c-0.38,0.61-0.88,1.31-1.5,1.18c-0.33-0.09-0.62-0.29-0.82-0.57c-1.87-2.5-2.96-5.5-3.16-8.62c-0.24-0.79-0.17-1.65,0.2-2.39
			C470.84,258.63,471.72,257.3,472.72,256.05z"/>
		<path class="st6" d="M446.29,264.89c0.29,0,0.51-0.34,0.8-0.38s0.72,0.49,0.75,0.93s0,0.93,0,1.39c0.08,0.74,0.24,1.48,0.47,2.19
			c0.24,0.72,0.24,1.49,0,2.21c-0.22,0.62-0.86,0.98-1.5,0.83c-0.47-0.18-0.69-0.7-0.96-1.13c-0.65-0.98-1.91-1.64-2.09-2.78
			c-0.13-0.82,0.33-1.64,0.31-2.44c-0.04-0.27-0.04-0.55,0-0.82C444.39,263.75,445.68,265.03,446.29,264.89z"/>
		<path class="st2" d="M459.91,264.65c-3,3.24-5.49,6.92-7.39,10.91c-1.72-1.41-2.01-3.89-3.11-5.82c-0.16-0.64-0.81-1.03-1.45-0.87
			c-0.32,0.08-0.6,0.3-0.76,0.59c-1.36,1.67-2.03,3.8-1.86,5.95c0.16,2.13,0.71,4.21,1.64,6.13c0.58,1.42,1.41,2.72,2.45,3.84
			c0.35,0.37,0.79,0.64,1.28,0.8c0.56,0.1,1.13,0.02,1.64-0.23c0.86-0.42,1.65-0.97,2.34-1.64c1.97-1.72,3.81-3.59,5.49-5.59
			c2.53-2.98,4.91-6.39,5.18-10.3c0.25-1.84-0.35-3.69-1.64-5.04C462.38,262.2,460.99,263.6,459.91,264.65z"/>
		
			<linearGradient id="SVGID_10_" gradientUnits="userSpaceOnUse" x1="2527.7036" y1="1596.6907" x2="2553.8853" y2="1680.3049" gradientTransform="matrix(-1 0 0 -1 3008.5901 1911.48)">
			<stop  offset="0.01" style="stop-color:#000000"/>
			<stop  offset="0.13" style="stop-color:#000000;stop-opacity:0.69"/>
			<stop  offset="1" style="stop-color:#000000;stop-opacity:0"/>
		</linearGradient>
		<path class="st13" d="M445.42,275.33c0.16,2.13,0.72,4.21,1.64,6.13c0.58,1.41,1.41,2.71,2.45,3.83c0.34,0.38,0.77,0.66,1.26,0.8
			c0.55,0.1,1.13,0.03,1.64-0.21c0.86-0.42,1.65-0.97,2.34-1.64c1.3-1.12,2.53-2.32,3.68-3.6c0,1.83,0,3.68,0,5.53
			c-0.05,1.56,0.02,3.13,0.21,4.68c0.17,1.23,0.49,2.44,0.95,3.6c0.49,1.47,1.43,2.74,2.68,3.65c0.75,0.45,1.58,0.73,2.45,0.82
			c1.04,0.1,2.08,0.1,3.12,0c1.88-0.02,3.75-0.31,5.54-0.87c1.8-0.61,3.25-1.97,3.97-3.73c0.3-1.11,0.39-2.27,0.26-3.42
			c-0.26-5.41-0.51-10.81-0.75-16.22c-0.11-2.13-0.2-4.24-0.31-6.38c0.54-0.88,1.06-1.78,1.64-2.7c1.03-1.66,1.86-3.45,2.45-5.31
			c0.47-2.03,0.7-4.11,0.69-6.2c0-3.47,0.1-6.93,0-10.4c0.03-1.49-0.14-2.99-0.52-4.43c-0.28-0.2-0.63-0.3-0.98-0.28h-2.14h-0.77
			c-0.6-0.04-1.2,0.17-1.64,0.59l0,0c-0.67,0.69-0.74,4.61-0.8,5.66l-0.59,7.49c-0.01,0.59-0.1,1.18-0.26,1.75
			c-0.22,0.6-0.55,1.16-0.98,1.64c-0.57,0.69-1.09,1.42-1.55,2.17c-0.96,1.03-1.95,2.29-2.96,2.34c-2.71,0.01-5.3,1.11-7.2,3.04
			c-0.36,0.29-0.69,0.62-1,0.93c-3,3.25-5.49,6.92-7.39,10.91c-1.73-1.39-2.01-3.88-3.11-5.82c-0.26-0.44-0.62-0.88-1.11-0.9
			c-0.45,0.02-0.85,0.26-1.1,0.64C445.9,271.08,445.25,273.2,445.42,275.33z"/>
		
			<linearGradient id="SVGID_11_" gradientUnits="userSpaceOnUse" x1="2535.3398" y1="1634.1047" x2="2563.8762" y2="1693.0093" gradientTransform="matrix(-1 0 0 -1 3008.5901 1911.48)">
			<stop  offset="0.02" style="stop-color:#FFFFFF;stop-opacity:0"/>
			<stop  offset="0.58" style="stop-color:#FFFFFF;stop-opacity:0.39"/>
			<stop  offset="0.68" style="stop-color:#FFFFFF;stop-opacity:0.68"/>
			<stop  offset="1" style="stop-color:#FFFFFF"/>
		</linearGradient>
		<path class="st14" d="M447.3,269.31c3.27,11.61,4.3,9.37,4.3,9.37s2.53-1,6.62-7.82c4.09-6.82,7.74-6.82,11.27-8.03
			c3.53-1.21,5.74-5.69,6.54-7.78c0.8-2.09,1.72-16.17,1.72-16.17h-0.77c-0.58,0.08-1.14,0.28-1.64,0.59l0,0
			c-0.67,0.69-0.74,4.61-0.8,5.66l-0.59,7.49c-0.01,0.59-0.1,1.18-0.26,1.75c-0.22,0.6-0.55,1.16-0.98,1.64
			c-0.57,0.69-1.09,1.42-1.55,2.17c-0.96,1.03-1.95,2.29-2.96,2.34c-2.71,0.01-5.3,1.11-7.2,3.04c-0.36,0.29-0.69,0.62-1,0.93
			c-3,3.25-5.49,6.92-7.39,10.91c-1.73-1.39-2.01-3.88-3.11-5.82c-0.26-0.44-0.62-0.88-1.11-0.9
			C447.95,268.7,447.54,268.93,447.3,269.31z"/>
		
			<linearGradient id="SVGID_12_" gradientUnits="userSpaceOnUse" x1="2526.7334" y1="1629.0229" x2="2569.8081" y2="1612.6533" gradientTransform="matrix(-1 0 0 -1 3008.5901 1911.48)">
			<stop  offset="0.01" style="stop-color:#000000"/>
			<stop  offset="0.13" style="stop-color:#000000;stop-opacity:0.69"/>
			<stop  offset="1" style="stop-color:#000000;stop-opacity:0"/>
		</linearGradient>
		<path class="st15" d="M458.72,290.88c0.17,1.23,0.49,2.44,0.95,3.6c0.49,1.47,1.43,2.74,2.68,3.65c0.75,0.45,1.58,0.73,2.45,0.82
			c5.12,0.54,7.39,0.2-0.85-3.57c-3.16-1.44-3.27-16.57-3.27-16.57l-2.14,1.95c0,1.83,0,3.68,0,5.53
			C458.48,287.82,458.54,289.36,458.72,290.88z"/>
		<path class="st4" d="M483.08,317.42c0.33,0.83,0.49,1.72,0.46,2.62c0.13,2.06-0.06,4.13-0.57,6.13c-0.14,0.7-0.58,1.3-1.21,1.64
			c-0.64,0.16-1.31-0.04-1.75-0.52c-1.07-1.31-1.5-3.03-1.18-4.69c0.1-1.65,0.31-3.29,0.64-4.91c0.07-0.45,0.23-0.89,0.46-1.29
			C480.83,315.1,482.58,316.37,483.08,317.42z"/>
		<path class="st5" d="M480.74,321.97c1.34,0.39,2.42,1.37,2.94,2.67c0.16,0.62,0.1,1.29,0.28,1.91c0.23,0.63,0.55,1.22,0.95,1.77
			c0.39,0.65,0.68,1.36,0.87,2.09c0.18,0.68,0.18,1.39,0,2.06c-0.19,0.68-0.73,1.22-1.41,1.42c-0.34,0.07-0.69,0.07-1.03,0
			c-1.61-0.46-2.95-1.57-3.71-3.06c-0.74-1.47-1.24-3.05-1.5-4.68c-0.41-1.24-0.44-2.58-0.08-3.84
			C478.52,321.28,479.96,321.64,480.74,321.97z"/>
		<path class="st4" d="M466.76,342.47c0.46,0.17,0.86,0.47,1.14,0.87c0.33,0.65,0.43,1.38,0.29,2.09l-0.28,3.45
			c0.02,0.63-0.19,1.25-0.59,1.73c-0.62,0.42-1.42,0.49-2.11,0.18c-0.58-0.13-1.09-0.49-1.39-1c-0.11-0.3-0.17-0.61-0.16-0.93
			c-0.07-1.67,0.02-3.35,0.25-5c0.08-0.64,0-1.42,0.61-1.64C465.27,342.04,466.07,342.13,466.76,342.47z"/>
		<path class="st5" d="M468.43,351.08c0-0.68-0.38-1.31-0.98-1.64c-0.28-0.1-0.58-0.16-0.88-0.18l-2.06-0.2
			c-0.16-0.02-0.32-0.02-0.47,0c-0.17,0.08-0.32,0.2-0.43,0.36c-0.47,1.08-0.69,2.26-0.64,3.43c-0.21,0.92-0.5,1.81-0.85,2.68
			c-0.37,0.87-0.46,1.83-0.26,2.75c0.13,0.71,0.75,1.21,1.47,1.21c0.46,0.03,0.91-0.01,1.36-0.11c0.37-0.06,0.73-0.18,1.06-0.34
			c0.3-0.21,0.58-0.46,0.82-0.74c0.48-0.48,0.88-1.03,1.19-1.64c0.22-0.52,0.36-1.07,0.43-1.64c0.2-1.49,0.26-3,0.2-4.5"/>
		<path class="st6" d="M462.85,259.91c-0.04,0.71,0.02,1.42,0.16,2.11c0.17,0.69,0.61,1.28,1.23,1.64c0.4,0.19,0.85,0.28,1.29,0.26
			c0.86,0.01,1.68-0.31,2.31-0.9c0.44-0.57,0.72-1.25,0.82-1.96c0.39-1.89,0.57-3.82,0.52-5.76c0-0.34-0.05-0.69-0.16-1.01
			c-0.55-0.92-1.65-1.35-2.68-1.05c-1.3,0.24-2.45,0.98-3.19,2.08C462.74,256.81,462.64,258.37,462.85,259.91z"/>
		<path class="st6" d="M459.6,253.77c0.09,0.91,0.29,1.81,0.59,2.68c1.24,3.15,4.81,4.69,7.96,3.45c0.01-0.01,0.03-0.01,0.04-0.02
			c0.8-0.29,1.5-0.83,1.98-1.54c0.34-0.64,0.56-1.35,0.64-2.08c0.24-1.57,0.38-3.15,0.41-4.74c0.06-0.92-0.04-1.85-0.28-2.75
			c-0.25-0.89-0.83-1.65-1.64-2.11c-0.73-0.28-1.51-0.41-2.29-0.36c-2.22,0-5.09-0.18-7.02,1.16c-0.78,0.56-0.67,1.34-0.64,2.24
			C459.35,251.08,459.45,252.42,459.6,253.77z"/>
		<path class="st5" d="M469.72,252.61c0.38,0.77,0.18,1.7-0.47,2.26l-0.47,2.89c0,0.46-0.23,1-0.69,1.11c-0.18,0-0.38,0-0.56,0
			c-0.69,0-1.29,0.77-1.91,0.51c-0.15-0.09-0.3-0.18-0.46-0.25c-0.31,0-0.59,0.15-0.88,0.28c-0.88,0.26-1.83-0.08-2.34-0.85
			c-0.49-0.74-0.93-1.51-1.32-2.31c-0.52-0.64-0.96-1.34-1.32-2.08c-0.29-0.85-0.15-1.86-0.64-2.63c-0.14-0.17-0.25-0.36-0.34-0.56
			c-0.06-0.24-0.06-0.48,0-0.72c-0.01-1.1,0.09-2.19,0.29-3.27c0.22-1.06,0.74-2.03,1.5-2.8c0.96-0.89,2.28-1.27,3.57-1.01
			c1.69-0.89,3.62-1.17,5.49-0.82c0.18,0.02,0.35,0.1,0.47,0.23c0.21,0.28,0,0.69-0.2,0.98c1.08,0.45,1.86,1.41,2.08,2.55
			c-0.31,0-0.57,0.31-0.61,0.64c0.01,0.33,0.07,0.65,0.2,0.95c0.18,0.53,0.28,1.08,0.29,1.64c0.03,0.27-0.01,0.55-0.11,0.8
			c-0.13,0.24-0.3,0.47-0.49,0.67C470.27,251.3,469.89,251.92,469.72,252.61z"/>
		<path class="st4" d="M676.83,358.35c0.05-0.84,0.08-1.69,0.08-2.55c0-23.71-18.97-42.94-42.38-42.94
			c-14.28,0-26.9,7.16-34.57,18.12c-2.81-1.01-5.83-1.56-8.98-1.56c-13.29,0-24.3,9.78-26.22,22.54
			c-13.12,1.01-23.46,11.97-23.46,25.35c0,13.28,10.18,24.18,23.16,25.32v0.11h103.31c12.77,0,23.12-10.35,23.12-23.12
			C690.89,370.07,685.09,361.88,676.83,358.35z"/>
		<path class="st4" d="M762.11,478.84c0.03-0.55,0.05-1.1,0.05-1.65c0-15.39-12.32-27.87-27.51-27.87
			c-9.27,0-17.46,4.65-22.44,11.76c-1.82-0.66-3.78-1.01-5.83-1.01c-8.63,0-15.77,6.35-17.02,14.63
			c-8.52,0.65-15.23,7.77-15.23,16.45c0,8.62,6.61,15.69,15.03,16.44v0.07h67.06c8.29,0,15.01-6.72,15.01-15.01
			C771.23,486.44,767.47,481.12,762.11,478.84z"/>
	</g>
</g>
</svg>
