<?xml version="1.0" encoding="utf-8"?>
<!-- Generator: Adobe Illustrator 23.0.2, SVG Export Plug-In . SVG Version: 6.00 Build 0)  -->
<svg version="1.1" id="图层_1" xmlns="http://www.w3.org/2000/svg" xmlns:xlink="http://www.w3.org/1999/xlink" x="0px" y="0px"
	 viewBox="0 0 490 420" style="enable-background:new 0 0 490 420;" xml:space="preserve">
<style type="text/css">
	.st0{opacity:0.18;fill:url(#SVGID_1_);}
	.st1{fill:url(#SVGID_2_);}
	.st2{fill:#FFFFFF;}
	.st3{fill:url(#SVGID_3_);}
	.st4{fill:url(#SVGID_4_);}
	.st5{fill:url(#SVGID_5_);}
	.st6{fill:url(#SVGID_6_);}
	.st7{fill:url(#SVGID_7_);}
	.st8{fill:url(#SVGID_8_);}
	.st9{fill:url(#SVGID_9_);}
	.st10{fill:#68E1FD;}
	.st11{fill:none;}
	.st12{fill:url(#SVGID_10_);}
	.st13{fill:url(#SVGID_11_);}
	.st14{fill:url(#SVGID_12_);}
	.st15{fill:url(#SVGID_13_);}
	.st16{fill:url(#SVGID_14_);}
	.st17{fill:url(#SVGID_15_);}
	.st18{fill:url(#SVGID_16_);}
	.st19{fill:url(#SVGID_17_);}
	.st20{fill:url(#SVGID_18_);}
	.st21{fill:url(#SVGID_19_);}
	.st22{fill:url(#SVGID_20_);}
	.st23{fill:#3E3E54;}
	.st24{fill:#EEA886;}
	.st25{fill:url(#SVGID_21_);}
	.st26{fill:url(#SVGID_22_);}
</style>
<g>
	<linearGradient id="SVGID_1_" gradientUnits="userSpaceOnUse" x1="1" y1="207.8536" x2="488.4857" y2="207.8536">
		<stop  offset="0" style="stop-color:#8492FD"/>
		<stop  offset="1" style="stop-color:#5DB5FC"/>
	</linearGradient>
	<path class="st0" d="M478.96,255.18c-8.62,16.24-24.22,28.91-28.54,46.79c-1.87,7.71-1.44,15.8-2.35,23.69
		c-3.39,27.64-24.11,50.68-48.82,63.74c-1.04,0.57-2.08,1.08-3.13,1.6c-16.21,7.92-33.78,12.24-51.68,14.94
		c-10.89,1.62-21.91,2.64-32.83,3.53c-45.42,3.59-90.94,4.91-136.57,3.93c-22.03-0.45-44.49-1.5-65.21-8.81
		c-1.06-0.36-2.11-0.75-3.16-1.18c-16.81-6.53-31.73-17.24-44.94-29.5l-0.6-0.57c-19.71-18.41-35.99-40.65-46.53-65.48
		c-15.06-35.46-17.7-74.96-7.49-112.1c6.23-22.07,17.11-43.12,18.84-65.93c1.26-17.19-2.78-34.59-0.08-51.61
		c5.33-33.79,36.74-58.66,69.91-67.04s68.07-3.6,101.94,1.18c16.55,2.35,35.92,8.68,52.3,3.61C270.11,9.75,287.06,2.05,308.75,2
		c8.87,0,17.91,0.93,26.03,4.49c9.84,4.3,17.66,12.09,25.63,19.26c22.31,20.01,47.74,36.19,70.54,55.62
		c22.8,19.43,43.45,43.07,51.8,71.82c4.11,14.06,5.12,28.83,5.56,43.47C488.94,216.63,488.3,237.53,478.96,255.18z"/>
	<linearGradient id="SVGID_2_" gradientUnits="userSpaceOnUse" x1="114.3627" y1="230.2905" x2="381.5277" y2="230.2905">
		<stop  offset="0" style="stop-color:#8492FD"/>
		<stop  offset="1" style="stop-color:#5DB5FC"/>
	</linearGradient>
	<path class="st1" d="M132.34,135.15h231.21c9.93,0,17.98,8.05,17.98,17.98v154.32c0,9.93-8.05,17.98-17.98,17.98H132.34
		c-9.93,0-17.98-8.05-17.98-17.98V153.13C114.36,143.2,122.41,135.15,132.34,135.15z"/>
	<rect x="130.67" y="148.74" class="st2" width="234.55" height="159.22"/>
	<linearGradient id="SVGID_3_" gradientUnits="userSpaceOnUse" x1="227.0176" y1="280.2991" x2="256.4524" y2="229.3166">
		<stop  offset="0" style="stop-color:#8492FD"/>
		<stop  offset="1" style="stop-color:#5DB5FC"/>
	</linearGradient>
	<rect x="238.24" y="222.84" class="st3" width="6.99" height="63.94"/>
	<linearGradient id="SVGID_4_" gradientUnits="userSpaceOnUse" x1="242.8337" y1="282.7994" x2="263.6073" y2="246.8186">
		<stop  offset="0" style="stop-color:#8492FD"/>
		<stop  offset="1" style="stop-color:#5DB5FC"/>
	</linearGradient>
	<rect x="249.72" y="242.84" class="st4" width="6.99" height="43.94"/>
	<linearGradient id="SVGID_5_" gradientUnits="userSpaceOnUse" x1="252.2521" y1="281.6059" x2="277.16" y2="238.4642">
		<stop  offset="0" style="stop-color:#8492FD"/>
		<stop  offset="1" style="stop-color:#5DB5FC"/>
	</linearGradient>
	<rect x="261.21" y="233.29" class="st5" width="6.99" height="53.48"/>
	<linearGradient id="SVGID_6_" gradientUnits="userSpaceOnUse" x1="268.3945" y1="284.2946" x2="283.9886" y2="257.2848">
		<stop  offset="0" style="stop-color:#8492FD"/>
		<stop  offset="1" style="stop-color:#5DB5FC"/>
	</linearGradient>
	<rect x="272.69" y="254.8" class="st6" width="6.99" height="31.98"/>
	<linearGradient id="SVGID_7_" gradientUnits="userSpaceOnUse" x1="275.2232" y1="281.6059" x2="300.1311" y2="238.4642">
		<stop  offset="0" style="stop-color:#8492FD"/>
		<stop  offset="1" style="stop-color:#5DB5FC"/>
	</linearGradient>
	<rect x="284.18" y="233.29" class="st7" width="6.99" height="53.48"/>
	<linearGradient id="SVGID_8_" gradientUnits="userSpaceOnUse" x1="290.1855" y1="283.6133" x2="308.1399" y2="252.5153">
		<stop  offset="0" style="stop-color:#8492FD"/>
		<stop  offset="1" style="stop-color:#5DB5FC"/>
	</linearGradient>
	<rect x="295.67" y="249.35" class="st8" width="6.99" height="37.43"/>
	<linearGradient id="SVGID_9_" gradientUnits="userSpaceOnUse" x1="300.1111" y1="282.7126" x2="321.1854" y2="246.2108">
		<stop  offset="0" style="stop-color:#8492FD"/>
		<stop  offset="1" style="stop-color:#5DB5FC"/>
	</linearGradient>
	<rect x="307.15" y="242.15" class="st9" width="6.99" height="44.63"/>
	<rect x="156.3" y="261.75" class="st10" width="39.99" height="2.33"/>
	<rect x="156.3" y="268.21" class="st10" width="39.99" height="2.33"/>
	<rect x="156.3" y="274.69" class="st10" width="39.99" height="2.33"/>
	<rect x="156.3" y="281.16" class="st10" width="39.99" height="2.33"/>
	<rect x="156.3" y="287.64" class="st10" width="39.99" height="2.33"/>
	<rect x="210.67" y="261.75" class="st11" width="39.99" height="28.74"/>
	<linearGradient id="SVGID_10_" gradientUnits="userSpaceOnUse" x1="171.0202" y1="205.885" x2="223.1342" y2="205.885">
		<stop  offset="0" style="stop-color:#8492FD"/>
		<stop  offset="1" style="stop-color:#5DB5FC"/>
	</linearGradient>
	<path class="st12" d="M197.12,179.87c-14.37-0.04-26.05,11.57-26.09,25.94c-0.04,14.37,11.57,26.05,25.94,26.09v-9.07h-0.11
		c-9.51,0-17.21-7.71-17.21-17.21c0-9.51,7.71-17.21,17.21-17.21c9.51,0,17.21,7.71,17.21,17.21c0,0,0,0,0,0
		c0,0.82-0.06,1.65-0.19,2.46h9.15c0.08-0.73,0.11-1.47,0.11-2.2c0.01-14.36-11.63-26.01-25.99-26.02
		C197.13,179.87,197.12,179.87,197.12,179.87z"/>
	
		<linearGradient id="SVGID_11_" gradientUnits="userSpaceOnUse" x1="411.6186" y1="2031.5962" x2="387.4133" y2="1589.3428" gradientTransform="matrix(1 0 0 -1 0 1922)">
		<stop  offset="0.02" style="stop-color:#FFFFFF;stop-opacity:0"/>
		<stop  offset="0.14" style="stop-color:#FFFFFF;stop-opacity:0.06"/>
		<stop  offset="0.32" style="stop-color:#FFFFFF;stop-opacity:0.39"/>
		<stop  offset="0.68" style="stop-color:#FFFFFF;stop-opacity:0.68"/>
		<stop  offset="1" style="stop-color:#FFFFFF"/>
	</linearGradient>
	<path class="st13" d="M362.1,158.42h65.26c4.86,0,8.79,3.94,8.79,8.79v63.7c0,4.86-3.94,8.79-8.79,8.79H362.1
		c-4.86,0-8.79-3.94-8.79-8.79v-63.7C353.3,162.35,357.24,158.42,362.1,158.42z"/>
	
		<linearGradient id="SVGID_12_" gradientUnits="userSpaceOnUse" x1="311.2602" y1="2263.6543" x2="287.0431" y2="1821.401" gradientTransform="matrix(1 0 0 -1 0 1922)">
		<stop  offset="0.02" style="stop-color:#FFFFFF;stop-opacity:0"/>
		<stop  offset="0.32" style="stop-color:#FFFFFF;stop-opacity:0.39"/>
		<stop  offset="0.68" style="stop-color:#FFFFFF;stop-opacity:0.68"/>
		<stop  offset="1" style="stop-color:#FFFFFF"/>
	</linearGradient>
	<path class="st14" d="M255.46,40.92h65.26c4.86,0,8.79,3.94,8.79,8.79v63.7c0,4.86-3.94,8.79-8.79,8.79h-65.26
		c-4.86,0-8.79-3.94-8.79-8.79v-63.7C246.66,44.86,250.6,40.92,255.46,40.92z"/>
	
		<linearGradient id="SVGID_13_" gradientUnits="userSpaceOnUse" x1="118.1679" y1="2160.1106" x2="93.9509" y2="1717.8572" gradientTransform="matrix(1 0 0 -1 0 1922)">
		<stop  offset="0.02" style="stop-color:#FFFFFF;stop-opacity:0"/>
		<stop  offset="0.32" style="stop-color:#FFFFFF;stop-opacity:0.39"/>
		<stop  offset="0.68" style="stop-color:#FFFFFF;stop-opacity:0.68"/>
		<stop  offset="1" style="stop-color:#FFFFFF"/>
	</linearGradient>
	<path class="st15" d="M68.53,31.86h65.26c4.86,0,8.79,3.94,8.79,8.79v63.7c0,4.86-3.94,8.79-8.79,8.79H68.53
		c-4.86,0-8.79-3.94-8.79-8.79v-63.7C59.74,35.79,63.67,31.86,68.53,31.86z"/>
	
		<linearGradient id="SVGID_14_" gradientUnits="userSpaceOnUse" x1="93.8464" y1="2034.3275" x2="69.6411" y2="1592.0742" gradientTransform="matrix(1 0 0 -1 0 1922)">
		<stop  offset="0.02" style="stop-color:#FFFFFF;stop-opacity:0"/>
		<stop  offset="0.32" style="stop-color:#FFFFFF;stop-opacity:0.39"/>
		<stop  offset="0.68" style="stop-color:#FFFFFF;stop-opacity:0.68"/>
		<stop  offset="1" style="stop-color:#FFFFFF"/>
	</linearGradient>
	<path class="st16" d="M44.43,153.73h65.26c4.86,0,8.79,3.94,8.79,8.79v63.7c0,4.86-3.94,8.79-8.79,8.79H44.43
		c-4.86,0-8.79-3.94-8.79-8.79v-63.7C35.64,157.67,39.57,153.73,44.43,153.73z"/>
	<linearGradient id="SVGID_15_" gradientUnits="userSpaceOnUse" x1="310.7777" y1="219.8243" x2="354.0082" y2="219.8243">
		<stop  offset="0" style="stop-color:#8492FD"/>
		<stop  offset="1" style="stop-color:#5DB5FC"/>
	</linearGradient>
	<polygon class="st17" points="311.7,249.57 310.78,249.34 326.2,190.07 354.01,190.07 354.01,191.03 326.94,191.03 	"/>
	<linearGradient id="SVGID_16_" gradientUnits="userSpaceOnUse" x1="213.9153" y1="156.7445" x2="262.22" y2="156.7445">
		<stop  offset="0" style="stop-color:#8492FD"/>
		<stop  offset="1" style="stop-color:#5DB5FC"/>
	</linearGradient>
	<polygon class="st18" points="262.22,98.87 249.42,98.87 214.73,215.57 213.92,215.49 248.69,97.91 262.22,97.91 	"/>
	<linearGradient id="SVGID_17_" gradientUnits="userSpaceOnUse" x1="140.7696" y1="139.7973" x2="196.1027" y2="139.7973">
		<stop  offset="0" style="stop-color:#8492FD"/>
		<stop  offset="1" style="stop-color:#5DB5FC"/>
	</linearGradient>
	<polygon class="st19" points="195.2,188.21 164.63,92.33 140.77,92.33 140.77,91.38 165.33,91.38 165.43,91.72 196.1,187.92 	"/>
	<linearGradient id="SVGID_18_" gradientUnits="userSpaceOnUse" x1="116.9174" y1="211.9423" x2="160.6777" y2="211.9423">
		<stop  offset="0" style="stop-color:#8492FD"/>
		<stop  offset="1" style="stop-color:#5DB5FC"/>
	</linearGradient>
	<polygon class="st20" points="159.96,224.53 138.23,200.3 116.92,200.3 116.92,199.35 138.65,199.35 160.68,223.9 	"/>
	<path class="st10" d="M223.03,208.4c-1.13,13.47-12.39,23.82-25.9,23.82h-0.15v-9.05c8.52-0.05,15.71-6.33,16.92-14.76H223.03z"/>
	
		<linearGradient id="SVGID_19_" gradientUnits="userSpaceOnUse" x1="201.6672" y1="1692.9023" x2="245.7807" y2="1631.9181" gradientTransform="matrix(1 0 0 -1 -9.98 1887.58)">
		<stop  offset="0.02" style="stop-color:#FFFFFF;stop-opacity:0"/>
		<stop  offset="0.32" style="stop-color:#FFFFFF;stop-opacity:0.39"/>
		<stop  offset="0.68" style="stop-color:#FFFFFF;stop-opacity:0.68"/>
		<stop  offset="1" style="stop-color:#FFFFFF"/>
	</linearGradient>
	<path class="st21" d="M223.03,208.09c-1.13,13.47-12.39,23.82-25.9,23.82h-0.15v-9.07c8.51-0.05,15.71-6.32,16.92-14.75H223.03z"/>
	<linearGradient id="SVGID_20_" gradientUnits="userSpaceOnUse" x1="132.7286" y1="237.8253" x2="172.8275" y2="237.8253">
		<stop  offset="0" style="stop-color:#8492FD"/>
		<stop  offset="1" style="stop-color:#5DB5FC"/>
	</linearGradient>
	<polygon class="st22" points="132.73,235.22 144.84,209.78 172.83,226.13 153.57,265.87 138.54,257.51 	"/>
	<polygon class="st2" points="135.02,232.68 145.21,212.94 168.22,226.38 150.78,261.39 138.91,252.31 	"/>
	<path class="st23" d="M134.21,295.28l8.04,49.75l-8.04,49.69l4.53,3.53l-7.44-0.32l0.65-51.37l-13.89-36.18l1.68,37.57l-8.1,48.43
		l3.53,1.93l-8.08-0.32l3.46-50.22l-6.3-30.03c0,0-5.56-21.83,0-25.38C109.82,288.81,134.21,295.28,134.21,295.28z"/>
	<path class="st10" d="M104.81,220.65c0,0,19.55,2.19,24.39,5.72c4.84,3.53,9.85,9.14,9.85,13.66c0,4.52,1.94,26.81,1.94,26.81
		l8.08-18.73l4.52,2.58c0,0-5.17,32.47-8.08,33.44c-2.91,0.97-10.82-1.18-10.82-1.18l-0.49,12.28c0,0-26.49,2.58-30.03-2.91
		S92.26,229.62,104.81,220.65z"/>
	<path class="st24" d="M121.6,214.51c0,0-2.35,4.98-1.09,9.05c0,0-7.26-0.99-7.48-1.85c-0.21-0.86,0.91-8.48,0.07-10.82
		S121.6,214.51,121.6,214.51z"/>
	<path class="st24" d="M113.8,194.24c2.86-1.18,10.69-2.94,13.59,8.75c2.9,11.69-1.51,12.26-6.06,12.3
		c-4.56,0.05-12.23-7.36-12.95-9.75S105.66,197.75,113.8,194.24z"/>
	<path class="st24" d="M149.49,242.69c-0.01-0.32,0.03-0.64,0.12-0.94c0.27-0.86,1.18-1.33,1.67-2.1c0.26-0.49,0.42-1.03,0.47-1.58
		c0.04-0.49,0.17-0.96,0.39-1.4c0.22-0.44,0.68-0.71,1.18-0.69c0.66,0.09,1,0.82,1.18,1.46c1.16,3.87,1,8.01-0.47,11.77
		c-0.21,0.55-0.6,1.18-1.18,1.18c-0.2-0.03-0.39-0.09-0.57-0.2c-1.18-0.64-2.85-1.18-2.91-2.55
		C149.32,245.95,149.46,244.3,149.49,242.69z"/>
	<linearGradient id="SVGID_21_" gradientUnits="userSpaceOnUse" x1="146.2558" y1="236.5538" x2="152.2294" y2="236.5538">
		<stop  offset="0" style="stop-color:#8492FD"/>
		<stop  offset="1" style="stop-color:#5DB5FC"/>
	</linearGradient>
	<path class="st25" d="M152.22,238.58l-5.49-5.14l-0.48,0.97l5.03,5.27C151.28,239.67,152.31,239.32,152.22,238.58z"/>
	
		<linearGradient id="SVGID_22_" gradientUnits="userSpaceOnUse" x1="160.1305" y1="1627.1665" x2="106.3514" y2="1580.4159" gradientTransform="matrix(1 0 0 -1 -9.98 1887.58)">
		<stop  offset="0" style="stop-color:#000000;stop-opacity:0"/>
		<stop  offset="0.99" style="stop-color:#000000"/>
	</linearGradient>
	<path class="st26" d="M134.71,283c0,0-2.84-1.18-3.8-9.42c-0.97-8.24-2.18-16.72-2.18-16.72v38.73h6.46L134.71,283z"/>
	<path class="st23" d="M122.54,191.69c-0.49-1.29-1.44-2.35-2.66-2.99c-0.9-0.57-2.03-0.63-2.99-0.16
		c-0.58-0.78-1.49-1.24-2.46-1.24c-0.8-0.12-1.62,0.01-2.35,0.36c-0.75,0.4-1.16,1.24-1,2.07c-1.17-0.17-2.36-0.17-3.53,0
		c-0.36,0.04-0.72,0.15-1.04,0.33c-0.38,0.31-0.67,0.71-0.82,1.18c-0.65,1.49-0.99,3.09-1,4.71c-1.24,0.88-2,2.28-2.08,3.79
		c-0.06,1.52,0.57,2.99,1.71,3.99c-0.45,1.56-0.22,3.23,0.64,4.6c0.9,1.38,2.55,2.05,4.16,1.7c0,0.71,0.09,1.57,0.74,1.88
		c0.23,0.09,0.47,0.13,0.72,0.12c0.69-0.01,1.38-0.16,2.01-0.42c-0.12,0.54-0.12,1.11,0,1.65c0.14,0.55,0.61,0.94,1.18,0.97
		c0.4-0.08,0.77-0.29,1.04-0.6c0.77-0.59,1.36-1.38,1.72-2.28c0.12-0.85,0.19-1.7,0.21-2.55c0.19-1,0.82-1.98,0.57-2.96
		c-0.26-0.98-1.07-1.41-1.7-2.06c-0.62-0.65-1-1.8-0.32-2.35c0.68-0.55,1.68-0.06,2.3,0.55c0.31,0.29,0.74,0.64,1.09,0.41
		c0.35-0.22,0.25-0.69,0.12-1.05c-0.34-0.76-0.61-1.55-0.81-2.35c-0.21-0.85,0.04-1.74,0.66-2.35c1.01-0.86,2.65-0.38,3.64-1.18
		S122.92,192.71,122.54,191.69z"/>
</g>
</svg>
