<?xml version="1.0" encoding="utf-8"?>
<!-- Generator: Adobe Illustrator 23.0.2, SVG Export Plug-In . SVG Version: 6.00 Build 0)  -->
<svg version="1.1" id="图层_1" xmlns="http://www.w3.org/2000/svg" xmlns:xlink="http://www.w3.org/1999/xlink" x="0px" y="0px"
	 viewBox="0 0 490 410" style="enable-background:new 0 0 490 410;" xml:space="preserve">
<style type="text/css">
	.st0{opacity:0.18;fill:url(#SVGID_1_);}
	.st1{fill:#FFFFFF;}
	.st2{fill:url(#SVGID_2_);enable-background:new    ;}
	.st3{fill:#68E1FD;}
	.st4{fill:url(#SVGID_3_);}
	.st5{opacity:0.23;fill:url(#SVGID_4_);enable-background:new    ;}
	.st6{fill:url(#SVGID_5_);}
	.st7{fill:url(#SVGID_6_);}
	.st8{fill:#984E45;}
	.st9{fill:#F7AD7E;}
	.st10{opacity:0.52;fill:url(#SVGID_7_);enable-background:new    ;}
	.st11{opacity:0.23;fill:url(#SVGID_8_);enable-background:new    ;}
	.st12{fill:url(#SVGID_9_);}
	.st13{fill:url(#SVGID_10_);}
	.st14{fill:url(#SVGID_11_);}
	.st15{fill:url(#SVGID_12_);}
	.st16{fill:url(#SVGID_13_);}
	.st17{fill:url(#SVGID_14_);}
	.st18{fill:url(#SVGID_15_);}
	.st19{opacity:0.23;fill:url(#SVGID_16_);enable-background:new    ;}
	.st20{opacity:0.8;fill:#FFFFFF;}
	.st21{font-family:'SourceHanSansCN-Regular-GBpc-EUC-H';}
	.st22{font-size:12.4023px;}
</style>
<g>
	<linearGradient id="SVGID_1_" gradientUnits="userSpaceOnUse" x1="1" y1="166.0306" x2="488.4857" y2="166.0306">
		<stop  offset="0" style="stop-color:#8492FD"/>
		<stop  offset="1" style="stop-color:#5DB5FC"/>
	</linearGradient>
	<path class="st0" d="M40.48,322.28c0,0-52.21-53.47-36.55-110.07s57.85-56.64,126.55-109.68S217.26-3.57,324.51,3.66
		s178.37,189.21,161.5,238.62s-31.34,86.78-31.34,86.78L40.48,322.28z"/>
	<path class="st1" d="M14.71,64.93h179.91c4.32,0,7.82,3.5,7.82,7.82v122.87c0,4.32-3.5,7.82-7.82,7.82H14.71
		c-4.32,0-7.82-3.5-7.82-7.82V72.76C6.89,68.44,10.39,64.93,14.71,64.93z"/>
	<linearGradient id="SVGID_2_" gradientUnits="userSpaceOnUse" x1="6.8886" y1="134.1945" x2="202.4417" y2="134.1945">
		<stop  offset="0" style="stop-color:#8492FD"/>
		<stop  offset="1" style="stop-color:#5DB5FC"/>
	</linearGradient>
	<path class="st2" d="M14.71,64.93h179.91c4.32,0,7.82,3.5,7.82,7.82v122.87c0,4.32-3.5,7.82-7.82,7.82H14.71
		c-4.32,0-7.82-3.5-7.82-7.82V72.76C6.89,68.44,10.39,64.93,14.71,64.93z"/>
	<rect x="31.35" y="312.65" class="st3" width="451.58" height="9.65"/>
	<linearGradient id="SVGID_3_" gradientUnits="userSpaceOnUse" x1="183.8318" y1="488.2049" x2="327.4029" y2="239.5324">
		<stop  offset="0" style="stop-color:#8492FD"/>
		<stop  offset="1" style="stop-color:#5DB5FC"/>
	</linearGradient>
	<rect x="40.49" y="322.29" class="st4" width="430.26" height="83.15"/>
	
		<linearGradient id="SVGID_4_" gradientUnits="userSpaceOnUse" x1="253.9653" y1="1632.4093" x2="258.6046" y2="1512.6608" gradientTransform="matrix(1 0 0 -1 0 1922)">
		<stop  offset="0.01" style="stop-color:#000000"/>
		<stop  offset="0.83" style="stop-color:#000000;stop-opacity:0.07"/>
		<stop  offset="1" style="stop-color:#000000;stop-opacity:0"/>
	</linearGradient>
	<rect x="40.49" y="322.29" class="st5" width="430.26" height="19.88"/>
	<path class="st3" d="M178.38,282.36c0,0,2.12-60.25,14.2-66.28c12.08-6.02,61.77-3.62,72.61-0.6c10.84,3.02,19.52,46.02,22.3,52.73
		c5.12,12.34,24.4,19.28,24.4,19.28l-1.81,25.3L195.6,312.2C195.6,312.2,182,309.47,178.38,282.36z"/>
	
		<linearGradient id="SVGID_5_" gradientUnits="userSpaceOnUse" x1="214.3555" y1="1668.0831" x2="230.4277" y2="1703.2336" gradientTransform="matrix(1 0 0 -1 -0.81 1913.1801)">
		<stop  offset="0.01" style="stop-color:#000000"/>
		<stop  offset="0.12" style="stop-color:#000000;stop-opacity:0.75"/>
		<stop  offset="1" style="stop-color:#000000;stop-opacity:0"/>
	</linearGradient>
	<path class="st6" d="M213.32,213.77c-0.75,1.14-1.05,2.52-0.83,3.87c0.4,3.78,1.96,7.34,4.45,10.21c2.49,2.84,5.51,5.19,8.88,6.91
		c1.07-2.63,1.92-7.22,4.13-8.02c2.37-0.54,4.77-0.96,7.18-1.25c0.14-0.19-6.56-1.18-6.78-1.28c-4.19-1.03-7.16-3.63-10.01-6.88
		c-0.72-0.75-1.34-1.6-1.83-2.51c-0.58-1.18-0.08-2.78-1.74-2.63C215.45,212.25,214.21,212.81,213.32,213.77z"/>
	
		<linearGradient id="SVGID_6_" gradientUnits="userSpaceOnUse" x1="259.3977" y1="1688.5161" x2="238.5086" y2="1693.9485" gradientTransform="matrix(1 0 0 -1 -0.81 1913.1801)">
		<stop  offset="0.01" style="stop-color:#000000"/>
		<stop  offset="0.12" style="stop-color:#000000;stop-opacity:0.75"/>
		<stop  offset="1" style="stop-color:#000000;stop-opacity:0"/>
	</linearGradient>
	<path class="st7" d="M247.1,229.55c0.34,0.4,0.85,0.85,1.33,0.63c0.16-0.1,0.3-0.24,0.39-0.41c1.08-1.8,1.43-3.94,0.99-5.99
		c-0.44-2.04-1.2-3.99-2.25-5.79c-0.88-1.74-1.99-3.36-3.28-4.83c-0.62-0.65-1.66-1.28-2.37-0.7c-0.28,0.28-0.46,0.64-0.52,1.03
		c-0.53,2.09-5.54,10.11-4.28,12c0.49,0.75,5.7,0.27,6.58,0.86C244.96,227.26,246.11,228.34,247.1,229.55z"/>
	<path class="st8" d="M253.68,170.4c-0.24-3.25-6.85-4.67-7.91-7.1l10.05-0.4c0,0,1.18,13.22-3.55,19.68l-1.03-2.51
		C252.48,173.91,254.21,177.97,253.68,170.4z"/>
	<path class="st9" d="M221.67,192.39l-3.69,22.56c0,0,8.28,12.14,18.77,10.33c10.49-1.81,6.63-6.94,6.63-6.94l-1.28-19.14
		C242.1,199.21,233.81,201.18,221.67,192.39z"/>
	
		<linearGradient id="SVGID_7_" gradientUnits="userSpaceOnUse" x1="224.4259" y1="1738.2371" x2="241.5988" y2="1676.4691" gradientTransform="matrix(1 0 0 -1 -0.81 1913.1801)">
		<stop  offset="0.01" style="stop-color:#000000"/>
		<stop  offset="0.83" style="stop-color:#000000;stop-opacity:0.07"/>
		<stop  offset="1" style="stop-color:#000000;stop-opacity:0"/>
	</linearGradient>
	<path class="st10" d="M220.37,200.31l1.3-7.92c12.13,8.79,18.4,5.05,18.4,5.05l2.94,10.24c-1.78,1.74,0.39,8.02-6.64,7.31
		C230.57,214.43,225.09,206.54,220.37,200.31z"/>
	<path class="st9" d="M212.19,176.01c0.89,12.52,13.72,34.63,26.24,33.73c12.52-0.9,16.13-26.77,15.24-39.29
		c-0.89-12.52-7.92-19.65-20.47-18.76c-12.51,0.91-21.92,11.78-21.01,24.3C212.19,175.99,212.19,176,212.19,176.01z"/>
	<path class="st8" d="M222.55,152.01c0.77-0.2,1.01-0.8,1.96-1.62c3.73-3.2,8.98-3.81,13.69-3.3c11.76,1.29,14.47,9.59,17.58,8.28
		c3.1-1.3,8.75,3.62,4.9,9.21c-3.85,5.59-10.11,7.1-17.75,3.38c-4.9-2.37-11.68-4.25-17.13-2.88c-0.87,0.1-1.66,0.56-2.18,1.28
		c-0.76,1.49-0.39,4.41-0.34,6.05c0.2,3.99,0.69,7.96,1.46,11.88c-0.63,0.06-1.09-0.56-1.37-1.12c-0.7-1.35-1.18-2.8-1.82-4.17
		c-0.76-1.54-2.17-3.98-4.11-2.72c-0.98,0.75-1.62,1.87-1.76,3.1c-0.56,2.67-0.13,6.52,2.09,8.4c1.79,1.5,2.31,4.36,2.73,6.52
		c0.14,0.69,0.84,2.49,0.58,3.11c-0.47,1.11-2.11,0.99-2.95,0.32c-0.94-0.97-1.55-2.21-1.74-3.55c-1.61-6.35-3.94-12.49-6.94-18.31
		c-0.75-1.32-1.37-2.71-1.86-4.14c-0.75-3.21-0.52-6.58,0.67-9.66c0.89-3.19,2.66-6.07,5.12-8.28c2.77-2.24,5.12-1.91,8.28-1.75
		C221.97,152.08,222.27,152.06,222.55,152.01z"/>
	
		<linearGradient id="SVGID_8_" gradientUnits="userSpaceOnUse" x1="238.6817" y1="1546.897" x2="236.8827" y2="1694.5411" gradientTransform="matrix(1 0 0 -1 -0.81 1913.1801)">
		<stop  offset="0.01" style="stop-color:#000000"/>
		<stop  offset="0.83" style="stop-color:#000000;stop-opacity:0.07"/>
		<stop  offset="1" style="stop-color:#000000;stop-opacity:0"/>
	</linearGradient>
	<path class="st11" d="M227.5,310.99l1.81-23.5l-19.28-2.71l-6.04-32.84c0,0,22.3,20.49,41.04,19.94s21.09-7.83,21.09-7.83
		l3.55,46.41L227.5,310.99z"/>
	
		<linearGradient id="SVGID_9_" gradientUnits="userSpaceOnUse" x1="226.8516" y1="1646.1172" x2="280.7846" y2="1649.7388" gradientTransform="matrix(1 0 0 -1 -0.81 1913.1801)">
		<stop  offset="0.01" style="stop-color:#000000"/>
		<stop  offset="0.12" style="stop-color:#000000;stop-opacity:0.75"/>
		<stop  offset="1" style="stop-color:#000000;stop-opacity:0"/>
	</linearGradient>
	<path class="st12" d="M231.15,226.34l2.51,4.23l3.72,3.31l6.63,72.31l12.85-0.4l-15.97-72.72l1.91-7.1
		C242.8,225.98,234.76,224.95,231.15,226.34z"/>
	<path class="st9" d="M225.28,296.12c0,0,16.07-12.85,21.69-11.26c5.62,1.6,11.66,7.63,12.06,9.65c0.4,2.01-2.37,5.22-5.63,5.62
		c-3.27,0.4-6.83,3.22-8.83,2.37s-6.83,0-8.84,2.37c-2.01,2.37-11.26,5.62-11.26,5.62S218.45,302.15,225.28,296.12z"/>
	<path class="st3" d="M351.21,312.88H233.97c-3.29,0-5.95-2.67-5.95-5.95l0,0c0-3.29,2.67-5.95,5.95-5.95h117.24
		c3.29,0,5.95,2.67,5.95,5.95l0,0C357.16,310.22,354.5,312.88,351.21,312.88z"/>
	
		<linearGradient id="SVGID_10_" gradientUnits="userSpaceOnUse" x1="293.1374" y1="1594.6995" x2="293.6818" y2="1619.5416" gradientTransform="matrix(1 0 0 -1 -0.8 1913.1801)">
		<stop  offset="0.01" style="stop-color:#000000"/>
		<stop  offset="0.12" style="stop-color:#000000;stop-opacity:0.75"/>
		<stop  offset="1" style="stop-color:#000000;stop-opacity:0"/>
	</linearGradient>
	<path class="st13" d="M351.21,312.88H233.97c-3.29,0-5.95-2.67-5.95-5.95l0,0c0-3.29,2.67-5.95,5.95-5.95h117.24
		c3.29,0,5.95,2.67,5.95,5.95l0,0C357.16,310.22,354.5,312.88,351.21,312.88z"/>
	<path class="st3" d="M279.36,301.46l1.95,6.32l83.26,5.1l23.73-60.18c1.07-2.72-0.26-5.79-2.98-6.86
		c-0.62-0.24-1.27-0.37-1.93-0.37h-70.6c-7,0-13.28,4.28-15.85,10.79L279.36,301.46z"/>
	
		<linearGradient id="SVGID_11_" gradientUnits="userSpaceOnUse" x1="321.8425" y1="1681.1479" x2="348.9688" y2="1589.8511" gradientTransform="matrix(1 0 0 -1 -0.81 1913.1801)">
		<stop  offset="0.01" style="stop-color:#000000"/>
		<stop  offset="0.12" style="stop-color:#000000;stop-opacity:0.75"/>
		<stop  offset="1" style="stop-color:#000000;stop-opacity:0"/>
	</linearGradient>
	<path class="st14" d="M279.36,301.46l1.95,6.32l83.26,5.1l23.73-60.18c1.07-2.72-0.26-5.79-2.98-6.86
		c-0.62-0.24-1.27-0.37-1.93-0.37h-70.6c-7,0-13.28,4.28-15.85,10.79L279.36,301.46z"/>
	<path class="st3" d="M279.18,312.95h85.46l22.49-57.16c1.02-2.58-0.24-5.49-2.82-6.51c-0.59-0.23-1.21-0.35-1.84-0.35h-67.02
		c-6.65,0-12.62,4.06-15.05,10.25L279.18,312.95z"/>
	
		<linearGradient id="SVGID_12_" gradientUnits="userSpaceOnUse" x1="332.1587" y1="1579.3621" x2="335.8394" y2="1672.73" gradientTransform="matrix(1 0 0 -1 -0.81 1913.1801)">
		<stop  offset="0.01" style="stop-color:#000000"/>
		<stop  offset="0.12" style="stop-color:#000000;stop-opacity:0.75"/>
		<stop  offset="1" style="stop-color:#000000;stop-opacity:0"/>
	</linearGradient>
	<path class="st15" d="M279.18,312.95h85.46l22.49-57.16c1.02-2.58-0.24-5.49-2.82-6.51c-0.59-0.23-1.21-0.35-1.84-0.35h-67.02
		c-6.65,0-12.62,4.06-15.05,10.25L279.18,312.95z"/>
	<linearGradient id="SVGID_13_" gradientUnits="userSpaceOnUse" x1="375.6145" y1="182.5473" x2="459.1474" y2="182.5473">
		<stop  offset="0" style="stop-color:#8492FD"/>
		<stop  offset="1" style="stop-color:#5DB5FC"/>
	</linearGradient>
	<path class="st16" d="M448.2,201.08c1.73-2.86,3.04-5.95,3.91-9.18l6.9-1.33l0.07-7.63l0.07-7.63l-6.88-1.44
		c-0.8-3.24-2.06-6.36-3.73-9.26l3.94-5.81l-5.35-5.44l-5.34-5.46l-5.92,3.83c-2.86-1.72-5.95-3.03-9.17-3.89l-1.33-6.9l-7.63-0.08
		l-7.63-0.07l-1.43,6.83c-3.24,0.82-6.35,2.07-9.26,3.73l-5.81-3.94l-5.44,5.35l-5.44,5.35l3.83,5.92
		c-1.73,2.86-3.04,5.95-3.91,9.18l-6.9,1.33l-0.07,7.63l-0.07,7.63l6.88,1.44c0.8,3.24,2.06,6.36,3.73,9.26l-3.89,5.82l5.35,5.44
		l5.35,5.46l5.92-3.83c2.86,1.72,5.95,3.03,9.17,3.89l1.33,6.9l7.63,0.08l7.63,0.07l1.41-6.89c3.24-0.8,6.36-2.05,9.26-3.72
		l5.81,3.94l5.44-5.35l5.44-5.35L448.2,201.08z M404.02,195.65c-7.24-7.38-7.13-19.23,0.25-26.48c7.38-7.24,19.23-7.13,26.48,0.25
		s7.13,19.23-0.25,26.48c0,0,0,0,0,0c-7.37,7.24-19.22,7.14-26.46-0.23C404.03,195.66,404.02,195.66,404.02,195.65L404.02,195.65z"
		/>
	<linearGradient id="SVGID_14_" gradientUnits="userSpaceOnUse" x1="330.9958" y1="148.1483" x2="386.4911" y2="148.1483">
		<stop  offset="0" style="stop-color:#8492FD"/>
		<stop  offset="1" style="stop-color:#5DB5FC"/>
	</linearGradient>
	<path class="st17" d="M379.31,160.45c1.15-1.91,2.02-3.97,2.59-6.12l4.59-0.88v-5.09v-5.08l-4.57-0.97
		c-0.54-2.16-1.38-4.23-2.49-6.15l2.63-3.87l-3.55-3.63l-3.55-3.62l-3.92,2.54c-1.9-1.14-3.96-2.02-6.11-2.59l-0.89-4.59h-5.08
		h-5.09l-0.96,4.58c-2.16,0.53-4.24,1.36-6.17,2.47l-3.87-2.62l-3.62,3.55l-3.63,3.55l2.56,3.92c-1.15,1.91-2.02,3.97-2.6,6.12
		l-4.59,0.88v5.09v5.08l4.58,0.97c0.54,2.16,1.38,4.23,2.49,6.15l-2.63,3.87l3.55,3.63l3.55,3.62l3.92-2.56
		c1.9,1.15,3.96,2.03,6.11,2.6l0.89,4.59h5.08h5.08l0.97-4.58c2.16-0.53,4.24-1.37,6.17-2.47l3.86,2.62l3.63-3.55l3.62-3.55
		L379.31,160.45z M349.88,156.89c-4.82-4.91-4.75-12.8,0.16-17.62s12.8-4.75,17.62,0.16c4.82,4.91,4.75,12.8-0.16,17.62c0,0,0,0,0,0
		c-4.93,4.8-12.82,4.7-17.62-0.22L349.88,156.89z"/>
	<polygon class="st1" points="13.36,183.87 12.03,182.17 53.34,149.54 91.2,161.31 131.77,122.51 163.78,127.16 191.86,94.82 
		193.48,96.24 164.63,129.46 132.51,124.8 91.77,163.75 53.78,151.95 	"/>
	<path class="st3" d="M97.19,161.81c0.4,3.15-1.83,6.03-4.98,6.43c-3.15,0.4-6.03-1.83-6.43-4.98c-0.4-3.15,1.83-6.03,4.98-6.43
		c0,0,0,0,0,0C93.91,156.43,96.79,158.66,97.19,161.81z"/>
	<path class="st1" d="M92.36,169.31c-3.75,0.48-7.17-2.17-7.66-5.91s2.17-7.17,5.91-7.66c3.75-0.48,7.17,2.17,7.66,5.91
		c0,0.01,0,0.01,0,0.02C98.74,165.41,96.1,168.82,92.36,169.31z M90.92,157.89c-2.6,0.29-4.47,2.64-4.18,5.23
		c0.29,2.6,2.64,4.47,5.23,4.18c2.6-0.29,4.47-2.64,4.18-5.23c0-0.04-0.01-0.08-0.01-0.12c-0.35-2.56-2.68-4.36-5.24-4.06H90.92z"/>
	<path class="st3" d="M137.8,123.29c0.4,3.15-1.83,6.03-4.98,6.43s-6.03-1.83-6.43-4.98c-0.4-3.15,1.83-6.03,4.98-6.43c0,0,0,0,0,0
		c3.14-0.4,6.02,1.82,6.42,4.96C137.8,123.28,137.8,123.29,137.8,123.29z"/>
	<path class="st1" d="M132.95,130.8c-3.75,0.48-7.17-2.17-7.66-5.91c-0.48-3.75,2.17-7.17,5.91-7.66c3.75-0.48,7.17,2.17,7.66,5.91
		c0,0.01,0,0.01,0,0.02C139.32,126.9,136.68,130.31,132.95,130.8z M131.51,119.38c-2.6,0.29-4.47,2.64-4.18,5.23
		c0.29,2.6,2.64,4.47,5.23,4.18c2.6-0.29,4.47-2.64,4.18-5.23c0-0.04-0.01-0.08-0.01-0.12
		C136.41,120.87,134.08,119.06,131.51,119.38C131.51,119.38,131.51,119.38,131.51,119.38z"/>
	<path class="st3" d="M169.61,127.39c0.39,3.15-1.84,6.03-5,6.42c-3.15,0.39-6.03-1.84-6.42-5c-0.39-3.15,1.84-6.02,4.99-6.42
		C166.33,122.01,169.2,124.24,169.61,127.39z"/>
	<path class="st1" d="M164.76,134.88c-3.74,0.47-7.16-2.18-7.63-5.92c-0.47-3.74,2.18-7.16,5.92-7.63c3.74-0.47,7.16,2.18,7.63,5.92
		C171.14,130.99,168.5,134.4,164.76,134.88z M163.37,123.47c-2.56,0.32-4.38,2.66-4.06,5.22c0.32,2.56,2.66,4.38,5.22,4.06
		c2.56-0.32,4.38-2.66,4.06-5.22c0,0,0-0.01,0-0.01c-0.32-2.56-2.65-4.37-5.2-4.05C163.38,123.47,163.38,123.47,163.37,123.47z"/>
	<g>
		<linearGradient id="SVGID_15_" gradientUnits="userSpaceOnUse" x1="76.8465" y1="300.4812" x2="179.4264" y2="300.4812">
			<stop  offset="0" style="stop-color:#8492FD"/>
			<stop  offset="1" style="stop-color:#5DB5FC"/>
		</linearGradient>
		<polygon class="st18" points="179.43,312.48 76.85,312.48 81.64,288.48 176.43,288.48 		"/>
		
			<linearGradient id="SVGID_16_" gradientUnits="userSpaceOnUse" x1="139.3382" y1="1663.4031" x2="124.0429" y2="1565.3103" gradientTransform="matrix(1 0 0 -1 0 1922)">
			<stop  offset="0.01" style="stop-color:#000000"/>
			<stop  offset="0.83" style="stop-color:#000000;stop-opacity:0.07"/>
			<stop  offset="1" style="stop-color:#000000;stop-opacity:0"/>
		</linearGradient>
		<polygon class="st19" points="179.23,312.48 82.64,312.48 87.15,288.48 176.4,288.48 		"/>
		<text transform="matrix(1 0 0 1 103.233 304.8339)" class="st20 st21 st22">诊断评测</text>
	</g>
</g>
</svg>
