<?xml version="1.0" encoding="utf-8"?>
<!-- Generator: Adobe Illustrator 23.0.2, SVG Export Plug-In . SVG Version: 6.00 Build 0)  -->
<svg version="1.1" id="图层_1" xmlns="http://www.w3.org/2000/svg" xmlns:xlink="http://www.w3.org/1999/xlink" x="0px" y="0px"
	 viewBox="0 0 490 346" style="enable-background:new 0 0 490 346;" xml:space="preserve">
<style type="text/css">
	.st0{opacity:0.18;fill:url(#SVGID_1_);}
	.st1{fill:#68E1FD;}
	.st2{fill:url(#SVGID_2_);}
	.st3{fill:url(#SVGID_3_);}
	.st4{opacity:0.23;fill:url(#SVGID_4_);enable-background:new    ;}
	.st5{fill:#EEA886;}
	.st6{fill:#A7634C;}
	.st7{opacity:0.52;fill:url(#SVGID_5_);enable-background:new    ;}
	.st8{opacity:0.52;fill:url(#SVGID_6_);enable-background:new    ;}
	.st9{fill:none;stroke:#000000;stroke-width:0.75;stroke-miterlimit:10;}
	.st10{fill:#3F3D56;}
	.st11{fill:url(#SVGID_7_);}
	.st12{fill:#BB826C;}
	.st13{fill:url(#SVGID_8_);}
	.st14{opacity:0.23;fill:url(#SVGID_9_);enable-background:new    ;}
	.st15{opacity:0.52;fill:url(#SVGID_10_);enable-background:new    ;}
	.st16{opacity:0.52;fill:url(#SVGID_11_);enable-background:new    ;}
	.st17{fill:#FFFFFF;}
	.st18{fill:none;stroke:#FFFFFF;stroke-width:0.77;stroke-miterlimit:10;}
	.st19{opacity:0.8;fill:#FFFFFF;}
	.st20{font-family:'SourceHanSansCN-Regular-GBpc-EUC-H';}
	.st21{font-size:12.4023px;}
</style>
<g>
	<linearGradient id="SVGID_1_" gradientUnits="userSpaceOnUse" x1="1" y1="172.3295" x2="488.4857" y2="172.3295">
		<stop  offset="0" style="stop-color:#8492FD"/>
		<stop  offset="1" style="stop-color:#5DB5FC"/>
	</linearGradient>
	<path class="st0" d="M6.07,284.11c-14.51-35.17,4.71-74.62,25.24-106.65c23.65-36.93,49.75-72.23,78.13-105.66
		c19.78-23.33,41.46-46.34,69.38-58.9s60.09-13.52,89.87-6.7s57.55,20.96,83.18,37.73c19.7,12.79,38.68,27.4,52.82,46.15
		c10.33,13.65,17.9,29.14,25.4,44.52l31.85,65.26c15.66,32.09,31.74,67.1,24.94,102.12c-2.11,10.88-14.88,32.74-22.92,40.35
		c0,0-288.33,0.75-369.48,0C38.6,341.81,32.47,347.92,6.07,284.11z"/>
	<rect x="19.66" y="68.69" class="st1" width="231.87" height="151.25"/>
	<linearGradient id="SVGID_2_" gradientUnits="userSpaceOnUse" x1="19.6571" y1="144.3188" x2="251.5254" y2="144.3188">
		<stop  offset="0" style="stop-color:#8492FD"/>
		<stop  offset="1" style="stop-color:#5DB5FC"/>
	</linearGradient>
	<rect x="19.66" y="68.69" class="st2" width="231.87" height="151.25"/>
	<linearGradient id="SVGID_3_" gradientUnits="userSpaceOnUse" x1="111.0384" y1="252.3682" x2="199.5198" y2="252.3682">
		<stop  offset="0" style="stop-color:#8492FD"/>
		<stop  offset="1" style="stop-color:#5DB5FC"/>
	</linearGradient>
	<polygon class="st3" points="199.52,262.72 111.04,262.72 115.17,242.02 196.93,242.02 	"/>
	
		<linearGradient id="SVGID_4_" gradientUnits="userSpaceOnUse" x1="164.9412" y1="1705.7595" x2="151.7481" y2="1621.1486" gradientTransform="matrix(1 0 0 -1 0 1922)">
		<stop  offset="0.01" style="stop-color:#000000"/>
		<stop  offset="0.83" style="stop-color:#000000;stop-opacity:0.07"/>
		<stop  offset="1" style="stop-color:#000000;stop-opacity:0"/>
	</linearGradient>
	<polygon class="st4" points="199.35,262.72 116.04,262.72 119.93,242.02 196.91,242.02 	"/>
	<path class="st1" d="M382.16,210.5c-0.31,3.51-0.64,7.19-0.98,10.9c-1.2,13.41-2.67,27.96-3.99,41.19
		c-2.28,22.77-4.24,41.63-4.41,43.97c-0.48,6.23-34.46,7.19-49.13,4.42c-9.81-2.02-19.41-4.96-28.67-8.77c0,0,2.66-35.65,1.88-65.98
		c-0.92-35.61-5.2-66.85-3.59-68.11c2.9-2.32,31.01-11.05,31.01-11.05l29.14,2.53c0,0,28.45,12.63,30.94,14.7
		c0.05,0.06,0.09,0.14,0.11,0.22C384.92,176.54,383.85,191.41,382.16,210.5z"/>
	<path class="st1" d="M301.72,216.58c0,0-3.37,6.89-5.27,11.98c-0.52,1.3-0.92,2.65-1.2,4.03c-0.25,1.65-1.76,4.45-3.68,7.37
		c-2.91,4.46-6.77,9.23-8.52,10.64s-5.5,1.2-9.36-0.8c-3.68-1.92-6.54-5.12-8.05-8.99c-0.54-1.83-0.69-3.74-0.44-5.63
		c0.54-4.9,1.49-9.74,2.85-14.48c0.87-3.3,1.91-6.76,3.01-10.23c5.13-16.2,11.98-32.96,13.44-35.39c2.71-4.37,8.66-6.99,8.66-6.99
		L301.72,216.58z"/>
	<path class="st1" d="M291.82,238.95c-0.07,0.35-0.14,0.7-0.25,1.04c-1.71,6.66-6.67,12.01-13.18,14.22
		c-4.24,1.34-9.96-1.1-13.09-4.79c-0.94-1.07-1.63-2.32-2.04-3.68c-0.87-3.21-0.31-7.7,0.36-11.78c0.34-1.94,0.68-3.79,0.93-5.37
		c0.45-2.81,1.61-5.45,3.38-7.68c0.06,0,0.1-0.13,0.16-0.19c2-2.61,4.85-4.43,8.05-5.15c3.71-0.67,7.5,0.7,9.92,3.59
		c1.51,1.62,2.77,3.45,3.75,5.43C292.07,229.02,292.77,234.07,291.82,238.95z"/>
	<path class="st5" d="M354.27,147.13c0,0-1.87,13.59-0.38,18.62c1.49,5.03-5.42,20.11-15.66,21.03
		c-10.25,0.92-11.82-16.49-11.98-18.54s2.79-3.34,1.31-8.39C326.06,154.82,352.68,141.08,354.27,147.13z"/>
	<path class="st6" d="M327.53,159.87c1.2,3.88-0.37,5.55-1.03,7.05c2.46,2.04,5.58,3.1,8.77,2.97c6.15-0.55,14.91-6.51,18.18-16.09
		c0-0.18,0.11-0.36,0.17-0.54c0.28-3.43,0.65-6.12,0.65-6.12C352.68,141.08,326.05,154.84,327.53,159.87z"/>
	
		<linearGradient id="SVGID_5_" gradientUnits="userSpaceOnUse" x1="352.904" y1="1725.4597" x2="347.7274" y2="1667.5106" gradientTransform="matrix(1 0 0 -1 -1.91 1889)">
		<stop  offset="0.01" style="stop-color:#000000"/>
		<stop  offset="0.13" style="stop-color:#000000;stop-opacity:0.56"/>
		<stop  offset="0.83" style="stop-color:#000000;stop-opacity:0.07"/>
		<stop  offset="1" style="stop-color:#000000;stop-opacity:0"/>
	</linearGradient>
	<path class="st7" d="M353.51,163.86c0,0-6.51,20.07-13.37,22.77c0,0-1.82,1.2,3.59,3.81c5.42,2.61,18.36-14.06,15.29-25.16
		c-0.7-2.88-2.86-5.19-5.69-6.09L353.51,163.86z"/>
	
		<linearGradient id="SVGID_6_" gradientUnits="userSpaceOnUse" x1="330.8084" y1="1724.9095" x2="325.6318" y2="1666.9485" gradientTransform="matrix(1 0 0 -1 -1.91 1889)">
		<stop  offset="0.01" style="stop-color:#000000"/>
		<stop  offset="0.13" style="stop-color:#000000;stop-opacity:0.56"/>
		<stop  offset="0.83" style="stop-color:#000000;stop-opacity:0.07"/>
		<stop  offset="1" style="stop-color:#000000;stop-opacity:0"/>
	</linearGradient>
	<path class="st8" d="M327.71,161.92c0,0-0.98,14.38,5.64,23.69c0,0-2.12,3.87-4.17,4.06c-2.05,0.19-8.28-11.65-7.06-21.05
		C322.84,163.13,326.56,160.54,327.71,161.92z"/>
	<path class="st9" d="M394.98,235.34"/>
	<path class="st5" d="M317.79,120.47c0,0,0.35,26.82,3.04,33.8c2.7,6.99,9.39,12.58,15.58,11.98c6.18-0.6,14.89-6.51,18.17-16.09
		s3.28-32.35,1.98-35.29c-1.31-2.94-8.39-12.1-24.56-9.14C320.77,107.82,317.46,116.39,317.79,120.47z"/>
	<path class="st10" d="M327.28,97.38c4.29-2.58,9.67-2.29,14.62-1.55c3.28,0.49,6.54,1.2,9.8,1.82c1.12,0.18,2.21,0.49,3.26,0.92
		c1.23,0.6,2.34,1.41,3.28,2.4c2.44,2.39,4.39,5.24,5.74,8.39c0.98,2.19,1.58,4.53,1.76,6.93c0.38,5.58-1.87,11.01-4.6,15.9
		c-0.43,0.77-1.02,1.62-1.91,1.64c-1.1,0-1.73-1.2-2.05-2.3c-1.65-5.42-1.59-10.15-7.44-13.18c-3.82-1.97-8.34-2.01-12.2-0.12
		c-4.03,2.01-7.06,5.99-11.48,6.91c1.48-1.53,2.6-3.37,3.28-5.39c-5.15,1.87-10.69,2.41-16.1,1.59c-1.05,0.04-1.94-0.78-1.98-1.83
		c-0.02-0.42,0.11-0.84,0.35-1.18c1.23-4.38,3.51-8.38,6.65-11.67C321.18,103.61,323.6,99.57,327.28,97.38z"/>
	
		<linearGradient id="SVGID_7_" gradientUnits="userSpaceOnUse" x1="367.408" y1="1765.6195" x2="333.2568" y2="1780.1068" gradientTransform="matrix(1 0 0 -1 -1.91 1889)">
		<stop  offset="0.01" style="stop-color:#000000"/>
		<stop  offset="0.12" style="stop-color:#000000;stop-opacity:0.75"/>
		<stop  offset="1" style="stop-color:#000000;stop-opacity:0"/>
	</linearGradient>
	<path class="st11" d="M327.28,97.38c4.29-2.58,9.67-2.29,14.62-1.55c3.28,0.49,6.54,1.2,9.8,1.82c1.12,0.18,2.21,0.49,3.26,0.92
		c1.23,0.6,2.34,1.41,3.28,2.4c2.44,2.39,4.39,5.24,5.74,8.39c0.98,2.19,1.58,4.53,1.76,6.93c0.38,5.58-1.87,11.01-4.6,15.9
		c-0.43,0.77-1.02,1.62-1.91,1.64c-1.1,0-1.73-1.2-2.05-2.3c-1.65-5.42-1.59-10.15-7.44-13.18c-3.82-1.97-8.34-2.01-12.2-0.12
		c-4.03,2.01-7.06,5.99-11.48,6.91c1.48-1.53,2.6-3.37,3.28-5.39c-5.15,1.87-10.69,2.41-16.1,1.59c-1.05,0.04-1.94-0.78-1.98-1.83
		c-0.02-0.42,0.11-0.84,0.35-1.18c1.23-4.38,3.51-8.38,6.65-11.67C321.18,103.61,323.6,99.57,327.28,97.38z"/>
	<path class="st5" d="M356.04,132.52c0,0,0.48-6.23,4.79-4.55c4.31,1.68,0.18,13.41-1.79,14.62c-0.86,0.67-1.89,1.09-2.97,1.2"/>
	<path class="st5" d="M281.17,241.38c0,0,7.51-6.4-1.62-17.97c-9.13-11.58-38.08-44.78-38.08-44.78l-6.11,12.46
		c0,0,21.39,54.27,30.75,55.47C271.66,247.26,277.22,245.34,281.17,241.38z"/>
	<polygon class="st12" points="397.98,242.71 373.43,276.81 373.38,295.14 415.14,252.66 	"/>
	<path class="st1" d="M426.16,249.05c-3.26,3.94-16.02,15.37-16.02,15.37l-26.78-1.58l-3.52-0.2l11.73-14.83
		c2.58-3.41,2.36-8.17-0.52-11.34l-9.81-15.05l-4.85-7.42c0,0-0.53-3.32-1.1-8.17c-1.34-11.06-2.96-30.06,0.8-35.61
		c2.93,1.17,5.73,2.62,8.39,4.31c4.12,2.64,8.63,6.45,10.57,11.29C398.94,195.77,432.69,241.24,426.16,249.05z"/>
	<path class="st12" d="M373.43,276.81c-2.04-0.61-4.12-1.05-6.23-1.29c-1.86,0-15.25,13.8-14.55,15.58s4.41,7.76,6.43,7.59
		c2.03-0.18,14.3-3.59,14.3-3.59S379.66,278.11,373.43,276.81z"/>
	<rect x="86.63" y="262.64" class="st1" width="387.8" height="8.28"/>
	<path class="st5" d="M237.17,170.02c-0.76-1.2-1.81-2.2-3.04-2.9c-0.98-0.42-2.01-0.68-3.07-0.77l-6.24-0.86l-12.56-1.73
		c-0.85-0.12-1.95-0.11-2.29,0.67c-0.34,0.78,0.38,1.58,1.09,2.04c2.92,1.89,7.12,2.4,8.65,5.51c0.85,1.71,0.6,3.74,0.71,5.64
		c0.56,6.51,5.38,11.86,11.8,13.07c1.8,0.43,3.7,0.1,5.26-0.91c0.95-0.85,1.72-1.89,2.23-3.06
		C242.99,180.54,241.04,175.52,237.17,170.02z"/>
	<rect x="94.48" y="270.91" class="st1" width="369.48" height="71.42"/>
	
		<linearGradient id="SVGID_8_" gradientUnits="userSpaceOnUse" x1="101.795" y1="1615.3734" x2="454.5349" y2="1615.3734" gradientTransform="matrix(1 0 0 -1 0 1922)">
		<stop  offset="7.285114e-03" style="stop-color:#8492FD"/>
		<stop  offset="1" style="stop-color:#5DB5FC"/>
	</linearGradient>
	<rect x="94.47" y="270.92" class="st13" width="369.48" height="71.42"/>
	
		<linearGradient id="SVGID_9_" gradientUnits="userSpaceOnUse" x1="277.7889" y1="1679.17" x2="281.7672" y2="1576.3331" gradientTransform="matrix(1 0 0 -1 0 1922)">
		<stop  offset="0.01" style="stop-color:#000000"/>
		<stop  offset="0.83" style="stop-color:#000000;stop-opacity:0.07"/>
		<stop  offset="1" style="stop-color:#000000;stop-opacity:0"/>
	</linearGradient>
	<rect x="94.47" y="270.92" class="st14" width="369.48" height="17.08"/>
	<path class="st1" d="M284.83,234.73c0.14,5.42-4.36,9.69-8.5,13.18c-0.81,0.73-1.69,1.37-2.64,1.91l-0.38,0.19
		c-1.61,0.65-3.39,0.79-5.08,0.38c-1.03-0.2-2.02-0.53-2.97-0.97c-4.91-2.29-8.39-7.39-11.41-12.14c-3.63-5.46-6.8-11.21-9.49-17.2
		c-1.55-3.71-2.72-7.56-3.89-11.41c-0.35-1.14-0.68-2.29-1.03-3.43c-0.65-2.11-1.29-4.21-1.93-6.31c-0.49-1.36-0.76-2.79-0.78-4.24
		c0.14-2.79,2.09-5.16,4.21-6.99c2.12-1.82,4.12-3.59,6.2-5.37c3.46,2.16,6.46,7.19,9.09,10.39c2.84,3.48,5.64,6.98,8.39,10.51
		c2.03,2.52,4.2,4.92,6.51,7.19c1.68,1.69,3.38,3.37,5.04,5.08c2.6,2.59,4.99,5.4,7.12,8.39c1.2,1.82,1.52,4.35,1.57,6.84
		C284.83,232.17,284.79,233.52,284.83,234.73z"/>
	
		<linearGradient id="SVGID_10_" gradientUnits="userSpaceOnUse" x1="333.1641" y1="1622.3442" x2="240.0094" y2="1687.543" gradientTransform="matrix(1 0 0 -1 -1.91 1889)">
		<stop  offset="0.01" style="stop-color:#000000"/>
		<stop  offset="0.83" style="stop-color:#000000;stop-opacity:0.07"/>
		<stop  offset="1" style="stop-color:#000000;stop-opacity:0"/>
	</linearGradient>
	<path class="st15" d="M296.46,228.11c0,0.16,0,0.32,0,0.48c-0.52,1.3-0.92,2.65-1.2,4.03c-0.25,1.65-1.76,4.45-3.68,7.37
		c-1.71,6.66-6.67,12.01-13.18,14.22c-4.24,1.34-9.96-1.1-13.09-4.79c-4.91-2.29-8.39-7.39-11.41-12.14
		c-3.65-5.46-6.84-11.21-9.55-17.2c-1.55-3.71-2.72-7.56-3.89-11.41c-0.35-1.14-0.68-2.29-1.03-3.43c0.41-1.95,1.28-3.77,2.55-5.31
		c4.42,12.87,11.16,25.63,21.65,34.01c0.54,0.42,1.07,0.83,1.62,1.2c1.2,0.86,2.4,1.67,3.71,2.4c2.53,2.1,6.24,1.93,8.56-0.4
		c2.63-1.92,5.08-4.07,7.32-6.43c1.81-1.93,3.47-3.99,4.98-6.16c2.59-3.71,4.69-7.74,6.26-11.98
		C294.53,216.71,296.5,223.68,296.46,228.11z"/>
	
		<linearGradient id="SVGID_11_" gradientUnits="userSpaceOnUse" x1="379.2491" y1="1605.4636" x2="394.0839" y2="1716.8922" gradientTransform="matrix(1 0 0 -1 -1.91 1889)">
		<stop  offset="0.01" style="stop-color:#000000"/>
		<stop  offset="0.13" style="stop-color:#000000;stop-opacity:0.56"/>
		<stop  offset="0.83" style="stop-color:#000000;stop-opacity:0.07"/>
		<stop  offset="1" style="stop-color:#000000;stop-opacity:0"/>
	</linearGradient>
	<path class="st16" d="M401.86,246.33c-1.5,2.24-17.36,15.49-18.56,16.51h-0.07l-3.45-0.25l11.73-14.83
		c2.58-3.41,2.36-8.17-0.52-11.34l-9.81-15.05c-1.2,13.41-2.67,27.96-3.99,41.19l-16.99-0.23l12.16-54.08
		c0.72-1.06,1.71-1.92,2.86-2.47c1.49-0.59,3.19-0.1,4.12,1.2c0.61,0.66,1.61,1.91,2.82,3.51c5.93,7.82,17.33,24.49,18.41,27.28
		C401.86,241.16,403.41,244.05,401.86,246.33z"/>
	<path class="st17" d="M130.98,83.54h8.62c4.96,0,8.98,4.02,8.98,8.97l0,0c0,4.95-4.02,8.97-8.98,8.97h-8.62
		c-4.96,0-8.98-4.02-8.98-8.97l0,0C122,87.56,126.02,83.54,130.98,83.54z"/>
	<path class="st17" d="M79.24,120.11h8.62c4.96,0,8.98,4.02,8.98,8.97l0,0c0,4.95-4.02,8.97-8.98,8.97h-8.62
		c-4.96,0-8.98-4.02-8.98-8.97l0,0C70.26,124.13,74.28,120.11,79.24,120.11z"/>
	<path class="st17" d="M183.93,119.07h8.62c4.96,0,8.98,4.02,8.98,8.97l0,0c0,4.95-4.02,8.97-8.98,8.97h-8.62
		c-4.96,0-8.98-4.02-8.98-8.97l0,0C174.95,123.09,178.97,119.07,183.93,119.07z"/>
	<path class="st17" d="M79.57,166.34h8.62c4.96,0,8.98,4.02,8.98,8.97l0,0c0,4.95-4.02,8.97-8.98,8.97h-8.62
		c-4.96,0-8.98-4.02-8.98-8.97l0,0C70.6,170.36,74.61,166.34,79.57,166.34z"/>
	<path class="st17" d="M132.54,163.49h8.62c4.96,0,8.98,4.02,8.98,8.97l0,0c0,4.95-4.02,8.97-8.98,8.97h-8.62
		c-4.96,0-8.98-4.02-8.98-8.97l0,0C123.56,167.51,127.58,163.49,132.54,163.49z"/>
	<path class="st17" d="M187.81,162.46h8.62c4.96,0,8.98,4.02,8.98,8.97l0,0c0,4.95-4.02,8.97-8.98,8.97h-8.62
		c-4.96,0-8.98-4.02-8.98-8.97l0,0C178.84,166.48,182.86,162.46,187.81,162.46z"/>
	<path class="st17" d="M133.75,118.74h8.62c4.96,0,8.98,4.02,8.98,8.97l0,0c0,4.95-4.02,8.97-8.98,8.97h-8.62
		c-4.96,0-8.98-4.02-8.98-8.97l0,0C124.77,122.75,128.79,118.74,133.75,118.74z"/>
	<line class="st18" x1="134.94" y1="100.53" x2="135.63" y2="118.99"/>
	<line class="st18" x1="91.3" y1="127.18" x2="128.56" y2="127.18"/>
	<line class="st18" x1="144.6" y1="127.18" x2="181.86" y2="127.18"/>
	<line class="st18" x1="83.71" y1="133.39" x2="83.71" y2="170.65"/>
	<line class="st18" x1="135.76" y1="133.39" x2="135.76" y2="170.65"/>
	<line class="st18" x1="189.24" y1="133.39" x2="189.24" y2="170.65"/>
	<polygon class="st10" points="330.9,187.9 334.57,197.69 342.62,189.63 341.42,187.21 333.36,185.61 	"/>
	<path class="st10" d="M314.24,262.37c0,0,14.5-33.77,15.58-46.96c0.58-7.73,1.62-15.41,3.1-23.02l4.15,1.28
		c0,0,0.77,26.66-0.78,33.38c-1.55,6.72-4.66,35.06-4.66,35.06L314.24,262.37z"/>
	<text transform="matrix(1 0 0 1 134.4249 256.3707)" class="st19 st20 st21">公平公正</text>
</g>
</svg>
